<svg width="49" height="49" viewBox="0 0 49 49" fill="none" xmlns="http://www.w3.org/2000/svg">
<circle cx="24.5" cy="24.5" r="24.5" fill="#F1F1E2"/>
<path d="M27.9606 21.6269L23.3007 26.0282L21.0644 23.7274C20.8164 23.4722 20.4082 23.4664 20.1532 23.7143C19.898 23.9625 19.8922 24.3705 20.1401 24.6257L22.8223 27.3792C23.0715 27.6299 23.4742 27.6384 23.7337 27.3983L28.8591 22.5641C28.9836 22.4467 29.0563 22.2846 29.0611 22.1136C29.0659 21.9427 29.0025 21.7769 28.8849 21.6526C28.6354 21.3934 28.2242 21.382 27.9606 21.6269Z" fill="#D66E59"/>
<path d="M24.5034 14.8528C19.1774 14.8528 14.8467 19.1835 14.8467 24.5095C14.8467 29.8357 19.1774 34.1664 24.5034 34.1664C29.8296 34.1664 34.1603 29.8357 34.1603 24.5095C34.1603 19.1835 29.8296 14.8528 24.5034 14.8528ZM24.5034 32.8737C19.8884 32.8737 16.1394 29.1182 16.1394 24.5095C16.1394 19.9008 19.8884 16.1455 24.5034 16.1455C29.1229 16.1455 32.8676 19.8902 32.8676 24.5095C32.8676 29.1288 29.1229 32.8737 24.5034 32.8737Z" fill="#D66E59"/>
<path d="M37.7927 20.9547L38.006 17.1216C38.0209 16.8643 37.881 16.6227 37.6505 16.5076L34.2376 14.7818L32.5119 11.3689C32.3945 11.1404 32.1543 11.0013 31.8978 11.0134L28.0582 11.2205L24.8587 9.10661C24.643 8.96446 24.3635 8.96446 24.1477 9.10661L20.9481 11.2205L17.1153 11.0071C16.8578 10.992 16.6164 11.1318 16.5013 11.3626L14.7752 14.7755L11.3626 16.5013C11.1338 16.6184 10.995 16.8585 11.0071 17.1153L11.2202 20.9484L9.10661 24.1479C8.96446 24.3635 8.96446 24.643 9.10661 24.8589L11.2139 28.0648L11.0005 31.8978C10.9856 32.1551 11.1253 32.3967 11.356 32.5119L14.7689 34.2376L16.4947 37.6505C16.6119 37.8793 16.852 38.0181 17.1088 38.006L20.9418 37.7927L24.1413 39.9063C24.3557 40.053 24.638 40.053 24.8523 39.9063L28.0519 37.7927L31.8849 38.006C32.1422 38.0209 32.3836 37.881 32.499 37.6505L34.2248 34.2376L37.6376 32.5119C37.8661 32.3945 38.0053 32.1546 37.9932 31.8978L37.7798 28.0648L39.8934 24.8652C40.0355 24.6496 40.0355 24.3698 39.8934 24.1542L37.7927 20.9547ZM36.5903 27.5348C36.5115 27.6504 36.4749 27.7896 36.4871 27.9292L36.6873 31.5552L33.462 33.184C33.339 33.2456 33.2393 33.3456 33.1777 33.4685L31.5486 36.6938L27.9226 36.4936C27.7837 36.4886 27.6466 36.5244 27.5282 36.5969L24.5032 38.5943L21.4783 36.5969C21.3733 36.5259 21.2496 36.4876 21.1228 36.4871H21.0905L17.4643 36.6875L15.8355 33.462C15.7738 33.339 15.6741 33.2393 15.5509 33.1777L12.319 31.5552L12.5195 27.9292C12.5246 27.7903 12.4885 27.6532 12.416 27.5348L10.4188 24.5097L12.416 21.4846C12.495 21.3693 12.5316 21.2299 12.5195 21.0905L12.319 17.4643L15.5446 15.8355C15.6675 15.7738 15.7673 15.6741 15.8289 15.5511L17.4577 12.3256L21.0839 12.5261C21.2226 12.5309 21.3597 12.495 21.4783 12.4226L24.5032 10.4254L27.5282 12.4226C27.6439 12.5016 27.7832 12.5382 27.9226 12.5261L31.5486 12.3256L33.1777 15.5511C33.2393 15.6741 33.339 15.7738 33.462 15.8355L36.6873 17.4643L36.4871 21.0905C36.482 21.2291 36.5181 21.3662 36.5903 21.4846L38.5878 24.5097L36.5903 27.5348Z" fill="#D66E59"/>
</svg>
