<svg width="49" height="49" viewBox="0 0 49 49" fill="none" xmlns="http://www.w3.org/2000/svg">
<circle cx="24.5" cy="24.5" r="24.5" fill="#F1F1E2"/>
<path d="M32.2916 12H16.7084C14.6636 12 13 13.6636 13 15.7084V31.2916C13 33.3364 14.6636 35 16.7084 35H32.2916C34.3364 35 36 33.3364 36 31.2916V15.7084C36 13.6636 34.3364 12 32.2916 12ZM34.6417 31.2916C34.6417 32.5874 33.5875 33.6417 32.2916 33.6417H16.7084C15.4126 33.6417 14.3583 32.5875 14.3583 31.2916V15.7084C14.3583 14.4126 15.4125 13.3583 16.7084 13.3583H32.2916C33.5874 13.3583 34.6417 14.4125 34.6417 15.7084V31.2916Z" fill="#D66E59"/>
<path d="M24.975 15.781H21.7267C20.4784 15.781 19.4629 16.7966 19.4629 18.0448V30.5402C19.4629 30.9153 19.767 31.2194 20.142 31.2194H23.3113C23.6864 31.2194 23.9904 30.9153 23.9904 30.5403V26.7148H24.975C27.9894 26.7148 30.4418 24.2623 30.4418 21.2479C30.4418 18.2334 27.9895 15.781 24.975 15.781ZM24.975 25.3565H23.3113C22.9363 25.3565 22.6322 25.6605 22.6322 26.0356V29.861H20.8212V18.0448C20.8212 17.5454 21.2274 17.1393 21.7267 17.1393H24.975C27.2405 17.1393 29.0836 18.9824 29.0836 21.2479C29.0836 23.5134 27.2405 25.3565 24.975 25.3565Z" fill="#D66E59"/>
<path d="M24.9756 18.95H23.3119C22.9369 18.95 22.6328 19.254 22.6328 19.6291V22.866C22.6328 23.241 22.9369 23.5451 23.3119 23.5451H24.9756C26.2425 23.5451 27.2732 22.5144 27.2732 21.2475C27.2732 19.9806 26.2425 18.95 24.9756 18.95ZM24.9756 22.1868H23.9911V20.3082H24.9756C25.4935 20.3082 25.9149 20.7296 25.9149 21.2475C25.9149 21.7654 25.4935 22.1868 24.9756 22.1868Z" fill="#D66E59"/>
</svg>
