<svg width="49" height="49" viewBox="0 0 49 49" fill="none" xmlns="http://www.w3.org/2000/svg">
<circle cx="24.5" cy="24.5" r="24.5" fill="#F1F1E2"/>
<path d="M32.8034 19.428H16.303C15.3283 19.428 14.5352 20.2212 14.5352 21.1959V22.3744C14.5352 26.5797 16.8582 30.3936 20.5967 32.3277C20.8854 32.4762 21.2413 32.3642 21.391 32.0743C21.5395 31.7855 21.4276 31.4296 21.1376 31.2799C17.7928 29.5497 15.7137 26.1377 15.7137 22.3744V21.1958C15.7137 20.8705 15.9778 20.6065 16.303 20.6065H32.8034C33.1287 20.6065 33.3927 20.8705 33.3927 21.1958V22.3744C33.3927 26.1376 31.3137 29.5497 27.9677 31.2787C27.6777 31.4283 27.5657 31.7843 27.7142 32.0731C27.8192 32.2758 28.0254 32.3924 28.2387 32.3924C28.3306 32.3924 28.4226 32.3712 28.5086 32.3264C32.2483 30.3935 34.5713 26.5808 34.5713 22.3743V21.1958C34.5713 20.2212 33.7781 19.428 32.8034 19.428Z" fill="#D66E59"/>
<path d="M38.0634 31.5768C37.9715 31.3565 37.757 31.2126 37.5189 31.2126H11.5898C11.3518 31.2126 11.1372 31.3565 11.0453 31.5768C10.9534 31.7972 11.004 32.0506 11.1726 32.2192L12.4938 33.5416C13.2741 34.3206 14.3088 34.7496 15.4108 34.7496H33.6956C34.7976 34.7496 35.8335 34.3207 36.6149 33.5416L37.9362 32.2192C38.1047 32.0506 38.1553 31.7972 38.0634 31.5768ZM35.7805 32.7083C35.2242 33.2646 34.4829 33.571 33.6968 33.571H15.4108C14.6247 33.571 13.8834 33.2646 13.3271 32.7083L13.0113 32.3924H36.0963L35.7805 32.7083Z" fill="#D66E59"/>
<path d="M38.1464 22.2106C36.5588 21.1899 34.0225 22.2979 33.7384 22.4263C33.4426 22.5618 33.3106 22.9107 33.4461 23.2077C33.5817 23.5047 33.9294 23.6355 34.2275 23.5C34.7956 23.2419 36.6177 22.6302 37.5088 23.2042C37.9107 23.4623 38.1075 23.9632 38.1075 24.7316C38.1075 27.0912 33.3483 28.5173 31.5108 28.8685L31.0936 28.951C30.7742 29.0135 30.5668 29.3234 30.6293 29.6428C30.6847 29.9233 30.931 30.1178 31.2068 30.1178C31.2445 30.1178 31.2822 30.1143 31.3211 30.106L31.7348 30.0247C32.0435 29.9657 39.286 28.5456 39.286 24.7316C39.2861 23.546 38.9019 22.6986 38.1464 22.2106Z" fill="#D66E59"/>
<path d="M29.1421 14.4921C30.1003 13.2946 30.1003 11.4195 29.1421 10.222C28.9382 9.96743 28.5693 9.925 28.3136 10.1301C28.059 10.334 28.0177 10.704 28.2217 10.9586C28.8287 11.7164 28.8287 12.9976 28.2205 13.7578C27.2611 14.9553 27.2611 16.8304 28.2205 18.0279C28.3372 18.174 28.5081 18.2494 28.6813 18.2494C28.8098 18.2494 28.9406 18.207 29.049 18.1198C29.3036 17.9159 29.3449 17.5446 29.141 17.2913C28.5328 16.5334 28.5328 15.2523 29.1421 14.4921Z" fill="#D66E59"/>
<path d="M25.6012 14.4918C26.5606 13.2944 26.5606 11.4192 25.6012 10.2218C25.3985 9.96718 25.0273 9.92591 24.7727 10.1298C24.5181 10.3337 24.4768 10.705 24.6807 10.9584C25.2889 11.7162 25.2889 12.9973 24.6796 13.7575C23.7214 14.955 23.7214 16.8301 24.6796 18.0276C24.7963 18.1737 24.9671 18.2492 25.1404 18.2492C25.2688 18.2492 25.3985 18.2068 25.5081 18.1195C25.7627 17.9156 25.804 17.5456 25.6 17.291C24.9931 16.5331 24.9931 15.252 25.6012 14.4918Z" fill="#D66E59"/>
<path d="M22.0699 14.4933C23.0281 13.2958 23.0281 11.4207 22.0699 10.2232C21.8672 9.96865 21.4971 9.92622 21.2413 10.1313C20.9879 10.334 20.9467 10.7053 21.1494 10.9587C21.7564 11.7165 21.7564 12.9977 21.1482 13.7578C20.1889 14.9553 20.1889 16.8304 21.1482 18.0279C21.2649 18.174 21.4358 18.2495 21.609 18.2495C21.7375 18.2495 21.8683 18.2071 21.9768 18.1211C22.2313 17.9171 22.2726 17.5459 22.0687 17.2925C21.4605 16.5334 21.4605 15.2535 22.0699 14.4933Z" fill="#D66E59"/>
</svg>
