<svg width="45" height="48" viewBox="0 0 45 48" fill="none" xmlns="http://www.w3.org/2000/svg">
<path d="M13.2733 16.1441L15.2936 14.1478L14.4641 13.2273L12.5354 15.1331L13.2733 16.1441Z" fill="#D66E59"/>
<path d="M11.5743 13.8171L13.3847 12.0291L12.5552 11.1086L10.8365 12.8061L11.5743 13.8171Z" fill="#D66E59"/>
<path d="M9.87537 11.4898L11.4749 9.9092L10.6455 8.98869L9.13753 10.4787L9.87537 11.4898Z" fill="#D66E59"/>
<path d="M8.17642 9.16254L9.5652 7.78946L8.73574 6.86977L7.43858 8.15151L8.17642 9.16254Z" fill="#D66E59"/>
<path d="M19.0567 18.3249L18.2825 17.466L16.8548 18.8767C17.6394 18.9346 18.4079 18.7377 19.0567 18.3249Z" fill="#D66E59"/>
<path d="M15.1537 18.291L17.2016 16.2667L16.3721 15.3462L14.2383 17.4546C14.4942 17.7906 14.8077 18.0665 15.1537 18.291Z" fill="#D66E59"/>
<path d="M5.74751 3.55168L4.91806 2.63118L4.04166 3.49797L4.77951 4.50819L5.74751 3.55168Z" fill="#D66E59"/>
<path d="M15.9005 44.0072C15.2435 43.2353 14.8763 42.2337 14.8403 41.11C14.8049 40.0169 14.4898 38.9448 13.9288 38.0098C13.0334 36.5175 13.1796 34.4455 14.2695 33.1907L15.0153 32.3312C15.6572 31.5911 16.4512 31.0212 17.3287 30.642L15.4947 30.3248C15.0913 30.2555 14.7093 30.1219 14.3542 29.9416L12.0161 32.7791C11.0362 33.9684 9.59305 34.7335 8.05768 34.8783C4.98615 35.1654 2.44823 37.4616 2.02243 40.3371C1.71505 42.4146 2.38474 44.4439 3.86055 45.905C5.33636 47.3661 7.37715 48.0134 9.45681 47.6873C10.5007 47.5219 11.5011 47.0838 12.3496 46.4216C13.3229 45.6626 14.7046 45.7482 15.5625 46.6181L16.4878 47.5545C16.6576 47.7263 16.8835 47.8212 17.1253 47.8226C17.6234 47.8256 18.0312 47.4227 18.0341 46.9246C18.0357 46.6611 17.9421 46.4042 17.7709 46.2033L15.9005 44.0072ZM8.37227 45.3525C6.14715 45.3392 4.35351 43.524 4.3668 41.2989C4.3801 39.0738 6.19531 37.2801 8.42043 37.2934C10.6455 37.3067 12.4392 39.1219 12.4259 41.347C12.4126 43.5722 10.5974 45.3658 8.37227 45.3525Z" fill="#D66E59"/>
<path d="M37.6005 7.07059C38.1422 6.24209 38.4317 5.28153 38.4376 4.29107C38.4433 3.34252 38.169 2.435 37.6546 1.66307L22.6366 19.8907L26.4524 24.1261L37.6005 7.07059Z" fill="#D66E59"/>
<path d="M7.65725 5.67061L6.82779 4.75011L5.74061 5.82438L6.47845 6.8354L7.65725 5.67061Z" fill="#D66E59"/>
<path d="M43.723 47.6827L40.1581 46.2325C39.0068 45.7638 38.4067 44.4965 38.7621 43.2857C39.013 42.4305 39.082 41.5379 38.969 40.633C38.6052 37.7149 36.1217 35.3604 33.0626 35.0359C31.4888 34.8685 30.0236 34.0603 29.0422 32.8181L28.851 32.5752C28.1727 31.7185 27.8028 30.6427 27.8093 29.5483L27.8164 28.362C27.8176 28.1605 27.7438 27.9683 27.6093 27.8184L20.1418 19.5298C19.2515 20.1628 18.1856 20.507 17.0856 20.5004C16.9558 20.4997 16.8253 20.494 16.6948 20.4836C15.1747 20.3609 13.7883 19.5837 12.889 18.3533L1.9213 3.32555L3.83705 1.43256C3.5816 1.15702 3.22231 0.995293 2.84515 0.99304C2.57597 0.991431 2.31519 1.06885 2.08945 1.2166L1.11446 1.85875C0.773825 2.08238 0.569278 2.45995 0.566841 2.86774C0.565594 3.07647 0.618357 3.2831 0.719624 3.46504L14.0664 27.5271C14.4236 28.1716 15.044 28.6121 15.7686 28.7365L20.4471 29.5454C22.8656 29.9628 25.0712 31.2252 26.6581 33.0988L26.7966 33.2609C27.8634 34.5213 28.0257 36.6314 27.1602 37.9657C26.3191 39.2631 25.9812 40.7746 26.1839 42.3361C26.5452 45.1236 28.7311 47.3812 31.4993 47.8273C31.8414 47.8833 32.1902 47.9128 32.5352 47.9149L43.6632 47.9814C43.7486 47.9819 43.8183 47.913 43.8188 47.8276C43.8192 47.7639 43.7817 47.7064 43.723 47.6827ZM20.5669 27.6949C19.6764 27.6896 18.9594 26.964 18.9647 26.0734C18.9701 25.1829 19.6957 24.4659 20.5862 24.4713C21.4767 24.4766 22.1937 25.2022 22.1884 26.0927C22.1831 26.9832 21.4575 27.7002 20.5669 27.6949ZM32.5496 45.4971C30.3245 45.4838 28.5309 43.6686 28.5441 41.4435C28.5574 39.2184 30.3727 37.4247 32.5978 37.438C34.8229 37.4513 36.6165 39.2666 36.6032 41.4917C36.5899 43.7168 34.7747 45.5104 32.5496 45.4971Z" fill="#D66E59"/>
</svg>
