<svg width="49" height="49" viewBox="0 0 49 49" fill="none" xmlns="http://www.w3.org/2000/svg">
<circle cx="24.5" cy="24.5" r="24.5" fill="#F1F1E2"/>
<path d="M14.7903 22.7163C14.4851 22.7163 14.1867 22.8068 13.9329 22.9764C13.6792 23.146 13.4814 23.387 13.3645 23.669C13.2477 23.951 13.2172 24.2613 13.2767 24.5607C13.3363 24.86 13.4833 25.135 13.6991 25.3508C13.9149 25.5667 14.1899 25.7136 14.4893 25.7732C14.7886 25.8327 15.0989 25.8022 15.3809 25.6854C15.6629 25.5686 15.9039 25.3708 16.0735 25.117C16.2431 24.8632 16.3336 24.5648 16.3336 24.2596C16.3332 23.8504 16.1704 23.4581 15.8811 23.1688C15.5918 22.8795 15.1995 22.7168 14.7903 22.7163ZM14.7903 24.774C14.6886 24.774 14.5891 24.7438 14.5045 24.6873C14.4199 24.6308 14.354 24.5504 14.3151 24.4564C14.2761 24.3624 14.266 24.259 14.2858 24.1592C14.3057 24.0594 14.3546 23.9678 14.4266 23.8958C14.4985 23.8239 14.5902 23.7749 14.69 23.755C14.7898 23.7352 14.8932 23.7454 14.9872 23.7843C15.0812 23.8232 15.1615 23.8892 15.2181 23.9738C15.2746 24.0584 15.3048 24.1578 15.3048 24.2596C15.3046 24.396 15.2504 24.5267 15.1539 24.6232C15.0575 24.7196 14.9267 24.7738 14.7903 24.774Z" fill="#D66E59"/>
<path d="M34.3382 22.7163C34.033 22.7163 33.7346 22.8068 33.4808 22.9764C33.227 23.146 33.0292 23.387 32.9124 23.669C32.7956 23.951 32.765 24.2613 32.8246 24.5607C32.8841 24.86 33.0311 25.135 33.2469 25.3508C33.4628 25.5667 33.7378 25.7136 34.0371 25.7732C34.3365 25.8327 34.6468 25.8022 34.9288 25.6854C35.2108 25.5686 35.4518 25.3708 35.6214 25.117C35.791 24.8632 35.8815 24.5648 35.8815 24.2596C35.881 23.8504 35.7183 23.4581 35.4289 23.1688C35.1396 22.8795 34.7474 22.7168 34.3382 22.7163ZM34.3382 24.774C34.2364 24.774 34.137 24.7438 34.0524 24.6873C33.9678 24.6308 33.9019 24.5504 33.8629 24.4564C33.824 24.3624 33.8138 24.259 33.8337 24.1592C33.8535 24.0594 33.9025 23.9678 33.9744 23.8958C34.0464 23.8239 34.138 23.7749 34.2378 23.755C34.3376 23.7352 34.4411 23.7454 34.5351 23.7843C34.6291 23.8232 34.7094 23.8892 34.7659 23.9738C34.8224 24.0584 34.8526 24.1578 34.8526 24.2596C34.8525 24.396 34.7982 24.5267 34.7018 24.6232C34.6053 24.7196 34.4746 24.7738 34.3382 24.774Z" fill="#D66E59"/>
<path d="M37.9394 24.2597C37.9394 23.7816 37.8443 23.3084 37.6594 22.8675C37.4746 22.4266 37.2039 22.0269 36.863 21.6918C36.5221 21.3567 36.1179 21.0928 35.6739 20.9155C35.2299 20.7382 34.7551 20.6511 34.2771 20.6592C32.3254 20.6918 30.7375 22.3297 30.7375 24.3105V26.0386C29.3283 25.655 27.2731 25.2885 24.5644 25.2885C21.8558 25.2885 19.8006 25.655 18.3914 26.0386V24.2597C18.3914 23.775 18.2935 23.2953 18.1037 22.8494C17.9139 22.4035 17.636 22.0004 17.2868 21.6644C16.9375 21.3285 16.5239 21.0664 16.071 20.8941C15.618 20.7217 15.1349 20.6426 14.6506 20.6614C13.7456 20.6995 12.8879 21.0762 12.2474 21.7167C11.6069 22.3572 11.2303 23.2149 11.1921 24.1199C11.1578 25.0092 11.4539 25.8798 12.0233 26.5639C12.5927 27.2479 13.3951 27.697 14.276 27.8246V29.9183C14.2766 30.4639 14.4936 30.9869 14.8793 31.3727C15.2651 31.7584 15.7881 31.9754 16.3337 31.976V33.5193C16.3337 33.6557 16.3879 33.7866 16.4843 33.883C16.5808 33.9795 16.7117 34.0337 16.8481 34.0337H18.3914C18.4869 34.0337 18.5805 34.0071 18.6618 33.9569C18.7431 33.9067 18.8087 33.8348 18.8514 33.7494L19.7381 31.976H29.3908L30.2774 33.7494C30.3202 33.8348 30.3858 33.9067 30.4671 33.9569C30.5483 34.0071 30.642 34.0337 30.7375 34.0337H32.2808C32.4172 34.0337 32.5481 33.9795 32.6445 33.883C32.741 33.7866 32.7952 33.6557 32.7952 33.5193V31.976C33.3408 31.9754 33.8638 31.7584 34.2495 31.3727C34.6353 30.9869 34.8523 30.4639 34.8529 29.9183V27.824C35.7095 27.6992 36.4926 27.2704 37.0593 26.6161C37.626 25.9617 37.9384 25.1253 37.9394 24.2597ZM18.0734 33.0049H17.3625V31.976H18.5879L18.0734 33.0049ZM31.7664 33.0049H31.0554L30.541 31.976H31.7664V33.0049ZM34.3385 26.8318C34.202 26.8318 34.0712 26.886 33.9747 26.9825C33.8783 27.0789 33.8241 27.2098 33.8241 27.3462V29.9183C33.8237 30.1911 33.7152 30.4526 33.5224 30.6455C33.3295 30.8384 33.068 30.9468 32.7952 30.9472H16.3337C16.0609 30.9468 15.7994 30.8384 15.6065 30.6455C15.4136 30.4526 15.3051 30.1911 15.3048 29.9183V27.3462C15.3048 27.2098 15.2506 27.0789 15.1542 26.9825C15.0577 26.886 14.9268 26.8318 14.7904 26.8318C14.4441 26.8318 14.1015 26.7619 13.7829 26.6263C13.4643 26.4906 13.1764 26.2921 12.9363 26.0425C12.6963 25.7929 12.5092 25.4974 12.3862 25.1738C12.2631 24.8501 12.2067 24.505 12.2202 24.159C12.2475 23.5128 12.5164 22.9005 12.9737 22.4432C13.431 21.9859 14.0433 21.717 14.6894 21.6897C15.0354 21.6761 15.3806 21.7326 15.7043 21.8556C16.0279 21.9786 16.3234 22.1657 16.573 22.4057C16.8226 22.6457 17.0212 22.9336 17.1569 23.2521C17.2925 23.5707 17.3625 23.9134 17.3625 24.2597V26.3559C16.5516 26.6389 16.1255 26.8731 16.0815 26.8978L16.5848 27.7952C16.6113 27.7804 19.304 26.3174 24.5644 26.3174C29.8249 26.3174 32.5176 27.7804 32.543 27.7946L33.0474 26.8978C33.0034 26.8731 32.5773 26.6386 31.7664 26.3559V24.3105C31.7664 22.8877 32.9004 21.7112 34.2943 21.6879C34.6339 21.6821 34.9713 21.7435 35.2871 21.8687C35.6028 21.9939 35.8906 22.1805 36.1339 22.4175C36.3772 22.6545 36.5711 22.9374 36.7044 23.2498C36.8378 23.5622 36.908 23.8979 36.9109 24.2376C36.9138 24.5772 36.8494 24.9141 36.7214 25.2287C36.5935 25.5434 36.4044 25.8295 36.1653 26.0707C35.9261 26.3119 35.6415 26.5034 35.328 26.634C35.0145 26.7646 34.6781 26.8318 34.3385 26.8318Z" fill="#D66E59"/>
<path d="M15.3042 17.0577C15.3046 16.7849 15.4131 16.5234 15.6059 16.3305C15.7988 16.1377 16.0603 16.0292 16.3331 16.0288H32.7946C33.0674 16.0292 33.3289 16.1377 33.5218 16.3305C33.7147 16.5234 33.8232 16.7849 33.8235 17.0577V19.6298H34.8523V17.0577C34.8517 16.5121 34.6347 15.9891 34.249 15.6034C33.8632 15.2176 33.3402 15.0006 32.7946 15H16.3331C15.7875 15.0006 15.2645 15.2176 14.8788 15.6034C14.493 15.9891 14.276 16.5121 14.2754 17.0577V19.6298H15.3042V17.0577Z" fill="#D66E59"/>
<path d="M21.4775 18.0867H22.5064V19.1155H21.4775V18.0867Z" fill="#D66E59"/>
<path d="M24.0508 20.6587H25.0796V21.6875H24.0508V20.6587Z" fill="#D66E59"/>
<path d="M18.9053 20.6587H19.9341V21.6875H18.9053V20.6587Z" fill="#D66E59"/>
<path d="M21.4775 23.231H22.5064V24.2598H21.4775V23.231Z" fill="#D66E59"/>
<path d="M26.6221 18.0867H27.6509V19.1155H26.6221V18.0867Z" fill="#D66E59"/>
<path d="M29.1943 20.6587H30.2232V21.6875H29.1943V20.6587Z" fill="#D66E59"/>
<path d="M26.6221 23.231H27.6509V24.2598H26.6221V23.231Z" fill="#D66E59"/>
</svg>
