<svg width="49" height="49" viewBox="0 0 49 49" fill="none" xmlns="http://www.w3.org/2000/svg">
<circle cx="24.5" cy="24.5" r="24.5" fill="#F1F1E2"/>
<path d="M19.5274 36.999H21.6367C22.2297 36.999 22.7777 36.8021 23.2187 36.4705V36.4717C23.2187 36.7629 23.4548 36.999 23.746 36.999H26.2582C28.6529 36.999 30.6012 35.0507 30.6012 32.656V29.0891C30.6012 28.2168 29.8915 27.5072 29.0192 27.5072H28.4919V26.9798C28.4919 26.2923 28.0511 25.7059 27.4373 25.4882V11.582C27.4373 10.7097 26.7276 10 25.8553 10C24.983 10 24.2733 10.7097 24.2733 11.582V25.4882C23.6595 25.7058 23.2187 26.2923 23.2187 26.9798V27.5072H22.6913C21.819 27.5072 21.1094 28.2168 21.1094 29.0891V33.0588C21.1094 34.3122 20.4128 35.4392 19.2915 36.0001C19.0728 36.1094 18.958 36.3549 19.0141 36.5929C19.0704 36.8309 19.2828 36.999 19.5274 36.999ZM25.328 25.3979V24.3432H26.3826V25.3979H25.328ZM26.3826 23.2886H25.328V22.2339H26.3826V23.2886ZM25.8553 11.0546C26.146 11.0546 26.3826 11.2912 26.3826 11.582V21.1793H25.328V11.582C25.328 11.2912 25.5645 11.0546 25.8553 11.0546ZM24.2733 26.9798C24.2733 26.6891 24.5099 26.4525 24.8006 26.4525H26.9099C27.2007 26.4525 27.4373 26.6891 27.4373 26.9798V27.5072H24.2733V26.9798ZM22.164 33.0588V29.0891C22.164 28.7984 22.4006 28.5618 22.6913 28.5618H29.0192C29.31 28.5618 29.5466 28.7984 29.5466 29.0891V32.656C29.5466 34.4458 28.1088 35.9053 26.3277 35.9426C27.0118 35.2722 27.4373 34.3389 27.4373 33.3077V31.1984C27.4373 30.9071 27.2011 30.6711 26.9099 30.6711C26.6187 30.6711 26.3826 30.9071 26.3826 31.1984V33.3077C26.3826 34.5809 25.4753 35.6462 24.2733 35.8912V33.3077C24.2733 33.0165 24.0372 32.7804 23.746 32.7804C23.4548 32.7804 23.2187 33.0165 23.2187 33.3077V34.3624C23.2187 35.2347 22.509 35.9443 21.6367 35.9443H21.0713C21.7656 35.1652 22.164 34.1481 22.164 33.0588Z" fill="#D66E59"/>
<path d="M23.7461 31.7258C24.0373 31.7258 24.2734 31.4897 24.2734 31.1984V30.1438C24.2734 29.8525 24.0373 29.6165 23.7461 29.6165C23.4549 29.6165 23.2188 29.8525 23.2188 30.1438V31.1984C23.2188 31.4897 23.4548 31.7258 23.7461 31.7258Z" fill="#D66E59"/>
</svg>
