<svg width="49" height="49" viewBox="0 0 49 49" fill="none" xmlns="http://www.w3.org/2000/svg">
<circle cx="24.5" cy="24.5" r="24.5" fill="#F1F1E2"/>
<path d="M11.3051 24.6058C11.3051 25.4985 10.5909 26.2126 9.69826 26.2126C8.80558 26.2126 8.09144 25.4985 8.09144 24.6058C8.09144 23.7131 8.80558 22.999 9.69826 22.999H11.3051V24.6058ZM13.0904 18H11.3051V21.2493C10.6981 21.2493 10.091 21.2493 9.69826 21.2493C7.84149 21.2493 6.3418 22.749 6.3418 24.6058C6.3418 26.4626 7.84149 27.9623 9.69826 27.9623C11.555 27.9623 13.0547 26.4626 13.0547 24.6058C13.0547 23.6774 13.0547 21.2493 13.0547 21.2493L13.0904 18Z" fill="#D66E59"/>
<path d="M30.8374 26.2128C31.73 26.2128 32.4442 25.4987 32.4442 24.606C32.4442 23.7133 31.73 22.9992 30.8374 22.9992C29.9447 22.9992 29.2305 23.7133 29.2305 24.606C29.2662 25.4987 29.9804 26.2128 30.8374 26.2128ZM27.5166 24.606C27.5166 22.7492 29.0163 21.2495 30.8731 21.2495C32.7298 21.2495 34.2295 22.7492 34.2295 24.606C34.2295 26.4627 32.7298 27.9624 30.8731 27.9624C29.0163 27.9624 27.5166 26.4627 27.5166 24.606Z" fill="#D66E59"/>
<path d="M39.8352 24.606C39.8352 23.749 39.1211 23.0349 38.2641 23.0349C37.4071 23.0349 36.693 23.749 36.693 24.606C36.693 25.0345 36.693 27.8196 36.693 27.8196C35.8003 27.8196 34.9434 27.8196 34.9434 27.8196C34.9434 27.8196 34.9434 25.5344 34.9434 24.606C34.9434 22.7492 36.4431 21.2495 38.2998 21.2495C40.1566 21.2495 41.6563 22.7492 41.6563 24.606C41.6563 25.5344 41.6563 27.8196 41.6563 27.8196C41.6563 27.8196 40.7993 27.8196 39.9066 27.8196C39.8352 27.8196 39.8352 25.0345 39.8352 24.606Z" fill="#D66E59"/>
<path d="M23.4092 23.4631C23.1593 23.2845 23.2307 22.9989 23.6591 22.8917C24.1948 22.7489 25.1231 22.856 25.9087 23.2131L26.73 22.0705C26.3729 21.7848 25.5873 21.3921 24.4447 21.3206C24.4447 21.3206 22.5165 21.0707 21.731 22.5347C21.731 22.5347 21.0525 23.8915 22.4094 24.7485C23.2307 25.2484 24.6589 25.4627 25.1231 25.6769C25.4802 25.8911 25.3731 26.2839 24.8375 26.391C23.9091 26.6053 22.6951 26.0697 22.3023 25.784L21.4453 26.9624C22.0166 27.3908 22.7308 27.7836 23.8734 27.9621C23.8734 27.9621 25.6945 28.2835 26.6942 27.0338C26.8728 26.8195 27.694 25.2841 26.0515 24.3914C25.1946 23.9273 23.8377 23.713 23.4092 23.4631Z" fill="#D66E59"/>
<path d="M15.1969 29.1051C15.2683 29.1408 16.0896 29.7121 16.8751 29.7121C18.8033 29.7478 18.9104 27.7482 18.9104 27.284C18.5533 27.6768 17.8035 27.9267 17.3393 27.9267C15.4825 27.9267 14.0186 26.4984 14.0186 24.6417C14.0186 23.7133 14.0186 21.3923 14.0186 21.3923C14.0186 21.3923 14.8755 21.3923 15.7682 21.3923C15.7682 21.3923 15.7682 24.2489 15.7682 24.6417C15.7682 25.4986 16.4823 26.2128 17.3393 26.2128C18.1963 26.2128 18.9104 25.4986 18.9104 24.6417C18.9104 24.2846 18.9104 21.3923 18.9104 21.3923C19.8031 21.3923 20.6601 21.3923 20.6601 21.3923V24.6417C20.6601 27.5339 20.8029 30.4976 17.982 31.1761C15.8753 31.676 14.3756 30.3548 14.2685 30.2834L15.1969 29.1051Z" fill="#D66E59"/>
</svg>
