<svg width="59" height="52" viewBox="0 0 59 52" fill="none" xmlns="http://www.w3.org/2000/svg">
<path d="M41.9149 51.7542C41.4908 51.7542 41.0825 51.6911 40.7108 51.5653C39.9475 51.3065 39.3673 50.7909 39.0373 50.0892C36.6005 49.2969 34.3924 45.8863 32.9248 40.6051L30.9863 33.6298L26.7155 28.166L30.7832 42.8033C30.7839 42.8056 30.7844 42.8078 30.7851 42.81C30.7857 42.8122 30.7863 42.8144 30.7869 42.8165L32.7416 49.8501C32.9491 50.5967 32.5111 51.3731 31.765 51.581C30.9152 51.8172 30.0469 51.8119 29.3196 51.5654C28.5561 51.3066 27.976 50.791 27.6461 50.0893C25.2095 49.2968 23.0009 45.8854 21.5335 40.6052L20.9246 38.4142C20.7983 37.9594 21.0646 37.488 21.5196 37.3615C21.9745 37.2351 22.4459 37.5017 22.5723 37.9565L23.1812 40.1475C24.2983 44.1674 25.6881 46.5246 26.9304 47.6751L26.8299 47.3142C26.5347 46.2515 26.668 45.1395 27.2054 44.1826C27.6083 43.4656 28.2062 42.8959 28.9316 42.5263L24.6527 27.1293C24.4713 26.4767 24.7671 25.8079 25.3717 25.5027C25.9766 25.1974 26.6902 25.3571 27.1075 25.8906L32.4387 32.7106C32.5077 32.799 32.5589 32.9002 32.5889 33.0083L34.5728 40.1473C35.2784 42.6866 36.1819 44.8148 37.1853 46.302C37.5548 46.8496 37.9373 47.3074 38.3189 47.6644L38.2216 47.3138C37.688 45.3939 38.6119 43.3957 40.3223 42.5231L39.3736 39.1093C39.3717 39.1028 39.3702 39.0969 39.3682 39.0903C39.368 39.0894 39.3678 39.0883 39.3674 39.0875L37.0089 30.6009L30.1638 21.8347C29.8731 21.4625 29.9392 20.9251 30.3114 20.6346C30.6839 20.344 31.2211 20.4101 31.5115 20.7822L38.4611 29.6821C38.5301 29.7705 38.581 29.8715 38.611 29.9795L41.0208 38.6507C41.7251 41.1797 42.6257 43.2999 43.6257 44.7833C43.996 45.3326 44.3793 45.7919 44.762 46.1495L44.6646 45.7992C44.1316 43.8809 45.0534 41.8843 46.7608 41.0108C46.7178 40.8857 46.6835 40.7569 46.658 40.6244L43.0286 27.5685L37.2809 20.2078C35.8821 18.4167 35.0602 16.2049 34.9432 13.9378L33.3396 13.2321C32.9073 13.0419 32.7111 12.5374 32.9012 12.1052C33.0915 11.673 33.5959 11.477 34.0282 11.6669L49.1347 18.3144C50.6446 18.9787 51.6202 20.4739 51.6202 22.1236V41.6949C51.6202 42.47 50.9902 43.1006 50.2156 43.101C50.2151 43.101 50.2145 43.101 50.2139 43.101C49.8235 43.101 49.4422 43.0544 49.0836 42.9649L50.5764 48.3349C50.7838 49.0821 50.3456 49.8585 49.5994 50.0659C48.7501 50.3023 47.8818 50.2968 47.1544 50.0503C46.3911 49.7915 45.8109 49.276 45.4809 48.5743C44.7631 48.3409 44.0652 47.8802 43.4001 47.2116L44.1335 49.85C44.341 50.5966 43.9029 51.3731 43.1566 51.5809C42.7406 51.6964 42.3206 51.7542 41.9149 51.7542ZM29.4057 44.2329C29.115 44.4386 28.873 44.7052 28.6961 45.0199C28.3816 45.5797 28.304 46.2318 28.4774 46.8559L29.1128 49.1422C29.2273 49.5544 29.4672 49.8097 29.8681 49.9455C30.1906 50.0549 30.5942 50.0729 31.0084 50.0006L29.4057 44.2329ZM40.7963 44.2301C39.9917 44.8047 39.5889 45.8485 39.8689 46.856L40.5042 49.1424C40.6188 49.5545 40.8588 49.8098 41.2596 49.9457C41.5819 50.055 41.9856 50.073 42.4 50.0007L40.7963 44.2301ZM47.239 42.7155C46.4346 43.2902 46.0321 44.3338 46.312 45.3411L46.9473 47.6274C47.062 48.0398 47.3018 48.295 47.7027 48.4308C48.0252 48.5402 48.4288 48.5581 48.8432 48.4859L47.239 42.7155ZM49.9099 35.387C48.981 35.7253 48.3136 36.6229 48.3135 37.6684L48.3133 40.0414C48.3133 40.4694 48.4761 40.7797 48.8258 41.0177C49.1073 41.2096 49.4913 41.3349 49.9099 41.3762V35.387ZM36.7377 14.7274C36.9741 16.3334 37.6264 17.8719 38.6285 19.1551L44.4805 26.6497C44.5495 26.738 44.6005 26.839 44.6303 26.9469L47.0773 35.749C47.6469 34.6674 48.6812 33.8651 49.9099 33.615V22.1234C49.9099 21.1516 49.3352 20.2707 48.4456 19.8793L36.7377 14.7274ZM12.2443 40.3859C10.83 40.3859 9.67923 39.2352 9.67923 37.8209C9.67923 36.4066 10.83 35.2558 12.2443 35.2558C13.6586 35.2558 14.8093 36.4066 14.8093 37.8209C14.8093 39.2352 13.6587 40.3859 12.2443 40.3859ZM12.2443 36.9658C11.7728 36.9658 11.3893 37.3493 11.3893 37.8209C11.3893 38.2924 11.7728 38.6759 12.2443 38.6759C12.7158 38.6759 13.0993 38.2924 13.0993 37.8209C13.0993 37.3493 12.7158 36.9658 12.2443 36.9658ZM3.13506 38.6631C2.66275 38.6631 2.28004 38.2804 2.28004 37.8081V35.243H0.855015C0.382705 35.243 0 34.8603 0 34.388C0 33.9157 0.382705 33.533 0.855015 33.533H2.28004V30.968C2.28004 30.4957 2.66275 30.113 3.13506 30.113C3.60737 30.113 3.99007 30.4957 3.99007 30.968V33.533H5.4151C5.88741 33.533 6.27011 33.9157 6.27011 34.388C6.27011 34.8603 5.88741 35.243 5.4151 35.243H3.99007V37.8081C3.99007 38.2803 3.60737 38.6631 3.13506 38.6631ZM20.8169 35.6902C20.4424 35.6902 20.0987 35.4422 19.9935 35.0638L18.2052 28.6289L6.4353 23.4498C2.52594 21.7295 0 17.8582 0 13.5871C0 13.1148 0.382705 12.7321 0.855015 12.7321C1.32733 12.7321 1.71003 13.1148 1.71003 13.5871C1.71003 17.1803 3.83526 20.4373 7.12399 21.8844L19.2649 27.2269C19.4997 27.3301 19.6757 27.5333 19.7444 27.7805L21.6411 34.6059C21.7674 35.0608 21.5011 35.5322 21.0461 35.6586C20.9697 35.68 20.8926 35.6902 20.8169 35.6902ZM13.9543 23.2373C13.482 23.2373 13.0993 22.8546 13.0993 22.3822V19.8172H11.6743C11.202 19.8172 10.8193 19.4345 10.8193 18.9622C10.8193 18.4899 11.202 18.1072 11.6743 18.1072H13.0993V15.5421C13.0993 15.0698 13.482 14.6871 13.9543 14.6871C14.4266 14.6871 14.8093 15.0698 14.8093 15.5421V18.1072H16.2343C16.7067 18.1072 17.0894 18.4899 17.0894 18.9622C17.0894 19.4345 16.7067 19.8172 16.2343 19.8172H14.8093V22.3822C14.8093 22.8546 14.4266 23.2373 13.9543 23.2373ZM30.2751 11.8049C30.16 11.8049 30.0432 11.7815 29.9311 11.7323L9.75732 2.85484C8.11911 2.13412 6.38104 1.76863 4.59155 1.76863H0.855015C0.382705 1.76863 0 1.38592 0 0.913613C0 0.441302 0.382705 0.058597 0.855015 0.058597H4.59155C6.61953 0.058597 8.58926 0.472881 10.446 1.28971L30.6199 10.167C31.0522 10.3573 31.2484 10.8619 31.0583 11.2941C30.9172 11.6142 30.6037 11.8049 30.2751 11.8049ZM42.383 9.15208C40.9687 9.15208 39.818 8.00135 39.818 6.58704C39.818 5.17273 40.9687 4.02199 42.383 4.02199C43.7973 4.02199 44.948 5.17273 44.948 6.58704C44.948 8.00135 43.7974 9.15208 42.383 9.15208ZM42.383 5.73202C41.9115 5.73202 41.528 6.11553 41.528 6.58704C41.528 7.05855 41.9115 7.44205 42.383 7.44205C42.8545 7.44205 43.238 7.05855 43.238 6.58704C43.238 6.11553 42.8545 5.73202 42.383 5.73202ZM55.234 8.55015C54.7617 8.55015 54.379 8.16745 54.379 7.69514V5.13009H52.954C52.4816 5.13009 52.0989 4.74739 52.0989 4.27508C52.0989 3.80277 52.4816 3.42006 52.954 3.42006H54.379V0.855016C54.379 0.382705 54.7617 0 55.234 0C55.7063 0 56.089 0.382705 56.089 0.855016V3.42006H57.514C57.9863 3.42006 58.369 3.80277 58.369 4.27508C58.369 4.74739 57.9863 5.13009 57.514 5.13009H56.089V7.69514C56.089 8.16745 55.7063 8.55015 55.234 8.55015Z" fill="#D66E59"/>
</svg>
