<svg width="49" height="49" viewBox="0 0 49 49" fill="none" xmlns="http://www.w3.org/2000/svg">
<circle cx="24.5" cy="24.5" r="24.5" fill="#F1F1E2"/>
<path d="M30.0508 14.0752H28.0207V12.5526C28.0207 11.6104 27.6464 10.7068 26.9802 10.0405C26.3139 9.37429 25.4103 9 24.4681 9C23.5259 9 22.6223 9.37429 21.956 10.0405C21.2898 10.7068 20.9155 11.6104 20.9155 12.5526V14.0752H18.8854C18.7508 14.0752 18.6218 14.1286 18.5266 14.2238C18.4314 14.319 18.3779 14.4481 18.3779 14.5827V25.748C18.3791 26.1514 18.5399 26.538 18.8252 26.8233C19.1105 27.1086 19.497 27.2694 19.9005 27.2706H26.4982V26.2555H19.9005C19.7659 26.2555 19.6368 26.2021 19.5416 26.1069C19.4464 26.0117 19.393 25.8826 19.393 25.748V25.2405H26.4982V24.2255H19.393V15.0902H20.9155V16.6127H21.9305V15.0902H27.0057V16.6127H28.0207V15.0902H29.5433V16.6127H30.5583V14.5827C30.5583 14.4481 30.5048 14.319 30.4097 14.2238C30.3145 14.1286 30.1854 14.0752 30.0508 14.0752ZM27.0057 14.0752H21.9305V12.5526C21.9305 11.8796 22.1979 11.2342 22.6738 10.7583C23.1497 10.2824 23.7951 10.015 24.4681 10.015C25.1411 10.015 25.7866 10.2824 26.2625 10.7583C26.7383 11.2342 27.0057 11.8796 27.0057 12.5526V14.0752Z" fill="#D66E59"/>
<path d="M37.1565 17.6277H28.0212C27.8866 17.6277 27.7575 17.6812 27.6623 17.7763C27.5671 17.8715 27.5137 18.0006 27.5137 18.1352V25.7479C27.5149 26.1514 27.6757 26.5379 27.9609 26.8232C28.2462 27.1085 28.6328 27.2693 29.0362 27.2705H36.1414C36.5449 27.2693 36.9314 27.1085 37.2167 26.8232C37.502 26.5379 37.6628 26.1514 37.664 25.7479V18.1352C37.664 18.0006 37.6105 17.8715 37.5153 17.7763C37.4202 17.6812 37.2911 17.6277 37.1565 17.6277ZM36.6489 25.7479C36.6489 25.8825 36.5955 26.0116 36.5003 26.1068C36.4051 26.202 36.276 26.2554 36.1414 26.2554H29.0362C28.9016 26.2554 28.7725 26.202 28.6774 26.1068C28.5822 26.0116 28.5287 25.8825 28.5287 25.7479V25.2404H36.6489V25.7479ZM36.6489 24.2254H28.5287V18.6427H36.6489V24.2254Z" fill="#D66E59"/>
<path d="M32.5893 23.2106C33.2621 23.2098 33.9071 22.9422 34.3828 22.4664C34.8585 21.9907 35.1261 21.3457 35.1269 20.673V19.658H34.1119V20.673C34.1119 21.0768 33.9515 21.4641 33.6659 21.7496C33.3804 22.0351 32.9931 22.1955 32.5893 22.1955C32.1855 22.1955 31.7983 22.0351 31.5127 21.7496C31.2272 21.4641 31.0668 21.0768 31.0668 20.673V19.658H30.0518V20.673C30.0526 21.3457 30.3202 21.9907 30.7959 22.4664C31.2716 22.9422 31.9166 23.2098 32.5893 23.2106Z" fill="#D66E59"/>
<path d="M39.8625 30.5948C39.6362 30.1223 39.2403 29.7523 38.7535 29.5584C38.2668 29.3645 37.7249 29.3609 37.2356 29.5483L32.7035 31.1978C32.608 30.819 32.4051 30.4759 32.1194 30.2095C31.8337 29.9431 31.4772 29.7648 31.0927 29.696L24.9705 28.6165C23.6545 28.385 22.3007 28.5035 21.0449 28.9601L20.2562 29.2499C19.515 29.5212 18.8149 29.8933 18.1754 30.3558L18.0632 30.0477C18.0405 29.985 18.0057 29.9274 17.9608 29.8782C17.9158 29.829 17.8616 29.7891 17.8012 29.7608C17.7409 29.7325 17.6755 29.7164 17.6089 29.7134C17.5423 29.7104 17.4758 29.7205 17.4131 29.7432L11.6898 31.824C11.6271 31.8467 11.5695 31.8815 11.5203 31.9265C11.4711 31.9714 11.4312 32.0256 11.4029 32.086C11.3746 32.1464 11.3585 32.2117 11.3555 32.2783C11.3525 32.3449 11.3626 32.4115 11.3853 32.4742L9 33.342L9.34714 34.2956L11.7325 33.4278L13.8026 39.116L14.7562 38.7689L12.5151 32.6046L17.2857 30.8689L19.8898 38.0249L18.6717 38.4689L19.0189 39.4221L20.7129 38.8029C20.7757 38.7802 20.8334 38.7454 20.8826 38.7004C20.9319 38.6554 20.9718 38.6011 21.0001 38.5407C21.0284 38.4803 21.0445 38.4149 21.0475 38.3482C21.0504 38.2816 21.0402 38.215 21.0175 38.1523L20.8439 37.6752L22.0112 37.2499C22.745 36.9817 23.5272 36.8714 24.3067 36.9261L26.7143 37.0931C27.6354 37.1593 28.5601 37.029 29.427 36.7109L38.7044 33.3344C38.9668 33.239 39.2067 33.0905 39.4091 32.8981C39.6115 32.7058 39.772 32.4737 39.8807 32.2165C39.9893 31.9593 40.0438 31.6824 40.0405 31.4032C40.0373 31.124 39.9766 30.8485 39.862 30.5938L39.8625 30.5948ZM38.9297 31.855C38.8739 31.9761 38.7946 32.0848 38.6964 32.175C38.5982 32.2652 38.4831 32.3349 38.3577 32.3803L29.0804 35.7573C28.3466 36.0261 27.5643 36.1362 26.7849 36.0806L24.3772 35.9136C23.4564 35.8492 22.5323 35.9795 21.665 36.2958L20.4947 36.7216L18.5382 31.346C19.1627 30.8586 19.8597 30.4723 20.6038 30.201L21.3915 29.9143C22.4801 29.5183 23.6536 29.4156 24.7944 29.6164L30.914 30.6958C31.0467 30.7175 31.1737 30.7652 31.2877 30.8363C31.4018 30.9074 31.5006 31.0004 31.5784 31.11C31.6562 31.2196 31.7115 31.3435 31.741 31.4746C31.7705 31.6057 31.7737 31.7414 31.7504 31.8738C31.7271 32.0061 31.6777 32.1325 31.6051 32.2457C31.5326 32.3588 31.4383 32.4564 31.3277 32.5328C31.2171 32.6092 31.0925 32.6628 30.961 32.6907C30.8295 32.7185 30.6938 32.72 30.5618 32.6949L25.0639 31.7256L24.8873 32.7254L30.3852 33.6947C30.8724 33.781 31.3743 33.6855 31.7957 33.4264C32.2172 33.1673 32.529 32.7626 32.672 32.2889L37.5807 30.502C37.8292 30.4046 38.1049 30.4025 38.3548 30.4962C38.6047 30.5899 38.8111 30.7727 38.9343 31.0095C38.994 31.1425 39.0245 31.2869 39.0237 31.4327C39.0229 31.5786 38.9909 31.7226 38.9297 31.855Z" fill="#D66E59"/>
</svg>
