<svg width="57" height="53" viewBox="0 0 57 53" fill="none" xmlns="http://www.w3.org/2000/svg">
<path d="M47.0324 52.9383C46.8604 52.9383 46.6862 52.9231 46.5111 52.8919C45.7346 52.753 45.0589 52.3201 44.608 51.6729C44.5999 51.6614 44.5917 51.6496 44.5838 51.6379C44.5722 51.6461 44.5607 51.6543 44.549 51.6625C43.9018 52.1133 43.1179 52.2852 42.3413 52.1463C41.5249 52.0001 40.8464 51.5298 40.4153 50.8914C40.4033 50.8999 40.3913 50.9083 40.3793 50.9169C39.7322 51.3679 38.9485 51.5398 38.1716 51.4006C37.3953 51.2618 36.7194 50.8288 36.2685 50.1817C36.2602 50.1697 36.2519 50.1575 36.2436 50.1454C35.6178 50.5947 34.8181 50.8008 34.002 50.655C32.6037 50.4049 31.6104 49.2032 31.5699 47.8366L20.7919 41.5562C20.3935 41.324 20.2587 40.8128 20.4909 40.4143C20.723 40.0161 21.2342 39.8814 21.6327 40.1133L32.8574 46.6539C33.1602 46.8305 33.3207 47.1773 33.2589 47.5224C33.1344 48.2188 33.5997 48.8866 34.2959 49.0112C34.9917 49.1361 35.6601 48.6704 35.7847 47.9741C35.9647 46.9676 35.7419 45.951 35.1574 45.1119C34.8938 44.7335 34.9869 44.2132 35.3652 43.9496C35.7437 43.6861 36.264 43.7791 36.5276 44.1574C37.367 45.3625 37.6869 46.8224 37.4284 48.2682C37.4283 48.269 37.4282 48.2696 37.428 48.2704C37.3684 48.607 37.4431 48.9468 37.6386 49.2275C37.8346 49.5086 38.128 49.6968 38.4655 49.7571C38.8031 49.8171 39.1435 49.7427 39.4247 49.5469C39.7058 49.351 39.8939 49.0575 39.9543 48.7201C40.1824 47.4449 39.9872 46.1655 39.3899 45.0201C39.1767 44.6112 39.3354 44.1069 39.7443 43.8937C40.1528 43.6806 40.6574 43.8389 40.8707 44.248C41.6399 45.7231 41.8917 47.3701 41.5987 49.0113C41.5985 49.0123 41.5983 49.0132 41.5981 49.0141C41.4737 49.7104 41.9389 50.3783 42.6353 50.5029C42.9724 50.5632 43.3131 50.4886 43.5943 50.2927C43.8754 50.0968 44.0636 49.8032 44.1239 49.4657C44.3972 47.9374 44.1995 46.3875 43.5519 44.9834C43.3589 44.5646 43.5417 44.0686 43.9605 43.8755C44.3791 43.6825 44.8753 43.8653 45.0683 44.2841C45.8596 45.9999 46.1016 47.8935 45.7677 49.7598C45.7676 49.7604 45.7675 49.7612 45.7673 49.7619C45.7077 50.0985 45.7824 50.4383 45.9779 50.7191C46.1738 51.0002 46.4674 51.1883 46.8048 51.2487C47.5008 51.3734 48.169 50.908 48.2936 50.2115C48.6117 48.4324 48.4134 46.615 47.7201 44.9559C47.5422 44.5305 47.7431 44.0413 48.1686 43.8635C48.5936 43.6854 49.0831 43.8864 49.2609 44.3119C49.8349 45.6856 50.1214 47.1509 50.111 48.6277L50.9469 49.1103C51.6762 49.5313 52.5235 49.6351 53.3327 49.4027C54.1332 49.173 54.7915 48.6432 55.1886 47.9095C55.4997 47.1986 55.2726 46.2724 54.6869 45.8613L54.0144 45.473C49.016 42.587 44.6443 38.5488 41.3718 33.7948C41.1103 33.4149 41.2064 32.895 41.5861 32.6335C41.9659 32.3718 42.486 32.4681 42.7474 32.8478C45.8799 37.3987 50.0647 41.2643 54.8493 44.0268L55.5496 44.4312C55.5661 44.4406 55.5822 44.4506 55.598 44.4613C56.8852 45.3264 57.3684 47.155 56.6983 48.6246C56.6913 48.6398 56.6839 48.6547 56.676 48.6695C56.0658 49.8191 55.0421 50.6496 53.7935 51.008C52.5447 51.3667 51.2371 51.2064 50.1121 50.5567L49.9457 50.4606C49.943 50.4757 49.9404 50.4907 49.9377 50.5058C49.6823 51.9327 48.4347 52.9383 47.0324 52.9383ZM3.06163 47.9255C2.60051 47.9255 2.22667 47.5518 2.22667 47.0906V44.5857H0.835075C0.373955 44.5857 0.000115509 44.212 0.000115509 43.7507C0.000115509 43.2895 0.373955 42.9158 0.835075 42.9158H2.22667V40.4109C2.22667 39.9497 2.60051 39.5759 3.06163 39.5759C3.52275 39.5759 3.89659 39.9497 3.89659 40.4109V42.9158H5.28819C5.74931 42.9158 6.12315 43.2895 6.12315 43.7507C6.12315 44.212 5.74931 44.5857 5.28819 44.5857H3.89659V47.0906C3.89659 47.5518 3.52275 47.9255 3.06163 47.9255ZM13.4493 44.7047C12.0681 44.7047 10.9444 43.581 10.9444 42.1998C10.9444 40.8187 12.0681 39.6949 13.4493 39.6949C14.8306 39.6949 15.9542 40.8187 15.9542 42.1998C15.9542 43.581 14.8306 44.7047 13.4493 44.7047ZM13.4493 41.3649C12.9889 41.3649 12.6143 41.7394 12.6143 42.1998C12.6143 42.6603 12.9889 43.0348 13.4493 43.0348C13.9098 43.0348 14.2843 42.6603 14.2843 42.1998C14.2843 41.7394 13.9098 41.3649 13.4493 41.3649ZM18.4903 40.0838C18.3476 40.0838 18.203 40.0472 18.0707 39.9701L8.1432 34.1853C6.06949 32.977 4.60341 30.9356 4.12092 28.5844C3.63842 26.2333 4.18193 23.7794 5.61215 21.852L9.2076 17.0064L0.112 1.25253C-0.11856 0.853196 0.018262 0.342535 0.417595 0.111975C0.816928 -0.118474 1.32759 0.0181255 1.55815 0.41757L10.928 16.6463C11.0944 16.9345 11.0737 17.294 10.8754 17.5613L6.95332 22.847C5.80587 24.3936 5.36979 26.3623 5.75688 28.2488C6.14408 30.135 7.32026 31.773 8.98405 32.7424L18.9116 38.5272C19.3101 38.7595 19.4449 39.2707 19.2126 39.6691C19.0574 39.9353 18.7777 40.0838 18.4903 40.0838ZM34.1071 37.5966C33.6459 37.5966 33.2721 37.2229 33.2721 36.7617V34.2568H31.8805C31.4193 34.2568 31.0456 33.8831 31.0456 33.4218C31.0456 32.9606 31.4193 32.5869 31.8805 32.5869H33.2721V30.082C33.2721 29.6208 33.6459 29.247 34.1071 29.247C34.5683 29.247 34.942 29.6208 34.942 30.082V32.5869H36.3336C36.7949 32.5869 37.1686 32.9606 37.1686 33.4218C37.1686 33.8831 36.7949 34.2568 36.3336 34.2568H34.942V36.7617C34.942 37.2228 34.5682 37.5966 34.1071 37.5966ZM40.4439 31.5955C40.1553 31.5955 39.8748 31.4458 39.72 31.1779L22.4424 1.25253C22.2118 0.853196 22.3486 0.342535 22.748 0.111975C23.1473 -0.118474 23.6579 0.0181255 23.8885 0.41757L41.1663 30.343C41.3968 30.7423 41.26 31.2529 40.8607 31.4835C40.7292 31.5593 40.5856 31.5955 40.4439 31.5955ZM53.9385 29.7708C53.4773 29.7708 53.1035 29.3971 53.1035 28.9359V26.431H51.7119C51.2507 26.431 50.877 26.0573 50.877 25.596C50.877 25.1348 51.2507 24.7611 51.7119 24.7611H53.1035V22.2562C53.1035 21.795 53.4773 21.4212 53.9385 21.4212C54.3997 21.4212 54.7734 21.795 54.7734 22.2562V24.7611H56.165C56.6263 24.7611 57 25.1348 57 25.596C57 26.0573 56.6263 26.431 56.165 26.431H54.7734V28.9359C54.7734 29.3971 54.3997 29.7708 53.9385 29.7708ZM16.3178 25.1328C16.1751 25.1328 16.0303 25.0962 15.8982 25.0191C14.5329 24.2236 13.5675 22.8794 13.2498 21.3315C12.9321 19.7835 13.29 18.1678 14.2316 16.8988C14.5064 16.5285 15.0294 16.4511 15.3997 16.7257C15.7699 17.0005 15.8474 17.5234 15.5727 17.8937C14.9137 18.7819 14.6633 19.9125 14.8857 20.9958C15.108 22.079 15.7834 23.0196 16.7388 23.5762C17.1373 23.8085 17.2721 24.3197 17.0399 24.718C16.8849 24.9843 16.6052 25.1328 16.3178 25.1328ZM36.6805 15.1579C35.2994 15.1579 34.1757 14.0342 34.1757 12.6531C34.1757 11.2719 35.2994 10.1482 36.6805 10.1482C38.0617 10.1482 39.1854 11.2719 39.1854 12.6531C39.1854 14.0342 38.0617 15.1579 36.6805 15.1579ZM36.6805 11.8181C36.2201 11.8181 35.8456 12.1926 35.8456 12.6531C35.8456 13.1135 36.2201 13.488 36.6805 13.488C37.141 13.488 37.5155 13.1135 37.5155 12.6531C37.5155 12.1926 37.141 11.8181 36.6805 11.8181Z" fill="#D66E59"/>
</svg>
