<svg width="49" height="49" viewBox="0 0 49 49" fill="none" xmlns="http://www.w3.org/2000/svg">
<circle cx="24.5" cy="24.5" r="24.5" fill="#F1F1E2"/>
<path d="M36 16.3041C36 15.4521 35.6682 14.6511 35.0658 14.0487L34.9513 13.9342C34.3489 13.3318 33.5479 13 32.6958 13C31.8438 13 31.0429 13.3318 30.4404 13.9342L28.2228 16.1518L27.7606 15.6895C27.5093 15.4382 27.1018 15.4382 26.8504 15.6895L24.9582 17.5817C24.8375 17.7024 24.7697 17.8661 24.7697 18.0368C24.7697 18.2075 24.8375 18.3712 24.9582 18.492L25.4204 18.9542L20.3947 23.98C18.7061 23.7196 16.9197 24.2375 15.6217 25.5354C13.4594 27.6977 13.4594 31.216 15.6217 33.3783C16.7029 34.4594 18.123 35 19.5431 35C20.9633 35 22.3834 34.4595 23.4645 33.3783C24.7625 32.0803 25.2807 30.2937 25.0203 28.605L30.0458 23.5795L30.508 24.0417C30.6287 24.1624 30.7924 24.2302 30.9632 24.2302C31.1339 24.2302 31.2976 24.1624 31.4183 24.0417L33.3105 22.1496C33.5618 21.8982 33.5618 21.4907 33.3105 21.2393L32.8482 20.7771L35.0658 18.5596C35.6682 17.9571 36 17.1562 36 16.3041ZM23.2092 28.5957C23.088 28.7169 22.9269 28.7837 22.7554 28.7837C22.584 28.7837 22.4228 28.7169 22.3016 28.5957C22.1809 28.475 22.0172 28.4072 21.8465 28.4072C21.6757 28.4072 21.512 28.475 21.3913 28.5957L20.1136 29.8734C19.9818 30.0053 19.8065 30.0778 19.6201 30.0778C19.4336 30.0778 19.2584 30.0052 19.1266 29.8734C18.8545 29.6013 18.8545 29.1585 19.1266 28.8864L20.4043 27.6087C20.525 27.4879 20.5928 27.3243 20.5928 27.1536C20.5928 26.9829 20.525 26.8191 20.4043 26.6984C20.2831 26.5772 20.2163 26.416 20.2163 26.2446C20.2163 26.0732 20.2831 25.912 20.4043 25.7908L20.7319 25.4632H26.3417L23.2092 28.5957ZM22.5543 32.4681C20.8939 34.1284 18.1923 34.1284 16.5319 32.4681C14.8716 30.8077 14.8716 28.1061 16.5319 26.4457C17.2821 25.6955 18.2449 25.2854 19.2282 25.2131C18.8722 25.7755 18.835 26.483 19.117 27.0755L18.2163 27.9762C17.4423 28.7502 17.4423 30.0097 18.2163 30.7836C18.5913 31.1586 19.0898 31.3651 19.62 31.3651C20.1503 31.3651 20.6488 31.1586 21.0237 30.7836L21.9238 29.8836C22.1801 30.0062 22.4628 30.0709 22.7554 30.0709C23.1266 30.0709 23.4815 29.9662 23.7873 29.7717C23.7152 30.755 23.3046 31.7178 22.5543 32.4681ZM27.6289 24.176H22.0191L26.3307 19.8644L26.7948 20.3285L29.1356 22.6693L27.6289 24.176ZM30.9631 22.6764L26.3236 18.0369L27.3056 17.0549L31.9451 21.6944L30.9631 22.6764ZM34.1555 17.6494L31.938 19.8669L29.1331 17.062L31.3507 14.8445C31.71 14.4852 32.1877 14.2873 32.6959 14.2873C33.204 14.2873 33.6818 14.4851 34.0411 14.8444L34.1555 14.9589C34.5148 15.3183 34.7127 15.796 34.7127 16.3042C34.7127 16.8123 34.5148 17.29 34.1555 17.6494Z" fill="#D66E59"/>
</svg>
