<svg width="51" height="54" viewBox="0 0 51 54" fill="none" xmlns="http://www.w3.org/2000/svg">
<path d="M23.3665 53.9276C26.3438 53.9246 28.7562 51.5121 28.7593 48.5349V20.8662L32.4444 12.763C33.7154 9.9688 33.4793 6.72077 31.8177 4.13981C30.1562 1.55928 27.297 -0.000438772 24.2276 9.25889e-08H22.5055C19.4361 -0.000438772 16.5769 1.55928 14.9153 4.13981C13.2538 6.72077 13.0177 9.9688 14.2886 12.763L17.9738 20.8662V48.5349C17.9768 51.5121 20.3893 53.9246 23.3665 53.9276ZM26.9617 25.1662H19.7713V21.5711H26.9617V25.1662ZM23.3665 52.13C21.3811 52.13 19.7713 50.5203 19.7713 48.5349V26.9638H26.9617V28.7614H25.1641V30.559H26.9617V48.5349C26.9617 50.5203 25.3519 52.13 23.3665 52.13ZM15.2774 9.02568C15.2813 5.03553 18.5153 1.80154 22.5055 1.79759H24.2276C26.6852 1.79715 28.9743 3.04572 30.305 5.11189C31.6352 7.17806 31.8248 9.77877 30.8075 12.0161L27.2816 19.7735H19.4514L15.9256 12.0161C15.4999 11.0765 15.2787 10.057 15.2774 9.02568Z" fill="#D66E59"/>
<path d="M23.3662 30.5591H25.1638V32.3567H23.3662V30.5591Z" fill="#D66E59"/>
<path d="M4.49109 53.9275C6.47651 53.9275 8.08627 52.3177 8.08627 50.3323V13.5169L8.98506 1.86678C9.01008 1.54377 8.85955 1.23218 8.59096 1.05137C8.32238 0.870555 7.97699 0.848173 7.68734 0.992998L0.49699 4.58817C0.161698 4.75582 -0.0344747 5.11437 0.00502314 5.48697L0.895917 13.534V50.3323C0.895917 52.3177 2.50567 53.9275 4.49109 53.9275ZM6.28868 17.9757H2.69351V14.3806H6.28868V17.9757ZM4.49109 52.1299C3.49838 52.1299 2.69351 51.325 2.69351 50.3323V19.7733H6.28868V50.3323C6.28868 51.325 5.4838 52.1299 4.49109 52.1299ZM7.0681 3.31196L6.35539 12.583H2.60354L1.85835 5.91662L7.0681 3.31196Z" fill="#D66E59"/>
<path d="M50.0667 20.0366C44.7485 14.7303 36.1385 14.7303 30.8199 20.0366C30.4855 20.371 30.4675 20.9073 30.7786 21.2637L36.8481 28.2004V50.3323C36.8481 52.3177 38.4579 53.9275 40.4433 53.9275C42.4287 53.9275 44.0385 52.3177 44.0385 50.3323V28.2004L50.1079 21.2637C50.4191 20.9073 50.4011 20.371 50.0667 20.0366ZM42.2409 32.3564H38.6457V28.7612H42.2409V32.3564ZM40.4433 52.1299C39.4506 52.1299 38.6457 51.325 38.6457 50.3323V34.154H42.2409V50.3323C42.2409 51.325 41.436 52.1299 40.4433 52.1299ZM42.7315 26.9636H38.155L32.7057 20.7348C33.2323 20.2789 33.7984 19.8703 34.397 19.5144L36.1003 22.0699L37.5959 21.0719L36.0257 18.7174C37.1492 18.2632 38.3363 17.9849 39.5445 17.8923V20.6721H41.3421V17.8923C42.5503 17.9849 43.7374 18.2632 44.8609 18.7174L43.2906 21.0719L44.7863 22.0699L46.4895 19.5144C47.0886 19.8703 47.6543 20.2789 48.1809 20.7348L42.7315 26.9636Z" fill="#D66E59"/>
</svg>
