<svg width="49" height="49" viewBox="0 0 49 49" fill="none" xmlns="http://www.w3.org/2000/svg">
<circle cx="24.5" cy="24.5" r="24.5" fill="#F1F1E2"/>
<path d="M32.1438 15.6232L33.3954 13.4462C33.4526 13.3466 33.4679 13.2284 33.438 13.1176C33.4081 13.0068 33.3353 12.9124 33.2358 12.8551L31.4662 11.8386C31.3666 11.7814 31.2484 11.7661 31.1376 11.7961C31.0268 11.8261 30.9324 11.8989 30.8752 11.9984L29.6256 14.1733C28.4989 13.6873 27.3069 13.3694 26.0879 13.2297V11.9064H26.9661C27.0809 11.9064 27.1911 11.8608 27.2722 11.7796C27.3534 11.6984 27.3991 11.5883 27.3991 11.4734V9.43294C27.3991 9.37608 27.3879 9.31976 27.3662 9.26722C27.3444 9.21468 27.3125 9.16694 27.2723 9.12673C27.2321 9.08652 27.1844 9.05464 27.1318 9.03289C27.0793 9.01114 27.023 8.99997 26.9661 9H22.3032C22.2464 8.99997 22.19 9.01114 22.1375 9.03289C22.085 9.05464 22.0372 9.08652 21.997 9.12673C21.9568 9.16694 21.9249 9.21468 21.9032 9.26722C21.8814 9.31976 21.8703 9.37608 21.8703 9.43294V11.4734C21.8703 11.5883 21.9159 11.6984 21.9971 11.7796C22.0783 11.8608 22.1884 11.9064 22.3032 11.9064H23.1815V13.2285C21.9624 13.3681 20.7704 13.686 19.6437 14.172L18.3942 11.9972C18.3659 11.9479 18.3281 11.9046 18.2831 11.8699C18.2381 11.8351 18.1867 11.8096 18.1318 11.7948C18.0769 11.7799 18.0196 11.7761 17.9632 11.7834C17.9068 11.7907 17.8524 11.809 17.8031 11.8374L16.0335 12.8539C15.934 12.9111 15.8613 13.0055 15.8313 13.1164C15.8014 13.2272 15.8167 13.3454 15.8739 13.4449L17.1255 15.6232C14.9867 17.2038 13.4013 19.419 12.5949 21.9532C11.7884 24.4874 11.8023 27.2114 12.6343 29.7374C13.4664 32.2633 15.0743 34.4622 17.2289 36.021C19.3836 37.5798 21.9752 38.419 24.6347 38.419C27.2941 38.419 29.8857 37.5798 32.0404 36.021C34.1951 34.4622 35.803 32.2633 36.635 29.7374C37.4671 27.2114 37.4809 24.4874 36.6745 21.9532C35.8681 19.419 34.2826 17.2038 32.1438 15.6232ZM31.4103 12.8029L32.4288 13.3895L31.4274 15.1327C31.0975 14.9219 30.7583 14.7263 30.4098 14.5458L31.4103 12.8029ZM22.7362 9.86588H26.5332V11.0405H22.7362V9.86588ZM24.0474 11.9064H25.222V13.1575C25.0273 13.1483 24.8326 13.1421 24.6347 13.1421C24.4368 13.1421 24.2421 13.1481 24.0474 13.1572V11.9064ZM16.8405 13.3895L17.859 12.8044L18.8595 14.5458C18.5107 14.7259 18.1715 14.9215 17.842 15.1327L16.8405 13.3895ZM24.6347 37.5458C22.307 37.5458 20.0316 36.8556 18.0963 35.5624C16.1609 34.2692 14.6524 32.4312 13.7617 30.2807C12.871 28.1302 12.6379 25.7639 13.092 23.481C13.5462 21.198 14.667 19.101 16.313 17.4552C17.9589 15.8093 20.0559 14.6884 22.3388 14.2344C24.6218 13.7803 26.9881 14.0134 29.1386 14.9042C31.289 15.795 33.127 17.3034 34.4202 19.2388C35.7133 21.1742 36.4035 23.4496 36.4035 25.7773C36.3999 28.8974 35.1588 31.8888 32.9525 34.095C30.7462 36.3013 27.7548 37.5423 24.6347 37.5458Z" fill="#D66E59"/>
<path d="M33.1469 30.6479C34.0031 29.1579 34.4514 27.4685 34.4467 25.75C34.442 24.0315 33.9845 22.3446 33.1201 20.8593C33.1144 20.8445 33.1078 20.83 33.1004 20.816C33.0927 20.8044 33.0844 20.7933 33.0756 20.7826C32.2238 19.3496 31.0233 18.1554 29.5859 17.3112C29.5741 17.3014 29.5617 17.2924 29.5488 17.2842C29.5347 17.2769 29.5203 17.2705 29.5055 17.2649C28.0156 16.4086 26.3263 15.9602 24.6078 15.9649C22.8894 15.9695 21.2026 16.4271 19.7173 17.2914C19.7023 17.2973 19.6876 17.3041 19.6733 17.3116C19.6619 17.3193 19.6509 17.3276 19.6404 17.3364C18.2072 18.1882 17.0127 19.3887 16.1682 20.8261C16.1477 20.8495 16.132 20.8768 16.1222 20.9063C15.266 22.3963 14.8176 24.0856 14.8223 25.8041C14.827 27.5225 15.2846 29.2094 16.1489 30.6947C16.1547 30.7096 16.1613 30.7241 16.1687 30.7382C16.1741 30.7476 16.1823 30.7546 16.1882 30.763C17.0401 32.1994 18.2422 33.3964 19.6822 34.2423C19.6943 34.2522 19.7069 34.2613 19.72 34.2698C19.7309 34.276 19.7428 34.2784 19.7539 34.2839C21.2466 35.1436 22.9398 35.5938 24.6623 35.5889C26.3848 35.5839 28.0754 35.1241 29.5631 34.2559C29.5737 34.2507 29.5851 34.2485 29.5955 34.2423C29.6059 34.2361 29.6173 34.2262 29.6284 34.2176C31.0649 33.3639 32.2614 32.1601 33.1063 30.7184C33.113 30.7088 33.1214 30.7016 33.1273 30.6912C33.1348 30.6772 33.1413 30.6628 33.1469 30.6479ZM29.5238 33.2634L28.9674 32.3151C28.9093 32.216 28.8143 32.1441 28.7032 32.1151C28.592 32.0861 28.474 32.1024 28.3749 32.1605C28.2758 32.2186 28.2038 32.3136 28.1749 32.4247C28.1459 32.5358 28.1622 32.6539 28.2203 32.753L28.7774 33.7035C27.629 34.3071 26.3624 34.6518 25.0665 34.7134V33.6087C25.0665 33.4939 25.0209 33.3838 24.9397 33.3026C24.8585 33.2214 24.7484 33.1758 24.6335 33.1758C24.5187 33.1758 24.4086 33.2214 24.3274 33.3026C24.2462 33.3838 24.2006 33.4939 24.2006 33.6087V34.7134C22.922 34.652 21.6718 34.3149 20.5357 33.7253L21.0874 32.7721C21.1431 32.6728 21.1575 32.5556 21.1274 32.4458C21.0973 32.336 21.0252 32.2425 20.9267 32.1855C20.8282 32.1284 20.7112 32.1125 20.601 32.1411C20.4908 32.1698 20.3963 32.2406 20.338 32.3384L19.7871 33.2906C18.7345 32.6089 17.8357 31.715 17.1481 30.6662L18.0974 30.1101C18.1959 30.0518 18.2673 29.9568 18.296 29.846C18.3247 29.7352 18.3083 29.6175 18.2505 29.5187C18.1926 29.4199 18.098 29.348 17.9873 29.3189C17.8765 29.2897 17.7588 29.3055 17.6597 29.363L16.7093 29.9201C16.1056 28.7717 15.7608 27.5051 15.6991 26.2092H16.8038C16.9186 26.2092 17.0287 26.1636 17.1099 26.0824C17.1911 26.0012 17.2367 25.8911 17.2367 25.7762C17.2367 25.6614 17.1911 25.5513 17.1099 25.4701C17.0287 25.3889 16.9186 25.3433 16.8038 25.3433H15.6991C15.7602 24.0645 16.097 22.8139 16.6865 21.6774L17.6399 22.2289C17.7391 22.2834 17.8558 22.297 17.9648 22.2666C18.0739 22.2362 18.1667 22.1643 18.2234 22.0663C18.2801 21.9683 18.2961 21.852 18.2681 21.7423C18.24 21.6326 18.1701 21.5383 18.0734 21.4795L17.1214 20.9286C17.8031 19.8763 18.6967 18.9779 19.7453 18.2906L20.3017 19.2398C20.36 19.3384 20.4549 19.4098 20.5658 19.4385C20.6766 19.4672 20.7943 19.4508 20.8931 19.3929C20.9919 19.3351 21.0637 19.2404 21.0929 19.1297C21.1221 19.019 21.1062 18.9012 21.0488 18.8022L20.4917 17.8517C21.64 17.248 22.9067 16.9033 24.2026 16.8418V17.9462C24.2026 18.061 24.2482 18.1712 24.3294 18.2523C24.4106 18.3335 24.5207 18.3792 24.6355 18.3792C24.7503 18.3792 24.8605 18.3335 24.9416 18.2523C25.0228 18.1712 25.0685 18.061 25.0685 17.9462V16.8418C26.3473 16.9028 27.5978 17.2395 28.7343 17.8289L28.1817 18.7827C28.1523 18.8319 28.133 18.8865 28.1249 18.9432C28.1168 19 28.12 19.0578 28.1344 19.1133C28.1488 19.1688 28.1741 19.2209 28.2088 19.2665C28.2436 19.3122 28.287 19.3505 28.3366 19.3792C28.3862 19.4079 28.4411 19.4265 28.4979 19.4338C28.5548 19.4412 28.6126 19.4372 28.6679 19.422C28.7232 19.4069 28.7749 19.3809 28.8201 19.3456C28.8652 19.3103 28.903 19.2663 28.931 19.2163L29.482 18.2631C30.5346 18.945 31.4334 19.839 32.1209 20.888L31.1717 21.4441C31.1223 21.4727 31.0792 21.5108 31.0446 21.5561C31.01 21.6015 30.9847 21.6532 30.9702 21.7083C30.9557 21.7634 30.9522 21.8209 30.9599 21.8774C30.9676 21.9339 30.9865 21.9883 31.0153 22.0375C31.0441 22.0867 31.0823 22.1297 31.1278 22.1641C31.1733 22.1984 31.2251 22.2235 31.2803 22.2378C31.3355 22.2521 31.393 22.2553 31.4495 22.2473C31.5059 22.2393 31.5602 22.2203 31.6093 22.1913L32.56 21.6341C33.1635 22.7825 33.5082 24.0492 33.5699 25.345H32.4653C32.3505 25.345 32.2403 25.3906 32.1592 25.4718C32.078 25.553 32.0324 25.6631 32.0324 25.778C32.0324 25.8928 32.078 26.0029 32.1592 26.0841C32.2403 26.1653 32.3505 26.2109 32.4653 26.2109H33.5699C33.5087 27.4894 33.1719 28.7396 32.5826 29.8758L31.6293 29.3241C31.5299 29.2666 31.4118 29.2509 31.3008 29.2806C31.1899 29.3102 31.0952 29.3827 31.0377 29.4821C30.9802 29.5815 30.9645 29.6997 30.9942 29.8106C31.0238 29.9216 31.0963 30.0162 31.1957 30.0737L32.1476 30.6247C31.4661 31.6772 30.5724 32.5759 29.5238 33.2634Z" fill="#D66E59"/>
<path d="M31.1648 25.7773C31.1648 25.6625 31.1192 25.5523 31.038 25.4711C30.9568 25.39 30.8467 25.3443 30.7318 25.3443H26.5632C26.4806 24.9793 26.2963 24.6452 26.0317 24.3806C25.7671 24.1159 25.433 23.9316 25.068 23.8488V19.6805C25.068 19.5657 25.0224 19.4556 24.9412 19.3744C24.86 19.2932 24.7499 19.2476 24.6351 19.2476C24.5202 19.2476 24.4101 19.2932 24.3289 19.3744C24.2477 19.4556 24.2021 19.5657 24.2021 19.6805V23.8488C23.8567 23.9262 23.5384 24.0949 23.2804 24.3373C23.0225 24.5796 22.8343 24.8868 22.7356 25.2268C22.6369 25.5667 22.6313 25.9269 22.7194 26.2697C22.8074 26.6126 22.9859 26.9255 23.2362 27.1758C23.4865 27.4261 23.7994 27.6046 24.1422 27.6927C24.485 27.7808 24.8452 27.7752 25.1852 27.6766C25.5251 27.5779 25.8323 27.3898 26.0747 27.1319C26.3171 26.8739 26.4859 26.5556 26.5632 26.2102H30.7318C30.8466 26.2102 30.9567 26.1645 31.0379 26.0833C31.1191 26.0022 31.1647 25.8921 31.1648 25.7773ZM24.6351 26.8888C24.4151 26.8889 24.2002 26.8237 24.0173 26.7016C23.8344 26.5794 23.6919 26.4058 23.6077 26.2026C23.5235 25.9994 23.5015 25.7759 23.5444 25.5602C23.5873 25.3445 23.6932 25.1464 23.8487 24.9909C24.0042 24.8354 24.2023 24.7295 24.418 24.6866C24.6337 24.6437 24.8572 24.6657 25.0604 24.7499C25.2636 24.8341 25.4372 24.9766 25.5593 25.1595C25.6815 25.3424 25.7466 25.5574 25.7466 25.7773C25.7461 26.0719 25.6289 26.3544 25.4205 26.5628C25.2122 26.7711 24.9297 26.8884 24.6351 26.8888Z" fill="#D66E59"/>
</svg>
