<svg width="50" height="62" viewBox="0 0 50 62" fill="none" xmlns="http://www.w3.org/2000/svg">
<path d="M3.15866 61.3423C3.99576 61.3438 4.79928 61.0114 5.39093 60.4188L14.5808 51.228H16.7755C19.231 54.7971 22.3947 57.8225 26.0695 60.1165C28.6855 61.7507 32.0043 61.7507 34.6203 60.1165C43.942 54.3314 49.5977 44.1267 49.5622 33.1555V25.9421C49.5538 19.2631 46.076 13.068 40.3783 9.58333C39.7812 4.49405 35.4688 0.657715 30.3449 0.657715C25.2206 0.657715 20.9081 4.49405 20.3116 9.58333C14.6138 13.068 11.1361 19.2631 11.1277 25.9421V33.1555C11.1311 35.3147 11.3543 37.4684 11.7939 39.5821C10.7103 40.8563 10.1157 42.4752 10.1162 44.1479V46.7634L0.926392 55.9533C0.0221267 56.8555 -0.248511 58.2142 0.240415 59.394C0.729341 60.5743 1.88103 61.3433 3.15866 61.3423ZM11.1277 51.8206L9.52359 50.2165L11.1277 48.6124L12.7317 50.2165L11.1277 51.8206ZM12.1391 44.1479C12.1391 41.3551 14.403 39.0907 17.1963 39.0907C19.9891 39.0907 22.2534 41.3551 22.2534 44.1479C22.2534 46.9407 19.9891 49.2051 17.1963 49.2051H14.5808L12.1391 46.7634V44.1479ZM33.5471 58.4008C31.5815 59.6029 29.1083 59.6029 27.1427 58.4008C24.0101 56.4496 21.2711 53.9289 19.0675 50.9692C21.728 50.2402 23.7222 48.0317 24.1761 45.3105C24.6304 42.5898 23.4614 39.8533 21.1813 38.3001C18.9016 36.7469 15.927 36.6609 13.5609 38.0793C13.2883 36.452 13.151 34.8055 13.1505 33.1555V29.3952L21.2519 21.2933C27.8371 27.5481 36.579 31.0245 45.6611 30.9993H47.5393V33.1555C47.5719 43.4284 42.2757 52.9841 33.5471 58.4008ZM30.3449 2.6791C33.8785 2.6875 36.9992 4.98347 38.0591 8.3541C33.1456 6.18159 27.5442 6.18159 22.6307 8.3541C23.6906 4.98347 26.8113 2.6875 30.3449 2.6791ZM30.3449 8.74771C39.8365 8.75808 47.5284 16.45 47.5393 25.9421V28.9764H45.6611C36.7656 29.0006 28.2302 25.4655 21.9571 19.1584C21.562 18.7633 20.922 18.7633 20.5269 19.1584L13.1505 26.5347V25.9421C13.1609 16.45 20.8528 8.75808 30.3449 8.74771ZM2.35662 57.3835L8.09335 51.6468L9.69742 53.2508L3.9607 58.9876C3.5177 59.4305 2.79962 59.4305 2.35662 58.9876C1.91363 58.5446 1.91363 57.8265 2.35662 57.3835Z" fill="#D66E59"/>
<path d="M37.4244 35.0448C35.7487 35.0448 34.3901 33.6862 34.3901 32.0105H32.3672C32.3672 34.8033 34.6311 37.0677 37.4244 37.0677C40.2172 37.0677 42.4815 34.8033 42.4815 32.0105H40.4587C40.4587 33.6862 39.1001 35.0448 37.4244 35.0448Z" fill="#D66E59"/>
<path d="M23.2652 35.0448C21.5895 35.0448 20.2309 33.6862 20.2309 32.0105H18.208C18.208 34.8033 20.4719 37.0677 23.2652 37.0677C26.058 37.0677 28.3223 34.8033 28.3223 32.0105H26.2995C26.2995 33.6862 24.9409 35.0448 23.2652 35.0448Z" fill="#D66E59"/>
</svg>
