<svg width="49" height="49" viewBox="0 0 49 49" fill="none" xmlns="http://www.w3.org/2000/svg">
<circle cx="24.5" cy="24.5" r="24.5" fill="#F1F1E2"/>
<path d="M35.1971 12.6445H13.6536C12.6594 12.6445 11.8506 13.4551 11.8506 14.4514V33.501C11.8506 34.3254 12.5187 34.996 13.3398 34.996H35.5109C36.332 34.996 37 34.3254 37 33.501V14.4514C37.0001 13.4551 36.1913 12.6445 35.1971 12.6445ZM12.833 14.4514C12.833 13.9968 13.2011 13.627 13.6536 13.627H35.1971C35.6496 13.627 36.0177 13.9968 36.0177 14.4514V17.3707H12.833V14.4514ZM36.0177 33.501C36.0177 33.7837 35.7904 34.0136 35.5109 34.0136H13.3398C13.0603 34.0136 12.833 33.7837 12.833 33.501V18.353H36.0177V33.501Z" fill="#D66E59"/>
<path d="M28.0095 15.0078H27.3496C27.0784 15.0078 26.8584 15.2278 26.8584 15.499C26.8584 15.7703 27.0784 15.9902 27.3496 15.9902H28.0095C28.2807 15.9902 28.5007 15.7703 28.5007 15.499C28.5007 15.2277 28.2807 15.0078 28.0095 15.0078Z" fill="#D66E59"/>
<path d="M31.0622 15.0078H30.4023C30.1311 15.0078 29.9111 15.2278 29.9111 15.499C29.9111 15.7703 30.1311 15.9902 30.4023 15.9902H31.0622C31.3335 15.9902 31.5534 15.7703 31.5534 15.499C31.5534 15.2277 31.3335 15.0078 31.0622 15.0078Z" fill="#D66E59"/>
<path d="M34.1139 15.0078H33.4541C33.1829 15.0078 32.9629 15.2278 32.9629 15.499C32.9629 15.7703 33.1829 15.9902 33.4541 15.9902H34.1139C34.3852 15.9902 34.6051 15.7703 34.6051 15.499C34.6051 15.2277 34.3852 15.0078 34.1139 15.0078Z" fill="#D66E59"/>
<path d="M20.1137 15.0078H15.3516C15.0803 15.0078 14.8604 15.2278 14.8604 15.499C14.8604 15.7703 15.0803 15.9902 15.3516 15.9902H20.1137C20.3849 15.9902 20.6049 15.7703 20.6049 15.499C20.6049 15.2277 20.3849 15.0078 20.1137 15.0078Z" fill="#D66E59"/>
<path d="M24.4256 33.0259C28.1738 33.0259 31.2232 29.9765 31.2232 26.2282C31.2232 22.48 28.1738 19.4307 24.4256 19.4307C20.6773 19.4307 17.6279 22.48 17.6279 26.2283C17.6279 29.9766 20.6773 33.0259 24.4256 33.0259ZM24.4256 20.4131C27.6321 20.4131 30.2408 23.0217 30.2408 26.2283C30.2408 29.4349 27.6321 32.0435 24.4256 32.0435C21.2191 32.0435 18.6103 29.4348 18.6103 26.2282C18.6103 23.0217 21.2191 20.4131 24.4256 20.4131Z" fill="#D66E59"/>
<path d="M21.793 30.3031H27.0582C27.3295 30.3031 27.5494 30.0832 27.5494 29.8119V28.1284C27.5494 27.2996 27.0811 26.5644 26.3899 26.1883C26.7439 25.7529 26.9563 25.198 26.9563 24.5944C26.9563 23.199 25.8211 22.0637 24.4256 22.0637C23.0301 22.0637 21.8949 23.199 21.8949 24.5944C21.8949 25.1979 22.1072 25.7526 22.461 26.188C21.7696 26.5636 21.3018 27.298 21.3018 28.1284V29.812C21.3018 30.0832 21.5218 30.3031 21.793 30.3031ZM24.4256 23.0461C25.2794 23.0461 25.9739 23.7406 25.9739 24.5944C25.9739 25.4481 25.2794 26.1427 24.4256 26.1427C23.5719 26.1427 22.8774 25.4481 22.8774 24.5944C22.8774 23.7406 23.5719 23.0461 24.4256 23.0461ZM22.2842 28.1283C22.2842 27.4948 22.7748 26.9621 23.4036 26.9094C23.7163 27.048 24.0622 27.125 24.4256 27.125C24.7891 27.125 25.135 27.048 25.4477 26.9094C26.076 26.962 26.5671 27.496 26.5671 28.1283V29.3207H22.2843V28.1283H22.2842Z" fill="#D66E59"/>
</svg>
