<svg width="63" height="55" viewBox="0 0 63 55" fill="none" xmlns="http://www.w3.org/2000/svg">
<path d="M62.4377 11.7536C62.7122 11.3368 62.6558 10.7851 62.3032 10.432L58.5552 6.68302C53.2738 1.40258 45.7424 -0.959736 38.3906 0.358706L3.50607 6.62092C1.79605 6.92782 0.444248 8.24267 0.0896191 9.94345C-0.264497 11.6442 0.449894 13.3897 1.8951 14.354L2.03982 14.4505C2.9985 15.0863 4.17325 15.3096 5.29821 15.0694L38.1448 7.96759C43.4596 6.8185 48.9961 7.28347 54.0451 9.30245L61.167 12.1518C61.6314 12.3386 62.1631 12.1718 62.4377 11.7536ZM54.8334 7.35071C49.3939 5.17366 43.4278 4.67277 37.7014 5.91269L4.85787 13.0145C4.28718 13.1377 3.69134 13.0238 3.20635 12.6994L3.06266 12.6029C2.33082 12.1149 1.96849 11.2316 2.1476 10.3704C2.32671 9.50928 3.01133 8.84364 3.87712 8.68865L38.7627 2.42849C45.4365 1.23117 52.274 3.37537 57.069 8.16928L57.1973 8.29861L54.8334 7.35071Z" fill="#D66E59"/>
<path d="M49.9982 54.2686H56.3046C56.885 54.2686 57.3556 53.798 57.3556 53.2175V14.3284C57.3561 13.9301 57.1308 13.5658 56.7747 13.3877L50.4683 10.2345C50.1424 10.0718 49.7555 10.0893 49.4455 10.2812C49.1355 10.4726 48.9472 10.8108 48.9472 11.1752V23.3994L45.6554 27.2408C43.9254 29.2618 41.8074 30.9154 39.4271 32.103L39.248 32.1923C36.4761 33.5728 33.4215 34.2923 30.3248 34.2944H27.1305C20.8493 34.2934 14.9351 31.3362 11.166 26.3119L10.6888 25.6801C9.29539 23.8321 7.11732 22.743 4.80273 22.7369V24.839C6.4563 24.8431 8.01185 25.6211 9.00697 26.9411L9.48425 27.5718C9.61358 27.7453 9.75677 27.9049 9.89123 28.0732L9.55354 28.7481C8.73137 30.4058 7.27898 31.6652 5.52174 32.2451L6.18584 34.242C8.43987 33.4974 10.3085 31.8936 11.3867 29.7792C12.2576 30.6752 13.2035 31.4953 14.214 32.2303C13.5489 34.6844 12.2541 36.9225 10.4578 38.7224L10.368 38.8107L11.8502 40.301L11.9415 40.2107C13.8414 38.3087 15.2538 35.9762 16.0585 33.4117C17.1501 34.0419 18.293 34.5777 19.4755 35.0134C19.381 37.3696 18.7924 39.6795 17.7475 41.794L17.5258 42.2374L19.4072 43.1771L19.6279 42.7336C20.7251 40.5289 21.3826 38.1317 21.5632 35.6754C23.2537 36.1173 24.9904 36.3554 26.7374 36.3852L25.8326 43.6277L27.9178 43.8884L28.8544 36.4006H30.3258C30.9658 36.4006 31.6057 36.3631 32.2426 36.3072L33.189 43.8884L35.2742 43.6277L34.3283 36.0275C35.4897 35.813 36.6326 35.5066 37.7463 35.1109C38.2662 37.657 39.2752 40.0778 40.7173 42.2394L42.4663 41.0729C41.153 39.1063 40.239 36.9005 39.7771 34.5813L39.7191 34.2913C39.8756 34.2179 40.0342 34.1497 40.1907 34.0727L40.3699 33.9834C41.2659 33.5251 42.1302 33.0062 42.9564 32.4309C43.678 34.8435 45.2187 36.9282 47.3131 38.3262L48.4796 36.5772C46.667 35.3706 45.3701 33.5302 44.844 31.4168L44.7537 31.0581C45.6498 30.3088 46.4853 29.4897 47.252 28.608L48.9472 26.626V53.2175C48.9472 53.798 49.4178 54.2686 49.9982 54.2686ZM51.0493 52.1665V22.7369H55.2535V52.1665H51.0493ZM51.0493 18.5326H55.2535V20.6347H51.0493V18.5326ZM55.2535 14.9781V16.4305H51.0493V12.876L55.2535 14.9781Z" fill="#D66E59"/>
</svg>
