<svg width="49" height="49" viewBox="0 0 49 49" fill="none" xmlns="http://www.w3.org/2000/svg">
<circle cx="24.5" cy="24.5" r="24.5" fill="#F1F1E2"/>
<path d="M32.7188 11.4062H17.2812C16.8504 11.4067 16.4374 11.5781 16.1327 11.8827C15.8281 12.1874 15.6567 12.6004 15.6562 13.0312V33.3438C15.6567 33.7039 15.7766 34.0538 15.9971 34.3386C16.2176 34.6233 16.5264 34.8269 16.875 34.9175V36.1875C16.875 36.2952 16.9178 36.3986 16.994 36.4748C17.0702 36.5509 17.1735 36.5938 17.2812 36.5938H18.5C18.5906 36.5937 18.6786 36.5634 18.75 36.5077C18.8214 36.4519 18.8721 36.3739 18.8941 36.286L19.2236 34.9688H30.7764L31.1059 36.286C31.1279 36.3739 31.1786 36.4519 31.25 36.5077C31.3214 36.5634 31.4094 36.5937 31.5 36.5938H32.7188C32.8265 36.5938 32.9298 36.5509 33.006 36.4748C33.0822 36.3986 33.125 36.2952 33.125 36.1875V34.9175C33.4736 34.8269 33.7824 34.6233 34.0029 34.3386C34.2234 34.0538 34.3433 33.7039 34.3438 33.3438V13.0312C34.3433 12.6004 34.1719 12.1874 33.8673 11.8827C33.5626 11.5781 33.1496 11.4067 32.7188 11.4062ZM18.1826 35.7812H17.6875V34.9688H18.3857L18.1826 35.7812ZM32.3125 35.7812H31.8174L31.6143 34.9688H32.3125V35.7812ZM33.5312 33.3438C33.531 33.5592 33.4453 33.7657 33.293 33.918C33.1407 34.0703 32.9342 34.156 32.7188 34.1562H17.2812C17.0658 34.156 16.8593 34.0703 16.707 33.918C16.5547 33.7657 16.469 33.5592 16.4688 33.3438V13.0312C16.469 12.8158 16.5547 12.6093 16.707 12.457C16.8593 12.3047 17.0658 12.219 17.2812 12.2188H32.7188C32.9342 12.219 33.1407 12.3047 33.293 12.457C33.4453 12.6093 33.531 12.8158 33.5312 13.0312V33.3438Z" fill="#D66E59"/>
<path d="M32.3125 13.0312H17.6875C17.5798 13.0312 17.4764 13.0741 17.4002 13.1502C17.3241 13.2264 17.2812 13.3298 17.2812 13.4375V32.9375C17.2812 33.0452 17.3241 33.1486 17.4002 33.2248C17.4764 33.3009 17.5798 33.3438 17.6875 33.3438H32.3125C32.4202 33.3438 32.5236 33.3009 32.5998 33.2248C32.6759 33.1486 32.7188 33.0452 32.7188 32.9375V13.4375C32.7188 13.3298 32.6759 13.2264 32.5998 13.1502C32.5236 13.0741 32.4202 13.0312 32.3125 13.0312ZM24.5938 32.5312H18.0938V13.8438H24.5938V32.5312ZM31.9062 32.5312H25.4062V13.8438H31.9062V32.5312Z" fill="#D66E59"/>
<path d="M22.9687 21.9688C22.7277 21.9688 22.4921 22.0402 22.2916 22.1741C22.0912 22.3081 21.935 22.4984 21.8428 22.7211C21.7505 22.9438 21.7264 23.1889 21.7734 23.4253C21.8204 23.6617 21.9365 23.8788 22.107 24.0493C22.2774 24.2197 22.4946 24.3358 22.731 24.3828C22.9674 24.4299 23.2124 24.4057 23.4351 24.3135C23.6578 24.2212 23.8482 24.065 23.9821 23.8646C24.116 23.6642 24.1875 23.4285 24.1875 23.1875C24.1871 22.8644 24.0586 22.5546 23.8301 22.3261C23.6017 22.0976 23.2919 21.9691 22.9687 21.9688ZM22.9687 23.5938C22.8884 23.5938 22.8099 23.5699 22.743 23.5253C22.6762 23.4806 22.6242 23.4172 22.5934 23.343C22.5627 23.2687 22.5546 23.1871 22.5703 23.1082C22.586 23.0294 22.6247 22.9571 22.6815 22.9002C22.7383 22.8434 22.8107 22.8047 22.8895 22.7891C22.9683 22.7734 23.05 22.7814 23.1242 22.8122C23.1984 22.8429 23.2619 22.895 23.3065 22.9618C23.3512 23.0286 23.375 23.1072 23.375 23.1875C23.3749 23.2952 23.332 23.3985 23.2559 23.4746C23.1797 23.5508 23.0765 23.5936 22.9687 23.5938Z" fill="#D66E59"/>
<path d="M27.0313 24.4063C27.2723 24.4063 27.5079 24.3348 27.7084 24.2009C27.9088 24.0669 28.065 23.8766 28.1572 23.6539C28.2495 23.4312 28.2736 23.1862 28.2266 22.9497C28.1796 22.7133 28.0635 22.4962 27.893 22.3257C27.7226 22.1553 27.5054 22.0392 27.269 21.9922C27.0326 21.9451 26.7876 21.9693 26.5649 22.0615C26.3422 22.1538 26.1518 22.31 26.0179 22.5104C25.884 22.7108 25.8125 22.9465 25.8125 23.1875C25.8129 23.5106 25.9414 23.8204 26.1699 24.0489C26.3983 24.2774 26.7081 24.4059 27.0313 24.4063ZM27.0313 22.7813C27.1116 22.7813 27.1901 22.8051 27.257 22.8497C27.3238 22.8944 27.3758 22.9578 27.4066 23.032C27.4373 23.1063 27.4454 23.188 27.4297 23.2668C27.414 23.3456 27.3753 23.418 27.3185 23.4748C27.2617 23.5316 27.1893 23.5703 27.1105 23.5859C27.0317 23.6016 26.95 23.5936 26.8758 23.5628C26.8016 23.5321 26.7381 23.48 26.6935 23.4132C26.6488 23.3464 26.625 23.2679 26.625 23.1875C26.6251 23.0798 26.668 22.9765 26.7441 22.9004C26.8203 22.8242 26.9235 22.7814 27.0313 22.7813Z" fill="#D66E59"/>
</svg>
