<svg width="49" height="49" viewBox="0 0 49 49" fill="none" xmlns="http://www.w3.org/2000/svg">
<circle cx="24.5" cy="24.5" r="24.5" fill="#F1F1E2"/>
<path d="M24.5 11C18.7103 11 14 15.7103 14 21.5C14 23.6338 14.6366 25.688 15.8412 27.4404C16.9529 29.0577 18.4756 30.3202 20.2599 31.1079L23.6781 37.1498C23.8457 37.446 24.1597 37.6291 24.4999 37.6291C24.8402 37.6291 25.1542 37.446 25.3217 37.1498L28.74 31.1079C30.5242 30.3202 32.0469 29.0577 33.1586 27.4404C34.3634 25.6881 35 23.6338 35 21.5C35 15.7103 30.2897 11 24.5 11ZM27.7228 29.4877C27.5248 29.5678 27.3597 29.7125 27.2546 29.8983L24.5 34.7672L21.7454 29.8983C21.6402 29.7125 21.4752 29.5678 21.2772 29.4877C18.0037 28.1655 15.8885 25.0301 15.8885 21.5C15.8885 16.7516 19.7516 12.8885 24.5 12.8885C29.2484 12.8885 33.1115 16.7516 33.1115 21.5C33.1115 25.0301 30.9963 28.1655 27.7228 29.4877Z" fill="#D66E59"/>
<path d="M24.5 17.478C22.3132 17.478 20.5342 19.2571 20.5342 21.4439C20.5342 23.6306 22.3132 25.4097 24.5 25.4097C26.6868 25.4097 28.4658 23.6306 28.4658 21.4439C28.4658 19.2571 26.6868 17.478 24.5 17.478ZM24.5 23.5212C23.3545 23.5212 22.4227 22.5893 22.4227 21.4439C22.4227 20.2984 23.3545 19.3665 24.5 19.3665C25.6455 19.3665 26.5773 20.2984 26.5773 21.4439C26.5773 22.5893 25.6455 23.5212 24.5 23.5212Z" fill="#D66E59"/>
</svg>
