<svg width="49" height="49" viewBox="0 0 49 49" fill="none" xmlns="http://www.w3.org/2000/svg">
<circle cx="24.5" cy="24.5" r="24.5" fill="#F1F1E2"/>
<path d="M24.4376 35.5335C25.3265 35.5335 26.0471 34.8129 26.0471 33.924C26.0471 33.0351 25.3265 32.3145 24.4376 32.3145C23.5487 32.3145 22.8281 33.0351 22.8281 33.924C22.8281 34.8129 23.5487 35.5335 24.4376 35.5335Z" fill="#D66E59"/>
<path d="M36.71 20.334C33.5041 16.8944 29.163 15 24.4857 15C19.8089 15 15.4678 16.8944 12.2618 20.334C11.8946 20.7281 11.9163 21.3454 12.3104 21.7127C12.7045 22.0799 13.3217 22.0583 13.689 21.6642C16.5218 18.6248 20.3561 16.951 24.4861 16.9509C28.6157 16.951 32.45 18.6248 35.2828 21.6642C35.4749 21.8703 35.7354 21.9745 35.9966 21.9745C36.2347 21.9745 36.4735 21.8878 36.6615 21.7127C37.0555 21.3453 37.0773 20.7281 36.71 20.334Z" fill="#D66E59"/>
<path d="M33.1284 24.3626C30.7587 21.9749 27.6894 20.6601 24.486 20.6602C21.2819 20.6602 18.2126 21.9751 15.8436 24.3627C15.4641 24.7451 15.4665 25.3627 15.8489 25.7422C16.2314 26.1216 16.849 26.1192 17.2284 25.7368C19.2284 23.7212 21.8058 22.6111 24.486 22.6111C27.1655 22.611 29.743 23.7211 31.7436 25.7369C31.9344 25.929 32.1851 26.0252 32.436 26.0252C32.6844 26.0252 32.9329 25.9309 33.1232 25.7421C33.5056 25.3626 33.5079 24.7449 33.1284 24.3626Z" fill="#D66E59"/>
<path d="M29.225 28.4026C27.9559 27.1453 26.1368 26.3643 24.4774 26.3643C24.4773 26.3643 24.4769 26.3643 24.4767 26.3643H24.4064C24.4061 26.3643 24.406 26.3643 24.4057 26.3643C22.7463 26.3643 20.9271 27.1453 19.658 28.4026C19.2754 28.7817 19.2725 29.3994 19.6516 29.7821C19.8424 29.9746 20.0935 30.071 20.3446 30.071C20.5927 30.071 20.8409 29.9769 21.0311 29.7885C21.9345 28.8934 23.259 28.3152 24.4058 28.3152C24.4059 28.3152 24.4061 28.3152 24.4063 28.3152H24.4769C24.4771 28.3152 24.4771 28.3152 24.4773 28.3152C25.6239 28.3152 26.9485 28.8935 27.8519 29.7885C28.2345 30.1676 28.8522 30.1649 29.2314 29.7821C29.6106 29.3994 29.6077 28.7817 29.225 28.4026Z" fill="#D66E59"/>
</svg>
