<svg width="49" height="49" viewBox="0 0 49 49" fill="none" xmlns="http://www.w3.org/2000/svg">
<circle cx="24.36" cy="24.36" r="24.36" fill="#CEC595"/>
<circle cx="24.3594" cy="24.36" r="20.5" stroke="white"/>
<path d="M31.1103 18.1739L29.9492 21.6583H32.2714L31.1103 18.1739Z" fill="white"/>
<path d="M24.4418 29.6603C22.1437 29.6629 20.103 28.1916 19.3791 26.0105C18.6554 23.8294 19.4117 21.4299 21.2552 20.058C16.9113 20.9189 13.7792 24.727 13.7725 29.1554V30.5494H25.836C26.8753 30.5481 27.9068 30.3712 28.8873 30.0262V27.2699C27.9003 28.762 26.2309 29.6598 24.4418 29.6603Z" fill="white"/>
<path d="M24.4416 19.8801C21.9864 19.8801 19.9961 21.8706 19.9961 24.3256C19.9961 26.7809 21.9864 28.7712 24.4416 28.7712C26.8969 28.7712 28.8872 26.7809 28.8872 24.3256C28.8846 21.8717 26.8958 19.8829 24.4416 19.8801ZM24.4416 25.6593C23.7051 25.6593 23.108 25.0623 23.108 24.3256C23.108 23.5891 23.7051 22.992 24.4416 22.992C25.1782 22.992 25.7753 23.5891 25.7753 24.3256C25.7753 25.0623 25.1782 25.6593 24.4416 25.6593Z" fill="white"/>
<path d="M29.0263 21.614L29.6044 19.8801H27.3838C28.0545 20.3274 28.6161 20.92 29.0263 21.614Z" fill="white"/>
<path d="M32.6152 19.8801L33.3092 21.9624C33.3224 22.0041 33.3294 22.0473 33.33 22.0909C33.33 22.0955 33.3322 22.0989 33.3322 22.1028V26.721C34.4881 25.1401 35.1109 23.2325 35.1104 21.2743V19.8801H32.6152Z" fill="white"/>
<path d="M29.7764 22.5474H32.4437V35.884H29.7764V22.5474Z" fill="white"/>
<path d="M11.5223 27.5897L10.6875 27.2856L11.8061 24.2088C12.2586 22.9624 12.9122 21.7985 13.7412 20.7635L13.8065 20.6817C15.7875 18.2045 18.6574 16.5984 21.8049 16.2056C23.5473 15.9876 25.3046 15.9132 27.0592 15.9833L35.379 16.3158L36.5748 15.12L37.2034 15.7484L35.8698 17.0821C35.7819 17.1698 35.6616 17.2171 35.5377 17.2127L27.0236 16.8724C25.3177 16.8044 23.6091 16.8765 21.9151 17.0879C18.9979 17.4526 16.338 18.941 14.5014 21.237L14.4356 21.3184C13.6674 22.2782 13.0614 23.3571 12.6413 24.5125L11.5223 27.5897Z" fill="white"/>
</svg>
