<svg width="49" height="49" viewBox="0 0 49 49" fill="none" xmlns="http://www.w3.org/2000/svg">
<circle cx="24.36" cy="24.36" r="24.36" fill="#CEC595"/>
<circle cx="24.3604" cy="24.36" r="20.5" stroke="white"/>
<path d="M30.8052 13.4401C30.1282 13.4401 29.5771 13.9922 29.5771 14.6712V19.5919C29.5771 20.2708 30.1282 20.8229 30.8052 20.8229C30.9128 20.8229 31.3879 20.7195 32.0381 20.5706V13.7134L30.8052 13.4401Z" fill="white"/>
<path d="M22.1533 22.0944H20.9229C19.9035 22.0944 19.0771 22.9207 19.0771 23.9401V25.7858C19.0771 27.1449 20.179 28.2467 21.5381 28.2467C22.8972 28.2467 23.999 27.1449 23.999 25.7858V23.9401C23.999 22.9207 23.1727 22.0944 22.1533 22.0944Z" fill="white"/>
<path d="M25.2295 24.7512V25.7858C25.2295 27.8213 23.5737 29.4772 21.5381 29.4772C19.5025 29.4772 17.8467 27.8213 17.8467 25.7858V24.7512C16.6931 25.7905 15.96 27.279 15.96 28.8619V33.8249C15.96 34.1649 16.2351 34.4401 16.5752 34.4401H26.46C26.8001 34.4401 27.0752 34.1649 27.0752 33.8249V28.8619C27.0752 27.2789 26.3831 25.7906 25.2295 24.7512Z" fill="white"/>
<path d="M20.8752 14.6705H19.7402L21.7088 19.5924H22.8441L20.8752 14.6705Z" fill="white"/>
<path d="M23.3368 14.6705H22.2012L24.1701 19.5924H25.3055L23.3368 14.6705Z" fill="white"/>
<path d="M18.4818 14.8385C17.4089 15.1373 16.6442 15.8274 16.0487 16.813C15.9304 17.0089 15.9304 17.254 16.0487 17.4499C16.8593 18.7915 18.1195 19.5924 19.6924 19.5924H20.3833L18.4818 14.8385Z" fill="white"/>
<path d="M24.6621 14.6705L26.6307 19.5924H28.3472V14.6705H24.6621Z" fill="white"/>
<path d="M34.5315 14.2662L33.2686 13.9862V20.286C33.6778 20.1912 34.1073 20.0924 34.5327 19.9968C35.9392 19.7631 36.96 18.5578 36.96 17.1315C36.96 15.7052 35.9392 14.4999 34.5315 14.2662ZM35.1143 17.7467C34.7745 17.7467 34.499 17.4713 34.499 17.1315C34.499 16.7917 34.7745 16.5163 35.1143 16.5163C35.454 16.5163 35.7295 16.7917 35.7295 17.1315C35.7295 17.4713 35.454 17.7467 35.1143 17.7467Z" fill="white"/>
</svg>
