<svg width="49" height="49" viewBox="0 0 49 49" fill="none" xmlns="http://www.w3.org/2000/svg">
<circle cx="24.36" cy="24.36" r="24.36" fill="#CEC595"/>
<circle cx="24.3604" cy="24.36" r="20.5" stroke="white"/>
<path d="M23.1123 33.4536C23.1123 34.3394 23.8304 35.0577 24.7164 35.0577C25.6023 35.0577 26.3205 34.3394 26.3205 33.4536V25.433H25.5185V26.235H24.7164V25.433H25.5185V24.6309H26.3205V23.8289H23.1123V33.4536Z" fill="white"/>
<path d="M23.1123 21.4227H26.3205V23.0268H23.1123V21.4227Z" fill="white"/>
<path d="M25.1 12.6H24.3316C23.235 12.5998 22.2137 13.1569 21.62 14.0788C21.0262 15.0007 20.9418 16.1611 21.3955 17.1594L22.9689 20.6206H26.4627L28.0358 17.1594C28.4897 16.1611 28.4051 15.0007 27.8114 14.0788C27.2179 13.1569 26.1964 12.5998 25.1 12.6Z" fill="white"/>
<path d="M17.0969 19.8185H15.4928V18.2144H17.0969V19.8185ZM16.2948 35.0576C15.8517 35.0576 15.4928 34.6985 15.4928 34.2556V20.6206H17.0969V34.2556C17.0969 34.6985 16.7377 35.0576 16.2948 35.0576ZM17.4444 13.2757L17.1264 17.4123H15.4526L15.1201 14.4379L17.4444 13.2757Z" fill="white"/>
<path d="M33.1385 26.235H31.5343V24.6309H33.1385V26.235ZM32.3364 35.0576C31.8933 35.0576 31.5343 34.6985 31.5343 34.2556V27.0371H33.1385V34.2556C33.1385 34.6985 32.7793 35.0576 32.3364 35.0576ZM33.3574 23.8288H31.3152L28.8838 21.0496C29.1188 20.8462 29.3714 20.6639 29.6387 20.505L30.3986 21.6453L31.066 21.2L30.3653 20.1494C30.8666 19.9468 31.3961 19.8226 31.9354 19.7813V21.0216H32.7374V19.7813C33.2765 19.8226 33.806 19.9468 34.3075 20.1494L33.6069 21.2L34.2742 21.6453L35.034 20.505C35.3012 20.6639 35.5538 20.8462 35.7888 21.0496L33.3574 23.8288Z" fill="white"/>
</svg>
