<svg width="49" height="49" viewBox="0 0 49 49" fill="none" xmlns="http://www.w3.org/2000/svg">
<circle cx="24.36" cy="24.36" r="24.36" fill="#CEC595"/>
<circle cx="24.3604" cy="24.36" r="20.5" stroke="white"/>
<path d="M21.6806 29.534C21.6806 28.2802 20.6642 27.264 19.4106 27.264C18.1568 27.264 17.1406 28.2802 17.1406 29.534V30.708L18.2366 31.804H19.4106C20.6635 31.8024 21.679 30.7869 21.6806 29.534Z" fill="white"/>
<path d="M28.7758 13.4676C28.3034 11.9522 26.9004 10.92 25.3132 10.92C23.7258 10.92 22.323 11.9522 21.8506 13.4676C24.056 12.4924 26.5703 12.4924 28.7758 13.4676Z" fill="white"/>
<path d="M12.7497 35.4751C12.5509 35.6739 12.5509 35.9962 12.7497 36.1951C12.9486 36.3939 13.2709 36.3939 13.4697 36.1951L16.0448 33.62L15.3248 32.9L12.7497 35.4751Z" fill="white"/>
<path d="M15.9668 32.258L16.6868 31.538L17.4068 32.258L16.6868 32.978L15.9668 32.258Z" fill="white"/>
<path d="M25.3126 13.6442C21.052 13.6488 17.5994 17.1014 17.5947 21.3621V21.6281L20.9057 18.3171C21.083 18.1398 21.3703 18.1398 21.5477 18.3171C24.3634 21.1479 28.1947 22.7349 32.1875 22.7241H33.0305V21.3621C33.0257 17.1014 29.573 13.6488 25.3126 13.6442Z" fill="white"/>
<path d="M21.2311 19.2737L17.5947 22.9121V24.5999C17.5949 25.3405 17.6566 26.0796 17.7789 26.81C18.8408 26.172 20.1766 26.2097 21.2007 26.9067C22.2247 27.6036 22.7498 28.8326 22.5457 30.0543C22.3415 31.2762 21.4455 32.2675 20.2506 32.5938C21.2398 33.9225 22.4692 35.054 23.8753 35.9298C24.7576 36.4692 25.8677 36.4692 26.75 35.9298C30.6675 33.4987 33.0445 29.2104 33.0305 24.5999V23.6321H32.1875C28.1106 23.6429 24.1865 22.0819 21.2311 19.2737ZM22.1347 26.356C20.8815 26.3545 19.8663 25.339 19.8647 24.0861H20.7727C20.7727 24.8382 21.3825 25.448 22.1347 25.448C22.8868 25.448 23.4967 24.8382 23.4967 24.0861H24.4046C24.4031 25.339 23.3876 26.3545 22.1347 26.356ZM28.4906 26.356C27.2375 26.3545 26.2222 25.339 26.2206 24.0861H27.1286C27.1286 24.8382 27.7384 25.448 28.4906 25.448C29.2427 25.448 29.8526 24.8382 29.8526 24.0861H30.7606C30.759 25.339 29.7435 26.3545 28.4906 26.356Z" fill="white"/>
</svg>
