<svg width="49" height="49" viewBox="0 0 49 49" fill="none" xmlns="http://www.w3.org/2000/svg">
<circle cx="24.36" cy="24.36" r="24.36" fill="#CEC595"/>
<circle cx="24.3594" cy="24.36" r="20.5" stroke="white"/>
<path d="M25.0282 13.4401C24.1089 13.441 23.2274 13.7843 22.5774 14.3946C21.9273 15.0049 21.5616 15.8324 21.5605 16.6954V22.3924C21.5613 23.0397 21.8356 23.6603 22.3231 24.118C22.8107 24.5757 23.4718 24.8332 24.1613 24.8339H25.8952C26.5847 24.8332 27.2458 24.5757 27.7333 24.118C28.2209 23.6603 28.4952 23.0397 28.4959 22.3924V16.6954C28.4949 15.8324 28.1292 15.0049 27.4791 14.3946C26.829 13.7843 25.9476 13.441 25.0282 13.4401V13.4401Z" fill="white"/>
<path d="M29.2738 17.8986V22.6878C29.2728 23.5499 28.9146 24.3764 28.2777 24.986C27.6409 25.5956 26.7775 25.9385 25.8769 25.9394H24.1784C23.2778 25.9385 22.4144 25.5956 21.7775 24.986C21.1407 24.3764 20.7825 23.5499 20.7815 22.6878V17.9249C19.691 19.0093 19.0822 20.4562 19.083 21.9613V33.2555H30.9722V21.8749C30.9729 20.3875 30.3629 18.9595 29.2738 17.8986ZM27.5753 31.6297H22.4799V30.8168H27.5753V31.6297ZM27.5753 30.0039H22.4799V29.191H27.5753V30.0039Z" fill="white"/>
<path d="M18.6869 18.4929C18.3717 18.4926 18.0695 18.3672 17.8466 18.1443C17.6237 17.9214 17.4983 17.6192 17.498 17.304C17.498 17.1989 17.4562 17.0981 17.3819 17.0238C17.3076 16.9495 17.2068 16.9077 17.1017 16.9077C16.9965 16.9077 16.8957 16.9495 16.8214 17.0238C16.7471 17.0981 16.7053 17.1989 16.7053 17.304C16.705 17.6192 16.5796 17.9214 16.3567 18.1443C16.1339 18.3672 15.8316 18.4926 15.5164 18.4929C15.4113 18.4929 15.3105 18.5347 15.2362 18.609C15.1619 18.6833 15.1201 18.7841 15.1201 18.8893C15.1201 18.9944 15.1619 19.0952 15.2362 19.1695C15.3105 19.2438 15.4113 19.2856 15.5164 19.2856C15.8316 19.2859 16.1339 19.4113 16.3567 19.6342C16.5796 19.8571 16.705 20.1593 16.7053 20.4745C16.7053 20.5796 16.7471 20.6804 16.8214 20.7547C16.8957 20.829 16.9965 20.8708 17.1017 20.8708C17.2068 20.8708 17.3076 20.829 17.3819 20.7547C17.4562 20.6804 17.498 20.5796 17.498 20.4745C17.4983 20.1593 17.6237 19.8571 17.8466 19.6342C18.0695 19.4113 18.3717 19.2859 18.6869 19.2856C18.792 19.2856 18.8928 19.2438 18.9671 19.1695C19.0414 19.0952 19.0832 18.9944 19.0832 18.8893C19.0832 18.7841 19.0414 18.6833 18.9671 18.609C18.8928 18.5347 18.792 18.4929 18.6869 18.4929Z" fill="white"/>
<path d="M33.9941 15.0253C33.6394 15.025 33.2995 14.8996 33.0487 14.6767C32.7979 14.4538 32.6569 14.1516 32.6565 13.8364C32.6565 13.7313 32.6095 13.6305 32.5259 13.5561C32.4423 13.4818 32.3289 13.4401 32.2107 13.4401C32.0924 13.4401 31.979 13.4818 31.8954 13.5561C31.8118 13.6305 31.7648 13.7313 31.7648 13.8364C31.7644 14.1516 31.6234 14.4538 31.3726 14.6767C31.1219 14.8996 30.7819 15.025 30.4273 15.0253C30.309 15.0253 30.1956 15.067 30.112 15.1414C30.0284 15.2157 29.9814 15.3165 29.9814 15.4216C29.9814 15.5267 30.0284 15.6275 30.112 15.7018C30.1956 15.7762 30.309 15.8179 30.4273 15.8179C30.7819 15.8183 31.1219 15.9436 31.3726 16.1665C31.6234 16.3894 31.7644 16.6916 31.7648 17.0068C31.7648 17.1119 31.8118 17.2127 31.8954 17.2871C31.979 17.3614 32.0924 17.4031 32.2107 17.4031C32.3289 17.4031 32.4423 17.3614 32.5259 17.2871C32.6095 17.2127 32.6565 17.1119 32.6565 17.0068C32.6569 16.6916 32.7979 16.3894 33.0487 16.1665C33.2995 15.9436 33.6394 15.8183 33.9941 15.8179C34.1123 15.8179 34.2257 15.7762 34.3093 15.7018C34.3929 15.6275 34.4399 15.5267 34.4399 15.4216C34.4399 15.3165 34.3929 15.2157 34.3093 15.1414C34.2257 15.067 34.1123 15.0253 33.9941 15.0253Z" fill="white"/>
</svg>
