<svg width="49" height="49" viewBox="0 0 49 49" fill="none" xmlns="http://www.w3.org/2000/svg">
<circle cx="24.36" cy="24.36" r="24.36" fill="#CEC595"/>
<circle cx="24.3604" cy="24.36" r="20.5" stroke="white"/>
<path d="M21.4419 19.9057L22.3029 19.0447L21.945 18.6522L21.123 19.4741L21.4419 19.9057Z" fill="white"/>
<path d="M20.7066 18.9121L21.4781 18.141L21.1201 17.7485L20.3877 18.4806L20.7066 18.9121Z" fill="white"/>
<path d="M19.9712 17.9187L20.6529 17.2371L20.295 16.8446L19.6523 17.4872L19.9712 17.9187Z" fill="white"/>
<path d="M19.2388 16.9261L19.8306 16.3339L19.4727 15.9418L18.9199 16.4946L19.2388 16.9261Z" fill="white"/>
<path d="M23.9259 20.8252L23.5918 20.459L22.9834 21.0674C23.3199 21.0902 23.6488 21.0038 23.9259 20.8252Z" fill="white"/>
<path d="M22.251 20.8213L23.1237 19.9483L22.7658 19.5558L21.8564 20.4651C21.967 20.6085 22.1021 20.726 22.251 20.8213Z" fill="white"/>
<path d="M18.1835 14.5265L17.8256 14.134L17.4521 14.5079L17.771 14.939L18.1835 14.5265Z" fill="white"/>
<path d="M22.6389 31.8431C22.3553 31.5138 22.1953 31.0854 22.177 30.6038C22.159 30.1353 22.0212 29.6765 21.7783 29.2771C21.3907 28.6397 21.448 27.7511 21.912 27.2104L22.2295 26.84C22.5028 26.5211 22.8417 26.2748 23.2169 26.11L22.4299 25.9787C22.2568 25.9501 22.0927 25.8937 21.94 25.8174L20.945 27.0397C20.528 27.5521 19.9113 27.8838 19.2535 27.9497C17.9375 28.0807 16.8554 29.0715 16.6803 30.3053C16.5538 31.1966 16.8461 32.0649 17.4825 32.6874C18.1189 33.31 18.9954 33.5822 19.8861 33.4371C20.3331 33.3636 20.7608 33.1732 21.1229 32.8871C21.5382 32.5593 22.1307 32.5924 22.5007 32.9631L22.8998 33.3622C22.973 33.4354 23.0701 33.4755 23.1737 33.4755C23.3872 33.4755 23.561 33.3017 23.561 33.0882C23.561 32.9752 23.5203 32.8654 23.4463 32.7797L22.6389 31.8431ZM19.4152 32.439C18.4613 32.439 17.6877 31.6655 17.6877 30.7116C17.6877 29.7577 18.4613 28.9841 19.4152 28.9841C20.369 28.9841 21.1426 29.7577 21.1426 30.7116C21.1426 31.6655 20.369 32.439 19.4152 32.439Z" fill="white"/>
<path d="M31.8448 15.9536C32.0749 15.5971 32.1965 15.1845 32.1965 14.7599C32.1965 14.3533 32.0766 13.965 31.8541 13.6354L25.4629 21.4876L27.1095 23.2935L31.8448 15.9536Z" fill="white"/>
<path d="M19.0058 15.4302L18.6479 15.0377L18.1846 15.501L18.5035 15.9325L19.0058 15.4302Z" fill="white"/>
<path d="M34.5749 33.3474L33.043 32.7349C32.5483 32.5369 32.2878 31.9952 32.437 31.4752C32.5424 31.108 32.5697 30.7252 32.5189 30.3375C32.3555 29.0876 31.2848 28.0846 29.9726 27.9533C29.2976 27.8856 28.6674 27.5429 28.2435 27.0129L28.1609 26.9092C27.8679 26.5437 27.7066 26.0835 27.7066 25.6144V25.1058C27.7066 25.0194 27.6745 24.9372 27.6164 24.8733L24.394 21.3393C24.014 21.6129 23.558 21.7632 23.0864 21.7632C23.0307 21.7632 22.9748 21.7611 22.9188 21.757C22.2669 21.7083 21.6705 21.3787 21.2819 20.8535L16.5418 14.4395L17.3582 13.6231C17.2479 13.5057 17.0935 13.4373 16.9318 13.4373C16.8164 13.4373 16.7048 13.4711 16.6084 13.535L16.1921 13.8128C16.0467 13.9095 15.96 14.0719 15.96 14.2467C15.96 14.3362 15.9831 14.4247 16.027 14.5024L21.8101 24.7831C21.9649 25.0585 22.232 25.2457 22.5429 25.2972L24.5505 25.632C25.5884 25.8047 26.5371 26.3402 27.2222 27.1393L27.282 27.2084C27.7425 27.746 27.8175 28.6502 27.4499 29.2244C27.0926 29.7827 26.9517 30.4315 27.0426 31.1004C27.2046 32.2944 28.1474 33.2566 29.3352 33.4407C29.482 33.4639 29.6316 33.4756 29.7795 33.4756H34.55C34.5866 33.4756 34.6164 33.4459 34.6164 33.4093C34.6164 33.382 34.6001 33.3574 34.5749 33.3474ZM24.5972 24.8384C24.2154 24.8384 23.9062 24.5292 23.9062 24.1474C23.9062 23.7656 24.2154 23.4564 24.5972 23.4564C24.9789 23.4564 25.2882 23.7656 25.2882 24.1474C25.2882 24.5292 24.9789 24.8384 24.5972 24.8384ZM29.7795 32.4391C28.8256 32.4391 28.0521 31.6656 28.0521 30.7117C28.0521 29.7578 28.8256 28.9843 29.7795 28.9843C30.7334 28.9843 31.507 29.7578 31.507 30.7117C31.507 31.6656 30.7334 32.4391 29.7795 32.4391Z" fill="white"/>
</svg>
