<svg width="20" height="25" viewBox="0 0 20 25" fill="none" xmlns="http://www.w3.org/2000/svg">
<path d="M8.57247 17.5738C8.57247 16.3901 7.61285 15.4307 6.4293 15.4307C5.24553 15.4307 4.28613 16.3901 4.28613 17.5738V18.6822L5.32088 19.717H6.4293C7.61223 19.7155 8.571 18.7568 8.57247 17.5738Z" fill="#E1E1E1"/>
<path d="M15.2708 2.4052C14.8247 0.974471 13.5001 0 12.0016 0C10.5028 0 9.17843 0.974471 8.73242 2.4052C10.8147 1.48452 13.1885 1.48452 15.2708 2.4052Z" fill="#E1E1E1"/>
<path d="M0.140804 23.1831C-0.0469348 23.3709 -0.0469348 23.6752 0.140804 23.8629C0.328544 24.0507 0.632861 24.0507 0.8206 23.8629L3.25179 21.4318L2.572 20.752L0.140804 23.1831Z" fill="#E1E1E1"/>
<path d="M3.17871 20.1461L3.85851 19.4663L4.5383 20.1461L3.85851 20.8259L3.17871 20.1461Z" fill="#E1E1E1"/>
<path d="M12.0016 2.57227C7.97899 2.57666 4.71924 5.83641 4.71484 9.85903V10.1102L7.84085 6.98417C8.00829 6.81674 8.27953 6.81674 8.44697 6.98417C11.1054 9.65685 14.7226 11.1552 18.4924 11.1449H19.2884V9.85903C19.2838 5.83641 16.024 2.57666 12.0016 2.57227Z" fill="#E1E1E1"/>
<path d="M8.14809 7.88672L4.71484 11.3219V12.9154C4.71505 13.6147 4.77324 14.3124 4.88877 15.0021C5.89128 14.3997 7.15249 14.4353 8.11942 15.0933C9.08615 15.7513 9.58196 16.9117 9.3892 18.0651C9.19645 19.2187 8.35048 20.1547 7.22239 20.4627C8.15626 21.7173 9.317 22.7855 10.6445 23.6124C11.4775 24.1216 12.5257 24.1216 13.3587 23.6124C17.0573 21.3171 19.3016 17.2683 19.2884 12.9154V12.0016H18.4924C14.6433 12.0119 10.9384 10.538 8.14809 7.88672ZM9.00117 14.5734C7.81804 14.572 6.85947 13.6132 6.85801 12.4303H7.71528C7.71528 13.1404 8.29104 13.7162 9.00117 13.7162C9.71131 13.7162 10.2871 13.1404 10.2871 12.4303H11.1443C11.1429 13.6132 10.1841 14.572 9.00117 14.5734ZM15.002 14.5734C13.8189 14.572 12.8603 13.6132 12.8589 12.4303H13.7161C13.7161 13.1404 14.2919 13.7162 15.002 13.7162C15.7122 13.7162 16.2879 13.1404 16.2879 12.4303H17.1452C17.1437 13.6132 16.185 14.572 15.002 14.5734Z" fill="#E1E1E1"/>
</svg>
