<svg width="26" height="20" viewBox="0 0 26 20" fill="none" xmlns="http://www.w3.org/2000/svg">
<path d="M19.2818 2.8833L18.1855 6.17303H20.378L19.2818 2.8833Z" fill="#E1E1E1"/>
<path d="M12.9844 13.7279C10.8147 13.7304 8.88806 12.3413 8.20458 10.282C7.5213 8.22277 8.23532 5.95734 9.97589 4.66211C5.87459 5.47491 2.91749 9.07021 2.91113 13.2512V14.5674H14.3008C15.282 14.5661 16.2559 14.3991 17.1817 14.0735V11.4711C16.2498 12.8799 14.6736 13.7275 12.9844 13.7279Z" fill="#E1E1E1"/>
<path d="M12.9863 4.49414C10.6682 4.49414 8.78906 6.37346 8.78906 8.69135C8.78906 11.0095 10.6682 12.8886 12.9863 12.8886C15.3044 12.8886 17.1835 11.0095 17.1835 8.69135C17.181 6.37448 15.3033 4.4968 12.9863 4.49414ZM12.9863 9.95052C12.2909 9.95052 11.7271 9.38693 11.7271 8.69135C11.7271 7.99599 12.2909 7.43219 12.9863 7.43219C13.6816 7.43219 14.2454 7.99599 14.2454 8.69135C14.2454 9.38693 13.6816 9.95052 12.9863 9.95052Z" fill="#E1E1E1"/>
<path d="M17.3145 6.13122L17.8602 4.49414H15.7637C16.3969 4.91653 16.9271 5.47602 17.3145 6.13122Z" fill="#E1E1E1"/>
<path d="M20.7041 4.49414L21.3593 6.46015C21.3718 6.4995 21.3784 6.54028 21.379 6.58148C21.379 6.58578 21.381 6.58906 21.381 6.59275V10.9529C22.4723 9.4603 23.0603 7.65927 23.0599 5.81048V4.49414H20.7041Z" fill="#E1E1E1"/>
<path d="M18.0225 7.0127H20.5408V19.6043H18.0225V7.0127Z" fill="#E1E1E1"/>
<path d="M0.788207 11.7731L0 11.486L1.05607 8.58113C1.48337 7.40435 2.10045 6.30545 2.88312 5.32829L2.94481 5.25102C4.81511 2.91223 7.52465 1.39586 10.4963 1.02491C12.1414 0.819153 13.8006 0.748858 15.4571 0.815054L23.3122 1.12903L24.4412 0L25.0347 0.593307L23.7755 1.85247C23.6925 1.93527 23.579 1.97994 23.462 1.97585L15.4235 1.6545C13.8129 1.59035 12.1998 1.65839 10.6004 1.858C7.8462 2.20231 5.33484 3.60759 3.60083 5.77527L3.53873 5.85212C2.81344 6.75837 2.24125 7.77693 1.84468 8.86784L0.788207 11.7731Z" fill="#E1E1E1"/>
</svg>
