<svg width="20" height="22" viewBox="0 0 20 22" fill="none" xmlns="http://www.w3.org/2000/svg">
<path d="M7.54492 19.6886C7.54492 20.525 8.22286 21.2031 9.05943 21.2031C9.89581 21.2031 10.5739 20.525 10.5739 19.6886V12.1161H9.81669V12.8733H9.05943V12.1161H9.81669V11.3588H10.5739V10.6016H7.54492V19.6886Z" fill="#E1E1E1"/>
<path d="M7.54492 8.32959H10.5739V9.8441H7.54492V8.32959Z" fill="#E1E1E1"/>
<path d="M9.42279 4.87211e-08H8.69734C7.66203 -0.000184828 6.69771 0.525789 6.13716 1.39619C5.57662 2.26659 5.49694 3.36217 5.9253 4.30467L7.41078 7.57255H10.7093L12.1946 4.30467C12.6232 3.36217 12.5433 2.26659 11.9828 1.39619C11.4224 0.525789 10.4579 -0.000184828 9.42279 4.87211e-08Z" fill="#E1E1E1"/>
<path d="M1.86633 6.81547H0.35182V5.30096H1.86633V6.81547ZM1.10907 21.2033C0.690699 21.2033 0.35182 20.8642 0.35182 20.446V7.57272H1.86633V20.446C1.86633 20.8642 1.52727 21.2033 1.10907 21.2033ZM2.19449 0.638184L1.89425 4.5437H0.31392L0 1.73543L2.19449 0.638184Z" fill="#E1E1E1"/>
<path d="M17.0111 12.8734H15.4966V11.3589H17.0111V12.8734ZM16.2539 21.2032C15.8355 21.2032 15.4966 20.8642 15.4966 20.446V13.6307H17.0111V20.446C17.0111 20.8642 16.6721 21.2032 16.2539 21.2032ZM17.2178 10.6017H15.2898L12.9941 7.97772C13.216 7.78563 13.4545 7.61351 13.7068 7.46358L14.4243 8.54011L15.0544 8.1197L14.3929 7.12784C14.8662 6.93649 15.3661 6.81928 15.8753 6.78027V7.95128H16.6325V6.78027C17.1415 6.81928 17.6414 6.93649 18.1149 7.12784L17.4534 8.1197L18.0834 8.54011L18.8007 7.46358C19.0531 7.61351 19.2916 7.78563 19.5134 7.97772L17.2178 10.6017Z" fill="#E1E1E1"/>
</svg>
