<svg width="18" height="20" viewBox="0 0 18 20" fill="none" xmlns="http://www.w3.org/2000/svg">
<path d="M5.554 6.52423L6.36686 5.71137L6.02893 5.34082L5.25293 6.11682L5.554 6.52423Z" fill="#E1E1E1"/>
<path d="M5.554 6.52423L6.36686 5.71137L6.02893 5.34082L5.25293 6.11682L5.554 6.52423Z" fill="#E1E1E1"/>
<path d="M4.86064 5.58689L5.58902 4.85883L5.25109 4.48828L4.55957 5.17948L4.86064 5.58689Z" fill="#E1E1E1"/>
<path d="M4.86064 5.58689L5.58902 4.85883L5.25109 4.48828L4.55957 5.17948L4.86064 5.58689Z" fill="#E1E1E1"/>
<path d="M4.16435 4.64889L4.80792 4.00532L4.46999 3.63477L3.86328 4.24148L4.16435 4.64889Z" fill="#E1E1E1"/>
<path d="M4.16435 4.64889L4.80792 4.00532L4.46999 3.63477L3.86328 4.24148L4.16435 4.64889Z" fill="#E1E1E1"/>
<path d="M3.47392 3.71154L4.03269 3.15245L3.69475 2.78223L3.17285 3.30413L3.47392 3.71154Z" fill="#E1E1E1"/>
<path d="M3.47392 3.71154L4.03269 3.15245L3.69475 2.78223L3.17285 3.30413L3.47392 3.71154Z" fill="#E1E1E1"/>
<path d="M7.89961 7.39264L7.58418 7.04688L7.00977 7.62129C7.32747 7.64282 7.63801 7.56127 7.89961 7.39264Z" fill="#E1E1E1"/>
<path d="M7.89961 7.39264L7.58418 7.04688L7.00977 7.62129C7.32747 7.64282 7.63801 7.56127 7.89961 7.39264Z" fill="#E1E1E1"/>
<path d="M6.31782 7.38917L7.14177 6.56489L6.80384 6.19434L5.94531 7.05287C6.04969 7.18823 6.17723 7.29914 6.31782 7.38917Z" fill="#E1E1E1"/>
<path d="M6.31782 7.38917L7.14177 6.56489L6.80384 6.19434L5.94531 7.05287C6.04969 7.18823 6.17723 7.29914 6.31782 7.38917Z" fill="#E1E1E1"/>
<path d="M2.47765 1.44575L2.13972 1.0752L1.78711 1.42813L2.08818 1.83521L2.47765 1.44575Z" fill="#E1E1E1"/>
<path d="M2.47765 1.44575L2.13972 1.0752L1.78711 1.42813L2.08818 1.83521L2.47765 1.44575Z" fill="#E1E1E1"/>
<path d="M6.68529 17.795C6.41749 17.4842 6.26646 17.0797 6.24918 16.625C6.23221 16.1827 6.10207 15.7495 5.87275 15.3724C5.50677 14.7706 5.56092 13.9316 5.99899 13.4212L6.29876 13.0715C6.55677 12.7704 6.87676 12.5378 7.231 12.3822L6.48795 12.2583C6.32453 12.2312 6.16959 12.178 6.02541 12.106L5.08599 13.26C4.69228 13.7438 4.11003 14.0569 3.48897 14.1192C2.24651 14.2428 1.22489 15.1783 1.05951 16.3432C0.940128 17.1847 1.21608 18.0044 1.81692 18.5922C2.41776 19.18 3.2453 19.4371 4.08622 19.3001C4.50831 19.2306 4.91213 19.0508 5.25397 18.7808C5.64605 18.4712 6.20547 18.5025 6.55481 18.8525L6.93156 19.2293C7.00072 19.2984 7.09237 19.3363 7.19023 19.3363C7.39182 19.3363 7.55589 19.1722 7.55589 18.9706C7.55589 18.8639 7.5174 18.7602 7.44759 18.6793L6.68529 17.795ZM3.64162 18.3577C2.74102 18.3577 2.01068 17.6274 2.01068 16.7268C2.01068 15.8261 2.74102 15.0958 3.64162 15.0958C4.54223 15.0958 5.27257 15.8261 5.27257 16.7268C5.27257 17.6274 4.54223 18.3577 3.64162 18.3577Z" fill="#E1E1E1"/>
<path d="M6.68529 17.795C6.41749 17.4842 6.26646 17.0797 6.24918 16.625C6.23221 16.1827 6.10207 15.7495 5.87275 15.3724C5.50677 14.7706 5.56092 13.9316 5.99899 13.4212L6.29876 13.0715C6.55677 12.7704 6.87676 12.5378 7.231 12.3822L6.48795 12.2583C6.32453 12.2312 6.16959 12.178 6.02541 12.106L5.08599 13.26C4.69228 13.7438 4.11003 14.0569 3.48897 14.1192C2.24651 14.2428 1.22489 15.1783 1.05951 16.3432C0.940128 17.1847 1.21608 18.0044 1.81692 18.5922C2.41776 19.18 3.2453 19.4371 4.08622 19.3001C4.50831 19.2306 4.91213 19.0508 5.25397 18.7808C5.64605 18.4712 6.20547 18.5025 6.55481 18.8525L6.93156 19.2293C7.00072 19.2984 7.09237 19.3363 7.19023 19.3363C7.39182 19.3363 7.55589 19.1722 7.55589 18.9706C7.55589 18.8639 7.5174 18.7602 7.44759 18.6793L6.68529 17.795ZM3.64162 18.3577C2.74102 18.3577 2.01068 17.6274 2.01068 16.7268C2.01068 15.8261 2.74102 15.0958 3.64162 15.0958C4.54223 15.0958 5.27257 15.8261 5.27257 16.7268C5.27257 17.6274 4.54223 18.3577 3.64162 18.3577Z" fill="#E1E1E1"/>
<path d="M15.3769 2.79322C15.5942 2.45659 15.709 2.06712 15.709 1.66624C15.709 1.28231 15.5958 0.915676 15.3857 0.604492L9.35156 8.01811L10.9062 9.7231L15.3769 2.79322Z" fill="#E1E1E1"/>
<path d="M15.3769 2.79322C15.5942 2.45659 15.709 2.06712 15.709 1.66624C15.709 1.28231 15.5958 0.915676 15.3857 0.604492L9.35156 8.01811L10.9062 9.7231L15.3769 2.79322Z" fill="#E1E1E1"/>
<path d="M3.25484 2.29926L2.91691 1.92871L2.47949 2.36613L2.78056 2.77354L3.25484 2.29926Z" fill="#E1E1E1"/>
<path d="M3.25484 2.29926L2.91691 1.92871L2.47949 2.36613L2.78056 2.77354L3.25484 2.29926Z" fill="#E1E1E1"/>
<path d="M17.954 19.2154L16.5076 18.6371C16.0405 18.4502 15.7946 17.9387 15.9355 17.4478C16.035 17.1011 16.0608 16.7396 16.0128 16.3737C15.8585 15.1935 14.8477 14.2466 13.6088 14.1226C12.9714 14.0587 12.3765 13.7351 11.9762 13.2347L11.8983 13.1369C11.6217 12.7918 11.4693 12.3573 11.4693 11.9143V11.4342C11.4693 11.3526 11.439 11.275 11.3842 11.2147L8.34183 7.87807C7.98303 8.13642 7.55246 8.27831 7.10721 8.27831C7.05469 8.27831 7.00185 8.27635 6.94901 8.27244C6.33349 8.22644 5.77048 7.91526 5.40352 7.41945L0.928209 1.36375L1.69899 0.59297C1.59494 0.482066 1.44913 0.41748 1.29648 0.41748C1.18753 0.41748 1.08217 0.449447 0.991163 0.509792L0.598105 0.772048C0.46078 0.863381 0.378906 1.01669 0.378906 1.18174C0.378906 1.26622 0.400761 1.34973 0.442187 1.42312L5.90227 11.1295C6.0484 11.3895 6.30054 11.5663 6.59411 11.6149L8.4896 11.931C9.46947 12.0941 10.3652 12.5997 11.012 13.3541L11.0684 13.4194C11.5033 13.9269 11.574 14.7806 11.227 15.3227C10.8897 15.8498 10.7566 16.4624 10.8424 17.0939C10.9954 18.2212 11.8856 19.1296 13.007 19.3035C13.1456 19.3253 13.2869 19.3364 13.4265 19.3364H17.9305C17.9651 19.3364 17.9931 19.3084 17.9931 19.2738C17.9931 19.248 17.9778 19.2249 17.954 19.2154ZM8.53363 11.1817C8.17319 11.1817 7.88125 10.8898 7.88125 10.5293C7.88125 10.1689 8.17319 9.87696 8.53363 9.87696C8.89407 9.87696 9.18601 10.1689 9.18601 10.5293C9.18601 10.8898 8.89407 11.1817 8.53363 11.1817ZM13.4265 18.3579C12.5259 18.3579 11.7955 17.6275 11.7955 16.7269C11.7955 15.8263 12.5259 15.096 13.4265 15.096C14.3271 15.096 15.0574 15.8263 15.0574 16.7269C15.0574 17.6275 14.3271 18.3579 13.4265 18.3579Z" fill="#E1E1E1"/>
<path d="M17.954 19.2154L16.5076 18.6371C16.0405 18.4502 15.7946 17.9387 15.9355 17.4478C16.035 17.1011 16.0608 16.7396 16.0128 16.3737C15.8585 15.1935 14.8477 14.2466 13.6088 14.1226C12.9714 14.0587 12.3765 13.7351 11.9762 13.2347L11.8983 13.1369C11.6217 12.7918 11.4693 12.3573 11.4693 11.9143V11.4342C11.4693 11.3526 11.439 11.275 11.3842 11.2147L8.34183 7.87807C7.98303 8.13642 7.55246 8.27831 7.10721 8.27831C7.05469 8.27831 7.00185 8.27635 6.94901 8.27244C6.33349 8.22644 5.77048 7.91526 5.40352 7.41945L0.928209 1.36375L1.69899 0.59297C1.59494 0.482066 1.44913 0.41748 1.29648 0.41748C1.18753 0.41748 1.08217 0.449447 0.991163 0.509792L0.598105 0.772048C0.46078 0.863381 0.378906 1.01669 0.378906 1.18174C0.378906 1.26622 0.400761 1.34973 0.442187 1.42312L5.90227 11.1295C6.0484 11.3895 6.30054 11.5663 6.59411 11.6149L8.4896 11.931C9.46947 12.0941 10.3652 12.5997 11.012 13.3541L11.0684 13.4194C11.5033 13.9269 11.574 14.7806 11.227 15.3227C10.8897 15.8498 10.7566 16.4624 10.8424 17.0939C10.9954 18.2212 11.8856 19.1296 13.007 19.3035C13.1456 19.3253 13.2869 19.3364 13.4265 19.3364H17.9305C17.9651 19.3364 17.9931 19.3084 17.9931 19.2738C17.9931 19.248 17.9778 19.2249 17.954 19.2154ZM8.53363 11.1817C8.17319 11.1817 7.88125 10.8898 7.88125 10.5293C7.88125 10.1689 8.17319 9.87696 8.53363 9.87696C8.89407 9.87696 9.18601 10.1689 9.18601 10.5293C9.18601 10.8898 8.89407 11.1817 8.53363 11.1817ZM13.4265 18.3579C12.5259 18.3579 11.7955 17.6275 11.7955 16.7269C11.7955 15.8263 12.5259 15.096 13.4265 15.096C14.3271 15.096 15.0574 15.8263 15.0574 16.7269C15.0574 17.6275 14.3271 18.3579 13.4265 18.3579Z" fill="#E1E1E1"/>
</svg>
