<svg width="19" height="20" viewBox="0 0 19 20" fill="none" xmlns="http://www.w3.org/2000/svg">
<path d="M9.35406 0.41748C8.48604 0.418396 7.65386 0.742507 7.04008 1.31871C6.4263 1.89491 6.08105 2.67614 6.08008 3.49101V8.86969C6.08081 9.48084 6.33975 10.0668 6.80008 10.4989C7.26041 10.9311 7.88455 11.1742 8.53556 11.1748H10.1726C10.8236 11.1742 11.4477 10.9311 11.908 10.4989C12.3684 10.0668 12.6273 9.48084 12.628 8.86969V3.49101C12.6271 2.67614 12.2818 1.89491 11.668 1.31871C11.0543 0.742507 10.2221 0.418396 9.35406 0.41748V0.41748Z" fill="#E1E1E1"/>
<path d="M13.3637 4.62695V9.14869C13.3627 9.96261 13.0245 10.7429 12.4233 11.3185C11.822 11.894 11.0068 12.2177 10.1565 12.2186H8.55293C7.70263 12.2177 6.88743 11.894 6.28618 11.3185C5.68493 10.7429 5.34672 9.96261 5.34577 9.14869V4.6518C4.31623 5.67565 3.74143 7.04167 3.74219 8.46275V19.126H14.9673V8.3812C14.9679 6.97689 14.3919 5.62859 13.3637 4.62695ZM11.7601 17.591H6.94935V16.8235H11.7601V17.591ZM11.7601 16.0561H6.94935V15.2886H11.7601V16.0561Z" fill="#E1E1E1"/>
<path d="M3.36752 5.18808C3.06991 5.18776 2.78459 5.06939 2.57414 4.85895C2.3637 4.64851 2.24534 4.36318 2.24501 4.06558C2.24501 3.96634 2.20559 3.87117 2.13542 3.801C2.06525 3.73083 1.97008 3.69141 1.87084 3.69141C1.77161 3.69141 1.67644 3.73083 1.60627 3.801C1.5361 3.87117 1.49668 3.96634 1.49668 4.06558C1.49635 4.36318 1.37799 4.64851 1.16755 4.85895C0.957105 5.06939 0.671778 5.18776 0.374169 5.18808C0.274933 5.18808 0.179762 5.2275 0.109592 5.29767C0.0394213 5.36784 0 5.46302 0 5.56225C0 5.66149 0.0394213 5.75666 0.109592 5.82683C0.179762 5.897 0.274933 5.93642 0.374169 5.93642C0.671778 5.93674 0.957105 6.05511 1.16755 6.26555C1.37799 6.47599 1.49635 6.76132 1.49668 7.05893C1.49668 7.15816 1.5361 7.25333 1.60627 7.3235C1.67644 7.39368 1.77161 7.4331 1.87084 7.4331C1.97008 7.4331 2.06525 7.39368 2.13542 7.3235C2.20559 7.25333 2.24501 7.15816 2.24501 7.05893C2.24534 6.76132 2.3637 6.47599 2.57414 6.26555C2.78459 6.05511 3.06991 5.93674 3.36752 5.93642C3.46676 5.93642 3.56193 5.897 3.6321 5.82683C3.70227 5.75666 3.74169 5.66149 3.74169 5.56225C3.74169 5.46302 3.70227 5.36784 3.6321 5.29767C3.56193 5.2275 3.46676 5.18808 3.36752 5.18808Z" fill="#E1E1E1"/>
<path d="M17.8197 1.91416C17.4849 1.91383 17.1639 1.79547 16.9272 1.58503C16.6904 1.37459 16.5573 1.08926 16.5569 0.791649C16.5569 0.692414 16.5125 0.597242 16.4336 0.527072C16.3547 0.456902 16.2476 0.41748 16.136 0.41748C16.0243 0.41748 15.9172 0.456902 15.8383 0.527072C15.7594 0.597242 15.715 0.692414 15.715 0.791649C15.7146 1.08926 15.5815 1.37459 15.3447 1.58503C15.108 1.79547 14.787 1.91383 14.4522 1.91416C14.3405 1.91416 14.2335 1.95358 14.1545 2.02375C14.0756 2.09392 14.0312 2.18909 14.0312 2.28833C14.0312 2.38756 14.0756 2.48273 14.1545 2.5529C14.2335 2.62307 14.3405 2.66249 14.4522 2.66249C14.787 2.66282 15.108 2.78118 15.3447 2.99162C15.5815 3.20207 15.7146 3.48739 15.715 3.785C15.715 3.88424 15.7594 3.97941 15.8383 4.04958C15.9172 4.11975 16.0243 4.15917 16.136 4.15917C16.2476 4.15917 16.3547 4.11975 16.4336 4.04958C16.5125 3.97941 16.5569 3.88424 16.5569 3.785C16.5573 3.48739 16.6904 3.20207 16.9272 2.99162C17.1639 2.78118 17.4849 2.66282 17.8197 2.66249C17.9314 2.66249 18.0384 2.62307 18.1174 2.5529C18.1963 2.48273 18.2407 2.38756 18.2407 2.28833C18.2407 2.18909 18.1963 2.09392 18.1174 2.02375C18.0384 1.95358 17.9314 1.91416 17.8197 1.91416Z" fill="#E1E1E1"/>
</svg>
