<svg width="23" height="23" viewBox="0 0 23 23" fill="none" xmlns="http://www.w3.org/2000/svg">
<path d="M15.698 0C14.9821 0 14.3994 0.583867 14.3994 1.3018V6.50512C14.3994 7.223 14.9821 7.80687 15.698 7.80687C15.8118 7.80687 16.3141 7.69753 17.0017 7.54005V0.288984L15.698 0Z" fill="#CEC595"/>
<path d="M15.698 0C14.9821 0 14.3994 0.583867 14.3994 1.3018V6.50512C14.3994 7.223 14.9821 7.80687 15.698 7.80687C15.8118 7.80687 16.3141 7.69753 17.0017 7.54005V0.288984L15.698 0Z" fill="#CEC595"/>
<path d="M6.54876 9.15137H5.24762C4.1697 9.15137 3.2959 10.0252 3.2959 11.1031V13.0548C3.2959 14.492 4.46099 15.6571 5.89819 15.6571C7.33539 15.6571 8.50048 14.492 8.50048 13.0548V11.1031C8.50048 10.0252 7.62671 9.15137 6.54876 9.15137Z" fill="#CEC595"/>
<path d="M6.54876 9.15137H5.24762C4.1697 9.15137 3.2959 10.0252 3.2959 11.1031V13.0548C3.2959 14.492 4.46099 15.6571 5.89819 15.6571C7.33539 15.6571 8.50048 14.492 8.50048 13.0548V11.1031C8.50048 10.0252 7.62671 9.15137 6.54876 9.15137Z" fill="#CEC595"/>
<path d="M9.80196 11.9609V13.0549C9.80196 15.2074 8.05101 16.9583 5.89852 16.9583C3.74604 16.9583 1.99509 15.2074 1.99509 13.0549V11.9609C0.775265 13.0599 0 14.6339 0 16.3078V21.5557C0 21.9153 0.290979 22.2063 0.650572 22.2063H11.1031C11.4627 22.2063 11.7537 21.9153 11.7537 21.5557V16.3078C11.7537 14.6338 11.0218 13.06 9.80196 11.9609Z" fill="#CEC595"/>
<path d="M9.80196 11.9609V13.0549C9.80196 15.2074 8.05101 16.9583 5.89852 16.9583C3.74604 16.9583 1.99509 15.2074 1.99509 13.0549V11.9609C0.775265 13.0599 0 14.6339 0 16.3078V21.5557C0 21.9153 0.290979 22.2063 0.650572 22.2063H11.1031C11.4627 22.2063 11.7537 21.9153 11.7537 21.5557V16.3078C11.7537 14.6338 11.0218 13.06 9.80196 11.9609Z" fill="#CEC595"/>
<path d="M5.19725 1.30078H3.99707L6.07868 6.50536H7.27916L5.19725 1.30078Z" fill="#CEC595"/>
<path d="M5.19725 1.30078H3.99707L6.07868 6.50536H7.27916L5.19725 1.30078Z" fill="#CEC595"/>
<path d="M7.79853 1.30078H6.59766L8.67962 6.50536H9.88031L7.79853 1.30078Z" fill="#CEC595"/>
<path d="M7.79853 1.30078H6.59766L8.67962 6.50536H9.88031L7.79853 1.30078Z" fill="#CEC595"/>
<path d="M2.66672 1.479C1.53212 1.79501 0.723501 2.52473 0.0938776 3.56691C-0.0312925 3.77401 -0.0312925 4.03324 0.0938776 4.24034C0.950941 5.65906 2.28357 6.50593 3.94683 6.50593H4.67738L2.66672 1.479Z" fill="#CEC595"/>
<path d="M2.66672 1.479C1.53212 1.79501 0.723501 2.52473 0.0938776 3.56691C-0.0312925 3.77401 -0.0312925 4.03324 0.0938776 4.24034C0.950941 5.65906 2.28357 6.50593 3.94683 6.50593H4.67738L2.66672 1.479Z" fill="#CEC595"/>
<path d="M9.20117 1.30078L11.2829 6.50536H13.0979V1.30078H9.20117Z" fill="#CEC595"/>
<path d="M9.20117 1.30078L11.2829 6.50536H13.0979V1.30078H9.20117Z" fill="#CEC595"/>
<path d="M19.6382 0.873734L18.3027 0.577637V7.23928C18.7355 7.13905 19.1896 7.03457 19.6394 6.93347C21.1267 6.68629 22.2062 5.41182 22.2062 3.90358C22.2062 2.39534 21.1267 1.12086 19.6382 0.873734ZM20.2545 4.55415C19.8952 4.55415 19.6039 4.26287 19.6039 3.90358C19.6039 3.54429 19.8952 3.25301 20.2545 3.25301C20.6137 3.25301 20.905 3.54429 20.905 3.90358C20.905 4.26287 20.6137 4.55415 20.2545 4.55415Z" fill="#CEC595"/>
<path d="M19.6382 0.873734L18.3027 0.577637V7.23928C18.7355 7.13905 19.1896 7.03457 19.6394 6.93347C21.1267 6.68629 22.2062 5.41182 22.2062 3.90358C22.2062 2.39534 21.1267 1.12086 19.6382 0.873734ZM20.2545 4.55415C19.8952 4.55415 19.6039 4.26287 19.6039 3.90358C19.6039 3.54429 19.8952 3.25301 20.2545 3.25301C20.6137 3.25301 20.905 3.54429 20.905 3.90358C20.905 4.26287 20.6137 4.55415 20.2545 4.55415Z" fill="#CEC595"/>
</svg>
