<svg width="72" height="72" viewBox="0 0 72 72" fill="none" xmlns="http://www.w3.org/2000/svg">
<circle cx="36" cy="36" r="36" fill="#D66E59"/>
<path d="M42.5 23H29.5C25.9101 23 23 25.9101 23 29.5V42.5C23 46.0898 25.9101 49 29.5 49H42.5C46.0898 49 49 46.0898 49 42.5V29.5C49 25.9101 46.0898 23 42.5 23Z" stroke="white" stroke-width="2" stroke-linecap="round" stroke-linejoin="round"/>
<path d="M41.2 35.1809C41.3604 36.2628 41.1756 37.3678 40.6718 38.3386C40.1681 39.3095 39.3711 40.0967 38.3941 40.5885C37.4171 41.0802 36.3099 41.2514 35.2301 41.0776C34.1502 40.9039 33.1526 40.394 32.3793 39.6206C31.6059 38.8472 31.096 37.8496 30.9222 36.7698C30.7485 35.6899 30.9196 34.5828 31.4114 33.6058C31.9031 32.6288 32.6904 31.8318 33.6612 31.328C34.6321 30.8243 35.737 30.6395 36.819 30.7999C37.9226 30.9636 38.9443 31.4778 39.7332 32.2667C40.5221 33.0556 41.0363 34.0773 41.2 35.1809Z" stroke="white" stroke-width="2" stroke-linecap="round" stroke-linejoin="round"/>
<path d="M43.15 28.8501H43.163" stroke="white" stroke-width="2" stroke-linecap="round" stroke-linejoin="round"/>
</svg>
