<svg width="90" height="144" viewBox="0 0 90 144" fill="none" xmlns="http://www.w3.org/2000/svg">
<path d="M76.8148 13.1825C59.2384 -4.39418 30.7633 -4.39418 13.1823 13.1825C-4.39411 30.7503 -4.39411 59.2528 13.1823 76.816C13.1823 76.816 44.9783 108.001 44.9783 144C44.9783 108.001 76.8103 76.816 76.8103 76.816C94.3958 59.2573 94.3958 30.7503 76.8148 13.1825Z" fill="#D66E59"/>
<path d="M30.0951 55.5776C30.1953 55.5776 30.2669 55.5633 30.3242 55.5347C30.4101 55.4917 30.4531 55.4058 30.4531 55.3056C30.4531 55.191 30.4101 55.1194 30.3099 55.0765C30.2526 55.0479 30.181 55.0479 30.0808 55.0479H29.6656V55.592H30.0951V55.5776ZM30.181 56.3938C30.3242 56.3938 30.4244 56.3508 30.496 56.2649C30.539 56.2076 30.5533 56.1504 30.5533 56.0788C30.5533 55.9499 30.496 55.864 30.3815 55.821C30.3242 55.7924 30.2383 55.7781 30.1381 55.7781H29.6656V56.3938H30.181ZM29.4365 54.8474H30.181C30.3815 54.8474 30.5247 54.9047 30.6106 55.0335C30.6679 55.1051 30.6822 55.191 30.6822 55.2769C30.6822 55.3915 30.6535 55.4774 30.5819 55.549C30.5533 55.5919 30.496 55.6206 30.4388 55.6492C30.5247 55.6779 30.5963 55.7208 30.6392 55.7638C30.7108 55.8354 30.7538 55.9499 30.7538 56.0788C30.7538 56.1933 30.7251 56.2936 30.6535 56.3795C30.5533 56.5226 30.3815 56.5799 30.1524 56.5799H29.4078V54.8474H29.4365ZM32.3001 54.8474H33.5745V55.0622H32.5292V55.592H33.4886V55.7924H32.5292V56.3795H33.5888V56.5942H32.3001V54.8474ZM36.0229 55.8783L35.7509 55.1051L35.4645 55.8783H36.0229ZM35.6363 54.8474H35.9084L36.5384 56.5942H36.2806L36.1088 56.0645H35.4215L35.2354 56.5942H34.992L35.6363 54.8474ZM38.2279 54.8474V55.9213C38.2279 56.0501 38.2566 56.1504 38.2995 56.2363C38.3711 56.3651 38.4857 56.4224 38.6575 56.4224C38.8579 56.4224 39.0011 56.3508 39.0727 56.222C39.1157 56.1504 39.13 56.0501 39.13 55.9213V54.8474H39.3734V55.821C39.3734 56.0358 39.3448 56.2076 39.2875 56.3222C39.1873 56.537 38.9868 56.6372 38.6861 56.6372C38.3854 56.6372 38.185 56.537 38.0848 56.3222C38.0275 56.2076 37.9988 56.0358 37.9988 55.821V54.8474H38.2279ZM42.2084 54.8474V55.0622H41.6214V56.5942H41.378V55.0622H40.7909V54.8474H42.2084ZM43.5114 54.8474H43.7835L44.2846 55.6922L44.7857 54.8474H45.0578L44.3991 55.8926V56.5942H44.1557V55.8926L43.5114 54.8474ZM49.0669 54.8044C49.2817 54.8044 49.4535 54.8617 49.5824 54.9763C49.7112 55.0908 49.7685 55.2197 49.7828 55.3772H49.5537C49.5251 55.2626 49.4822 55.1767 49.3962 55.1051C49.3247 55.0335 49.2101 55.0049 49.0669 55.0049C48.8951 55.0049 48.7519 55.0622 48.6517 55.191C48.5515 55.3056 48.4942 55.4917 48.4942 55.7495C48.4942 55.9499 48.5371 56.1217 48.6374 56.2506C48.7376 56.3795 48.8808 56.4367 49.0669 56.4367C49.2387 56.4367 49.3676 56.3651 49.4678 56.2363C49.5108 56.1647 49.5537 56.0788 49.5824 55.9642H49.8115C49.7972 56.1504 49.7256 56.3079 49.611 56.4224C49.4678 56.5656 49.2817 56.6515 49.0526 56.6515C48.8521 56.6515 48.6803 56.5942 48.5371 56.4654C48.351 56.3079 48.2651 56.0501 48.2651 55.7065C48.2651 55.4488 48.3367 55.234 48.4656 55.0765C48.6087 54.8904 48.8092 54.8044 49.0669 54.8044ZM52.0595 54.8044C52.3745 54.8044 52.5892 54.9047 52.7467 55.1051C52.8613 55.2626 52.9186 55.4631 52.9186 55.6922C52.9186 55.9499 52.847 56.1647 52.7181 56.3365C52.5606 56.537 52.3458 56.6372 52.0595 56.6372C51.7874 56.6372 51.5726 56.5513 51.4294 56.3651C51.2863 56.1933 51.229 55.9785 51.229 55.7208C51.229 55.4917 51.2863 55.2769 51.4008 55.1194C51.544 54.9047 51.7731 54.8044 52.0595 54.8044ZM52.0881 56.4367C52.3029 56.4367 52.4461 56.3651 52.5463 56.2076C52.6322 56.0645 52.6895 55.8926 52.6895 55.6922C52.6895 55.4917 52.6322 55.3199 52.532 55.191C52.4174 55.0622 52.2742 55.0049 52.0881 55.0049C51.902 55.0049 51.7588 55.0622 51.6442 55.191C51.5297 55.3199 51.4724 55.4917 51.4724 55.7351C51.4724 55.9356 51.5154 56.0931 51.6156 56.222C51.7158 56.3651 51.8733 56.4367 52.0881 56.4367ZM54.5365 54.8474L54.8659 56.2649L55.2668 54.8474H55.5245L55.9254 56.2649L56.2547 54.8474H56.5125L56.0543 56.5942H55.8109L55.41 55.1481L55.009 56.5942H54.7656L54.3074 54.8474H54.5365ZM58.6889 54.8044C59.0039 54.8044 59.2186 54.9047 59.3761 55.1051C59.4907 55.2626 59.548 55.4631 59.548 55.6922C59.548 55.9499 59.4764 56.1647 59.3475 56.3365C59.19 56.537 58.9752 56.6372 58.6889 56.6372C58.4168 56.6372 58.202 56.5513 58.0588 56.3651C57.9157 56.1933 57.8584 55.9785 57.8584 55.7208C57.8584 55.4917 57.9157 55.2769 58.0302 55.1194C58.1734 54.9047 58.3882 54.8044 58.6889 54.8044ZM58.7175 56.4367C58.9323 56.4367 59.0754 56.3651 59.1757 56.2076C59.2616 56.0645 59.3189 55.8926 59.3189 55.6922C59.3189 55.4917 59.2616 55.3199 59.1614 55.191C59.0468 55.0622 58.9036 55.0049 58.7175 55.0049C58.5314 55.0049 58.3882 55.0622 58.2736 55.191C58.1591 55.3199 58.1018 55.4917 58.1018 55.7351C58.1018 55.9356 58.1448 56.0931 58.245 56.222C58.3309 56.3651 58.4884 56.4367 58.7175 56.4367ZM61.8532 55.6492C61.9678 55.6492 62.0537 55.6206 62.1109 55.5776C62.1825 55.5347 62.2112 55.4488 62.2112 55.3342C62.2112 55.2054 62.1682 55.1194 62.0823 55.0765C62.0393 55.0479 61.9678 55.0479 61.8818 55.0479H61.3091V55.6492H61.8532ZM61.08 54.8474H61.8818C62.0107 54.8474 62.1253 54.8617 62.2112 54.9047C62.3687 54.9763 62.4546 55.1194 62.4546 55.3199C62.4546 55.4201 62.4259 55.506 62.383 55.5776C62.34 55.6492 62.2828 55.6922 62.1968 55.7351C62.2684 55.7638 62.3114 55.7924 62.3543 55.8497C62.383 55.8926 62.4116 55.9642 62.4116 56.0645L62.4259 56.2936C62.4259 56.3651 62.4403 56.4081 62.4403 56.4367C62.4546 56.494 62.4832 56.5226 62.5118 56.537V56.5799H62.2255C62.2112 56.5656 62.2112 56.5513 62.2112 56.5226C62.2112 56.494 62.1968 56.4511 62.1968 56.3795L62.1825 56.0931C62.1825 55.9785 62.1396 55.907 62.0537 55.864C62.0107 55.8497 61.9391 55.8354 61.8389 55.8354H61.2948V56.5799H61.0514V54.8474H61.08ZM64.0153 54.8474H64.2444V55.6922L65.0892 54.8474H65.4185L64.6882 55.549L65.4328 56.5942H65.1178L64.5021 55.7208L64.2157 55.9929V56.5942H63.9866V54.8474H64.0153ZM66.9219 54.8474H67.1653V56.5942H66.9219V54.8474ZM68.7546 54.8474H69.041L69.9287 56.2649V54.8474H70.1578V56.5942H69.8858L68.9837 55.1767V56.5942H68.7546V54.8474ZM72.4917 54.8044C72.6492 54.8044 72.7924 54.8331 72.9213 54.9047C73.0931 54.9906 73.2077 55.1624 73.2363 55.3772H73.0072C72.9786 55.2483 72.9213 55.1624 72.8354 55.1051C72.7495 55.0479 72.6349 55.0192 72.4917 55.0192C72.3342 55.0192 72.191 55.0765 72.0765 55.2054C71.962 55.3199 71.9047 55.506 71.9047 55.7495C71.9047 55.9642 71.9476 56.1217 72.0479 56.2506C72.1338 56.3795 72.2913 56.4511 72.4917 56.4511C72.6492 56.4511 72.7781 56.4081 72.8783 56.3079C72.9786 56.222 73.0358 56.0645 73.0358 55.864H72.4917V55.6635H73.2649V56.5942H73.1074L73.0501 56.3651C72.9642 56.4511 72.8926 56.5083 72.8354 56.5513C72.7351 56.6086 72.6063 56.6372 72.4345 56.6372C72.234 56.6372 72.0479 56.5656 71.9047 56.4367C71.7472 56.2649 71.6613 56.0358 71.6613 55.7495C71.6613 55.4631 71.7472 55.2197 71.9047 55.0479C72.0479 54.876 72.2483 54.8044 72.4917 54.8044Z" fill="white"/>
<path fill-rule="evenodd" clip-rule="evenodd" d="M24.2954 32.9973L20.0286 39.7269C19.0692 41.6026 18.024 48.8906 18.024 48.8906C17.9667 49.3059 17.5944 49.5922 17.1792 49.535C16.764 49.4777 16.4776 49.1054 16.5349 48.6902L19.556 40.4714L20.0429 39.7126L22.9924 32.2527C23.1929 31.8948 23.6511 31.7516 24.0091 31.952C24.367 32.1668 24.4959 32.625 24.2954 32.9973Z" fill="white"/>
<path fill-rule="evenodd" clip-rule="evenodd" d="M8.11592 40.4C5.78205 22.9031 39.5731 23.8767 29.9083 35.632C27.5601 38.4956 24.0808 40.1566 20.5871 40.8295C26.8585 43.9223 29.3499 47.2441 26.2428 50.8523C28.2044 50.6518 30.4953 50.523 33.1729 50.48C47.9493 50.2223 60.9932 50.5373 75.6694 53.2148C72.9633 52.9141 39.9168 50.5516 24.8969 52.1552C23.5653 53.2578 21.7039 54.3746 19.2842 55.52C15.8621 57.138 12.2396 52.9428 23.5653 51.1816C31.4833 45.125 19.1839 42.6193 17.6376 40.7866L17.8953 39.8416C20.5012 39.1256 21.0167 39.9991 24.9112 37.9515C44.2981 27.8285 8.00138 20.469 8.11592 40.4ZM18.2676 41.1302L18.1244 41.1445C18.2246 41.1445 18.2246 41.1445 18.2676 41.1302ZM21.2744 52.685C19.1696 53.1289 17.8237 53.7303 17.5803 54.5321C17.9955 54.4318 18.511 54.1598 18.6398 54.0882C19.6421 53.6157 20.5155 53.1432 21.2744 52.685Z" fill="white"/>
<path fill-rule="evenodd" clip-rule="evenodd" d="M32.2134 40.4289C29.4643 42.0612 29.2352 48.0606 31.7838 46.0417C32.5284 45.4546 33.3732 43.4357 33.3875 41.8894C32.6859 41.5314 32.2134 41.0159 32.2134 40.4289ZM33.4161 40.2714C33.4161 40.2571 33.4161 40.2428 33.4161 40.2428V40.2714ZM34.5186 41.5457C35.8932 41.7032 38.0839 40.3 38.4848 40.1568C37.7689 41.9466 36.065 42.4621 34.6045 42.2616C34.805 44.4237 34.2036 47.001 31.8984 47.4162C25.9276 48.4901 30.2231 40.4862 32.3136 39.9134C32.3422 39.8562 32.3709 39.7989 32.3995 39.7416C33.23 38.367 34.175 39.6414 34.5186 41.5457Z" fill="white"/>
<path fill-rule="evenodd" clip-rule="evenodd" d="M39.2154 39.5695C44.1696 33.4985 38.4279 36.0472 38.5568 43.6502C46.9903 33.3267 43.8832 39.4979 43.8832 45.6834C43.8403 45.6691 43.8116 45.6405 43.7687 45.6548C44.5132 46.1416 47.4914 42.9916 48.6226 41.2447C48.3649 41.7602 48.2503 42.4761 48.1501 42.6479C42.9382 50.6519 42.795 45.1966 42.8809 41.6313C40.7046 44.5236 36.5379 49.5637 36.7241 45.3398C37.2825 32.9401 45.9594 33.1262 39.2154 39.5695Z" fill="white"/>
<path fill-rule="evenodd" clip-rule="evenodd" d="M75.2825 37.1353C75.0677 38.023 75.1823 37.5791 74.9675 38.4812C74.5236 38.6816 74.3232 38.7532 73.9938 39.1112C73.8363 38.5671 73.8936 38.3094 73.9509 37.7509C74.8243 37.2355 74.3661 37.4359 75.2825 37.1353Z" fill="white"/>
<path fill-rule="evenodd" clip-rule="evenodd" d="M53.634 38.5245C45.3437 39.5983 47.606 52.4276 53.2617 39.3549C53.3476 39.1688 53.3619 39.1258 53.4765 38.954L54.9942 39.5983C53.4479 46.3852 50.0258 54.9762 58.3304 41.3595C54.9799 51.096 51.0137 52.2844 51.8299 45.4832C51.7869 45.5261 51.744 45.5548 51.7153 45.5977C45.8735 50.738 45.1575 36.2765 53.634 38.5245Z" fill="white"/>
<path fill-rule="evenodd" clip-rule="evenodd" d="M58.2732 40.4857C58.3448 39.9559 58.4736 39.2686 58.9461 39.1541C59.0177 39.197 59.075 39.2829 59.1036 39.4118C59.2898 40.3711 58.2732 43.4782 57.7291 45.7978C60.5641 40.5859 62.6546 35.2451 63.2273 44.0223C65.8333 41.4736 68.9117 35.689 67.5515 44.5521C67.4942 44.91 67.3796 45.7405 67.5228 46.1987C70.7158 45.1248 76.1711 35.8465 72.9638 45.3825C71.6751 49.2055 75.7702 46.6282 78.8343 44.9673L77.517 46.0555C70.587 50.9237 71.7611 45.8407 72.6058 43.1059C64.7164 50.5944 66.2628 47.1151 66.4346 42.4473L66.3917 42.4902C60.4782 49.7926 61.6523 44.0509 61.5807 41.2302C59.8768 43.4066 58.2445 48.0314 57.3139 48.5039C54.937 49.7353 57.2852 43.2205 58.2732 40.4857Z" fill="white"/>
</svg>
