<svg
 xmlns="http://www.w3.org/2000/svg"
 xmlns:xlink="http://www.w3.org/1999/xlink"
 width="505px" height="495px">
<path fill="#a4a9b5" fill-rule="evenodd"  
 d="M484.107,473.855 L483.065,473.853 C475.145,473.820 471.566,473.290 465.117,466.857 C460.497,462.249 458.628,457.022 458.628,449.907 C458.628,438.108 469.248,427.488 481.049,427.488 L483.065,427.488 L483.597,427.488 C493.891,427.488 505.000,438.121 505.000,448.379 L505.000,452.965 C505.000,463.066 494.210,473.855 484.107,473.855 ZM494.896,436.572 C490.959,433.416 486.909,431.877 483.065,431.575 C472.029,430.711 462.704,440.084 462.704,450.927 C462.704,463.987 473.568,469.998 483.065,469.794 C488.186,469.684 492.910,467.769 495.318,464.174 L489.203,464.174 C488.764,462.533 486.433,459.445 485.334,457.852 C484.311,456.368 483.651,455.387 483.065,454.738 C481.875,453.422 480.989,453.474 477.992,453.474 L477.992,464.174 L472.386,464.174 L472.386,437.679 C475.857,437.679 479.650,437.435 483.065,437.562 C488.995,437.783 493.789,439.124 493.789,444.812 C493.789,448.813 492.222,452.077 487.674,452.455 L489.402,454.294 C489.476,454.368 489.585,454.472 489.658,454.547 C492.656,457.613 494.225,462.117 496.337,463.665 C498.444,460.518 500.923,457.154 500.923,451.946 C500.923,445.666 499.294,440.097 494.896,436.572 ZM487.674,443.284 C485.775,442.842 484.470,442.716 483.065,442.700 C481.687,442.684 480.214,442.774 477.992,442.774 L477.992,448.889 L483.065,448.889 L483.597,448.889 C489.345,448.889 488.214,445.539 487.674,443.284 ZM90.924,331.481 C92.540,333.549 94.030,335.479 95.408,337.353 C101.164,345.187 104.951,352.063 107.727,364.104 L109.552,377.599 C109.658,379.515 109.188,379.991 109.052,381.632 C106.513,379.932 99.377,371.749 95.408,366.969 C94.485,365.858 93.734,364.930 93.251,364.311 C91.675,362.288 90.198,360.401 88.595,358.267 C84.581,352.924 80.510,348.953 81.362,344.295 C83.067,334.984 83.942,333.765 85.611,326.603 C87.978,327.235 89.468,329.618 90.924,331.481 ZM72.362,116.680 C73.619,116.680 74.709,116.741 75.674,116.847 C80.313,117.357 82.055,118.909 85.611,119.737 C83.977,122.177 80.010,124.430 75.674,126.035 C72.273,127.295 68.644,128.157 65.737,128.399 C66.216,126.341 67.491,123.838 68.448,121.938 C69.567,119.715 70.824,116.680 72.362,116.680 ZM62.030,139.439 C62.576,139.293 63.195,139.212 63.866,139.181 C67.527,139.010 72.699,140.313 75.674,140.581 C75.948,140.606 76.204,140.623 76.438,140.628 C76.279,141.223 76.011,141.747 75.674,142.225 C74.761,143.520 73.345,144.477 72.235,145.597 C70.268,147.582 67.172,149.914 63.866,151.751 C63.259,152.088 62.645,152.408 62.030,152.706 C59.605,153.882 57.158,154.718 55.036,154.894 C55.483,152.975 59.424,141.593 60.118,140.614 C60.529,140.034 61.194,139.661 62.030,139.439 ZM50.283,171.033 C50.852,169.030 50.600,169.332 52.724,168.888 L52.742,168.887 L62.030,168.332 L63.866,168.223 L65.227,168.142 C65.048,168.814 64.542,169.787 63.866,170.884 C63.334,171.745 62.697,172.683 62.030,173.614 C60.433,175.839 58.658,178.017 57.729,178.987 C56.419,180.354 54.623,181.816 52.742,183.152 C50.915,184.450 49.009,185.629 47.392,186.485 C47.392,183.881 48.200,181.188 48.706,178.628 C49.186,176.205 49.751,172.903 50.283,171.033 ZM44.317,212.453 C44.322,209.023 44.844,206.777 44.844,202.789 C47.703,201.277 50.378,200.293 52.742,199.579 C56.493,198.447 59.464,197.994 61.151,197.185 C61.055,201.498 56.845,209.279 54.839,212.273 C54.219,213.199 53.512,214.194 52.742,215.200 C50.338,218.344 47.310,221.596 44.334,223.170 C44.334,219.599 44.312,216.023 44.317,212.453 ZM47.392,261.384 C46.378,259.272 44.844,244.421 44.844,240.494 C45.433,240.336 48.928,237.790 52.742,235.580 C55.544,233.958 58.518,232.518 60.641,232.342 C60.050,233.573 59.961,237.619 58.906,241.307 C57.178,247.352 55.543,250.899 52.742,255.008 C51.921,256.212 51.000,257.465 49.947,258.844 C48.996,260.087 48.726,260.491 47.392,261.384 ZM65.022,304.998 C66.279,303.110 67.114,302.017 68.429,300.252 C70.512,297.456 71.365,297.345 71.852,295.522 L72.871,295.522 C73.239,297.103 74.098,298.947 74.719,300.808 C75.062,301.834 75.380,302.882 75.674,303.947 C78.125,312.829 78.839,322.910 77.165,331.916 C76.746,334.172 76.093,335.836 75.929,337.813 L75.674,337.744 C74.047,337.299 74.699,337.321 73.649,335.507 L66.415,321.848 C65.367,319.769 64.524,318.080 63.866,316.678 C62.755,314.309 62.173,312.759 62.030,311.527 L62.030,310.383 C62.184,309.193 62.836,308.189 63.866,306.693 C64.210,306.191 64.597,305.635 65.022,304.998 ZM57.074,300.108 C56.903,298.057 54.588,291.908 52.742,286.108 C51.488,282.165 50.449,278.383 50.449,276.160 C50.449,275.952 51.357,274.907 52.742,273.509 C55.139,271.090 58.971,267.611 62.030,265.559 C62.684,265.120 63.303,264.747 63.866,264.463 C64.371,264.208 64.830,264.025 65.227,263.932 C65.227,267.164 65.737,268.186 65.737,271.575 C65.737,275.108 65.049,280.296 63.866,285.318 C63.344,287.529 62.727,289.708 62.030,291.699 C60.649,295.642 58.955,298.849 57.074,300.108 ZM456.528,121.808 C456.809,121.124 457.031,120.494 457.213,119.921 C457.374,120.756 457.025,121.168 456.528,121.808 ZM417.796,69.832 C417.564,70.131 417.294,70.460 416.977,70.820 C417.153,70.378 417.305,69.928 417.398,69.459 C417.521,69.571 417.666,69.711 417.796,69.832 ZM490.520,297.349 C479.470,336.029 465.601,365.115 438.122,395.776 C435.270,398.960 432.765,401.632 429.709,404.687 C409.397,424.997 385.588,442.757 359.265,454.500 C357.308,455.373 355.539,456.225 353.317,457.215 C340.860,462.768 322.584,468.515 308.767,471.265 C304.441,472.126 298.522,473.592 294.034,473.855 C292.870,473.898 289.784,474.445 288.211,474.659 C261.053,478.353 233.395,476.577 206.693,470.487 C202.694,469.576 199.228,468.567 195.681,467.741 C193.757,470.614 190.028,474.274 186.253,477.496 C183.526,479.825 180.774,481.925 178.664,483.335 C165.603,492.061 151.562,495.000 136.057,494.783 C132.582,494.734 129.032,494.527 125.404,494.191 C119.909,493.681 103.265,490.235 98.860,488.122 C99.549,485.541 109.216,477.743 111.305,476.108 C118.073,470.811 126.749,465.832 136.057,462.220 C145.024,458.741 154.577,456.531 163.577,456.531 L157.123,453.304 C141.304,445.384 146.076,446.171 138.248,449.547 C137.497,449.871 136.770,450.175 136.057,450.463 C132.223,452.012 128.774,453.091 124.034,454.188 C114.746,456.337 104.788,456.002 95.408,453.949 C89.092,452.567 83.037,450.407 77.625,447.701 C77.080,447.429 76.420,447.082 75.674,446.677 C72.557,444.984 67.939,442.257 63.866,439.509 C63.238,439.086 62.624,438.663 62.030,438.242 C59.024,436.114 56.539,434.068 55.545,432.584 C57.124,431.826 59.577,431.007 62.030,430.269 C62.646,430.083 63.263,429.903 63.866,429.730 C65.360,429.300 66.769,428.916 67.880,428.612 C71.002,427.758 73.508,427.144 75.674,426.685 C82.723,425.190 86.158,425.324 95.408,424.064 L95.432,424.061 C100.620,423.354 105.490,424.431 110.580,424.431 L95.408,410.741 L89.687,405.579 C88.774,405.342 83.355,406.717 75.674,407.174 C72.143,407.384 68.135,407.400 63.866,406.977 C63.259,406.916 62.646,406.846 62.030,406.768 C59.020,406.384 55.900,405.771 52.742,404.849 C47.760,403.393 42.685,401.168 37.801,397.845 C31.678,393.679 22.936,383.628 21.403,377.046 C28.158,375.472 42.479,376.523 48.855,377.620 C50.247,377.860 51.539,378.107 52.742,378.358 C56.681,379.180 59.665,380.048 62.030,380.863 C62.687,381.089 63.297,381.311 63.866,381.528 C67.033,382.731 68.940,383.738 70.833,384.179 L63.866,374.319 L62.030,371.721 L57.541,365.369 C56.802,364.971 55.133,364.910 52.742,364.748 C48.063,364.433 40.615,363.735 31.934,359.383 C17.914,352.356 8.226,338.655 4.587,323.037 C15.377,325.550 29.079,331.835 37.710,338.322 L46.373,345.456 C45.935,343.576 45.038,342.270 44.161,340.534 C42.800,337.841 38.857,327.304 37.195,326.098 C33.514,323.428 30.721,322.663 24.388,317.504 C20.550,314.378 17.049,310.961 14.042,306.958 C7.908,298.791 3.058,287.123 3.058,275.651 C9.172,278.886 18.845,285.080 22.932,290.427 L28.028,296.541 C28.613,294.186 27.974,295.037 27.166,292.270 C25.446,286.378 26.169,279.462 22.279,276.304 C8.032,264.739 0.000,249.423 0.000,228.265 C8.086,232.543 12.739,237.604 17.538,244.867 L20.528,250.540 C20.552,250.590 20.941,251.379 21.035,251.562 L21.403,249.790 C21.403,245.771 20.880,243.447 20.876,240.002 C20.869,233.153 21.739,233.995 19.377,230.801 C16.554,226.985 13.839,221.345 11.712,217.065 C7.684,208.960 5.195,195.895 8.086,186.417 C8.551,184.891 9.025,184.184 9.173,182.408 C12.271,183.236 16.555,191.048 17.836,193.617 C20.735,199.428 22.771,208.065 22.778,208.038 C22.799,207.968 22.862,208.285 22.932,208.394 C23.015,204.658 26.011,192.538 25.159,190.406 C24.837,189.599 23.461,188.042 22.823,187.103 C13.805,173.832 11.964,156.650 19.364,142.666 C24.558,146.470 30.576,160.884 30.576,169.670 C31.809,168.251 32.491,165.197 33.059,163.491 C34.155,160.196 35.237,157.258 36.424,154.029 C37.646,150.709 36.278,152.175 33.289,146.577 C31.293,142.838 29.791,139.155 29.125,134.435 C27.680,124.177 30.500,114.902 34.143,108.018 C36.119,109.466 39.745,117.674 40.836,120.688 C42.685,125.792 43.315,129.956 43.315,137.061 C44.540,135.652 49.606,124.654 52.742,119.424 C53.013,118.973 53.269,118.564 53.507,118.209 C53.255,117.733 52.999,117.241 52.742,116.735 C49.952,111.238 47.059,104.001 47.963,95.342 C48.347,91.667 50.303,86.603 52.742,82.594 C54.256,80.107 55.956,78.027 57.584,76.937 C58.099,79.149 59.335,80.674 60.067,82.607 C61.010,85.101 61.632,87.130 62.030,88.878 C63.375,94.781 62.170,97.472 62.170,103.942 C62.600,103.627 63.210,102.890 63.866,102.004 C64.989,100.488 66.248,98.538 66.971,97.533 C68.808,94.979 71.214,92.537 72.724,90.062 L75.674,86.484 L77.571,84.184 C78.752,82.829 79.021,82.224 80.385,80.883 C81.801,79.490 81.992,79.058 83.213,77.597 C85.729,74.588 90.482,69.905 95.408,65.320 C100.345,60.725 105.455,56.229 108.659,53.616 C111.273,51.485 120.086,44.036 122.811,43.309 C122.341,45.066 117.304,52.034 115.683,54.525 C114.341,56.588 109.181,61.267 106.631,63.817 L95.408,75.924 L89.472,82.327 C85.683,87.226 80.195,92.421 77.062,97.394 C76.605,97.993 76.142,98.605 75.674,99.225 C71.925,104.200 67.862,109.832 63.866,115.733 C63.251,116.639 62.639,117.552 62.030,118.470 C58.779,123.367 55.613,128.403 52.742,133.365 C49.142,139.588 46.007,145.693 43.753,151.256 C41.587,155.626 40.507,158.273 38.845,162.616 L32.545,180.302 C30.562,186.214 28.203,195.273 27.071,201.833 L24.366,219.509 C24.131,221.354 24.116,223.346 23.873,225.640 C23.036,233.542 23.441,243.594 23.441,252.346 C23.441,255.592 24.125,260.607 24.503,263.889 C24.897,267.315 25.360,271.255 26.032,274.590 C27.437,281.564 28.599,288.538 30.576,295.010 C31.077,296.138 31.674,298.561 31.993,299.709 C36.364,315.458 44.479,332.218 52.742,346.558 C53.390,347.681 54.038,348.790 54.685,349.882 C56.222,352.475 58.978,356.642 62.030,361.025 C62.633,361.890 63.247,362.764 63.866,363.636 C67.489,368.742 71.268,373.780 73.777,376.650 C74.462,377.434 75.090,378.157 75.674,378.832 C80.680,384.617 82.456,386.884 89.305,393.733 C91.308,395.735 93.342,397.727 95.408,399.700 C107.719,411.459 121.180,422.528 136.057,430.870 C137.852,431.876 139.666,432.842 141.502,433.765 C151.516,438.801 151.350,440.596 167.319,447.696 C173.569,450.474 179.861,452.900 186.253,455.018 C199.773,459.499 213.740,462.607 228.714,464.774 C237.159,465.997 272.420,467.509 280.265,466.186 L294.187,464.840 C299.708,464.037 304.267,463.400 309.534,462.351 C323.744,459.518 337.767,455.447 350.887,450.199 C358.308,447.231 368.398,442.676 375.219,438.861 C377.150,437.781 378.927,436.680 380.687,435.667 C384.150,433.676 386.576,432.162 389.833,430.034 C399.808,423.517 413.728,412.715 421.981,404.094 L422.457,403.551 C422.526,403.472 422.618,403.352 422.687,403.271 C431.793,393.050 437.145,388.505 445.176,376.334 C452.793,364.792 455.160,361.560 461.855,348.173 C466.340,338.168 470.851,328.238 473.509,317.535 C474.771,312.451 476.005,307.058 476.825,301.489 C480.149,278.926 476.040,274.765 475.919,266.069 L475.444,265.968 C475.230,262.330 473.036,256.800 471.812,253.806 C471.114,252.100 470.338,250.344 469.404,248.570 C468.812,247.446 467.895,246.179 467.387,244.836 C467.141,241.755 466.814,238.376 466.381,234.722 C466.372,234.547 466.356,234.369 466.348,234.195 C465.977,230.856 465.781,227.085 465.401,224.425 C464.889,220.841 464.531,218.527 464.015,215.096 L462.843,208.578 C462.712,207.960 462.580,207.522 462.466,207.183 C472.180,201.132 479.492,193.944 483.337,185.412 C483.461,185.584 483.576,185.953 483.699,186.503 L484.000,185.000 L484.144,184.952 C484.085,184.499 484.020,184.189 483.941,183.979 C484.284,183.117 484.604,182.246 484.877,181.357 C484.965,181.124 485.000,181.000 485.000,181.000 C484.964,181.121 484.914,181.237 484.877,181.357 C484.715,181.786 484.370,182.591 483.730,183.694 C483.311,183.555 482.545,185.077 480.842,187.778 C477.455,191.874 471.442,197.418 460.935,203.246 C457.564,188.310 452.638,171.362 445.439,153.120 L445.579,152.553 L445.558,152.505 L445.417,153.065 C443.688,148.686 441.813,144.226 439.814,139.709 C440.011,139.583 440.211,139.456 440.404,139.329 C440.432,139.378 440.466,139.447 440.496,139.504 L440.532,139.468 C440.500,139.417 440.464,139.352 440.434,139.309 C449.250,133.522 453.487,127.960 455.630,123.759 C456.385,122.761 456.971,121.851 457.315,121.081 L457.541,120.064 C457.462,119.919 457.387,119.771 457.307,119.626 C457.453,119.144 457.566,118.721 457.663,118.337 L457.231,118.769 C457.165,118.897 457.116,119.003 457.039,119.143 C457.018,119.104 456.994,119.066 456.972,119.028 L456.928,119.072 C456.948,119.118 456.979,119.175 456.996,119.219 C455.185,122.481 450.336,128.958 438.168,136.042 C434.295,127.551 429.935,118.852 425.000,110.000 C419.354,99.873 413.172,90.675 406.632,82.297 C412.529,78.123 415.887,73.891 417.992,70.016 C417.995,70.018 417.998,70.021 418.000,70.023 L418.000,70.000 L418.133,69.967 C418.109,69.946 418.080,69.918 418.056,69.897 C418.396,69.264 418.707,68.640 418.987,68.028 C418.924,68.160 418.610,68.771 417.869,69.737 C417.696,69.588 417.509,69.420 417.351,69.292 C417.221,69.990 416.840,70.760 416.291,71.565 C414.214,73.745 410.679,76.738 404.828,80.020 C389.415,60.821 372.121,46.097 355.093,34.772 C360.742,29.340 361.000,25.000 361.000,25.000 C361.000,25.000 359.679,28.776 353.151,33.504 C334.149,21.135 315.585,12.934 300.471,7.396 C302.662,6.326 304.304,5.247 305.526,4.252 C324.054,7.839 350.896,16.536 366.736,25.133 C375.769,30.035 382.149,33.418 390.853,39.233 C399.422,44.957 404.842,49.269 412.693,55.609 C413.933,56.610 414.237,56.837 415.441,57.957 C416.550,58.987 416.893,59.039 417.984,60.000 C427.979,68.802 437.293,78.960 445.730,89.324 C452.853,98.075 456.907,105.504 462.135,112.415 C461.986,112.513 461.853,112.613 461.711,112.711 L462.000,113.000 L462.008,113.036 C462.104,112.927 462.199,112.820 462.299,112.697 L465.601,118.369 C475.425,134.718 483.233,153.538 488.516,171.886 C494.809,193.742 496.002,206.097 497.839,228.292 L497.873,240.470 L497.886,245.090 C497.929,247.084 497.920,248.362 497.827,249.118 C497.842,249.127 497.859,249.140 497.874,249.149 C500.279,255.374 492.173,291.562 490.520,297.349 ZM279.771,0.586 C287.296,1.250 294.629,2.385 301.334,3.504 C299.966,4.241 298.230,5.032 296.047,5.816 C289.852,3.654 284.336,1.944 279.771,0.586 ZM288.772,7.909 L289.000,8.000 L287.759,8.138 C287.582,8.177 287.420,8.217 287.239,8.256 C287.151,8.250 287.063,8.232 286.975,8.225 L284.858,8.460 C284.992,8.523 285.141,8.588 285.266,8.649 C283.801,8.927 282.235,9.187 280.566,9.428 C280.387,9.279 280.213,9.142 280.035,8.996 L280.000,9.000 L272.919,3.689 C271.652,2.855 270.436,2.110 269.292,1.490 C272.537,2.011 276.354,2.761 278.847,3.122 C282.592,4.215 286.879,5.577 291.551,7.217 C290.681,7.454 289.743,7.683 288.772,7.909 ZM268.121,10.653 C266.613,7.562 265.064,4.496 263.447,1.475 C264.235,1.659 265.068,1.868 265.921,2.089 C268.561,3.868 272.155,6.460 276.439,9.954 C273.882,10.238 271.120,10.477 268.121,10.653 ZM259.000,10.972 L259.000,3.288 C259.020,3.315 259.036,3.336 259.057,3.365 L259.000,2.180 L259.000,1.832 L260.531,2.604 C261.741,4.489 263.336,7.177 265.217,10.797 C263.241,10.883 261.165,10.941 259.000,10.972 ZM259.000,0.607 C259.069,0.616 259.152,0.632 259.223,0.643 C259.435,0.946 259.671,1.291 259.934,1.685 L259.000,0.856 L259.000,0.607 ZM269.678,344.004 C268.228,344.275 266.842,344.417 265.514,344.449 C261.912,344.536 258.763,343.783 256.076,342.413 C241.296,334.874 240.565,308.654 256.076,300.765 C257.707,299.936 259.516,299.309 261.508,298.927 C262.900,298.661 264.235,298.514 265.514,298.473 C290.983,297.652 293.710,339.504 269.678,344.004 ZM273.091,316.412 C272.433,309.411 268.811,307.107 265.514,307.084 C263.978,307.073 262.513,307.557 261.451,308.293 C257.173,311.256 257.405,320.904 257.915,326.603 C258.526,333.439 262.016,335.894 265.514,335.829 C266.898,335.803 268.283,335.382 269.492,334.682 C273.826,332.172 273.659,322.463 273.091,316.412 ZM327.674,354.647 C326.317,352.153 327.239,346.246 327.282,342.910 L314.277,342.910 L303.152,342.910 C303.095,346.336 303.968,351.996 302.725,354.674 C301.429,355.266 297.785,355.496 295.019,355.256 C293.711,355.143 292.599,354.925 292.026,354.590 C290.908,352.612 291.063,337.272 291.838,334.691 C291.964,334.629 292.137,334.578 292.237,334.552 L295.019,334.272 L296.025,334.171 C298.376,328.719 300.035,326.474 300.985,319.369 C301.848,312.917 301.006,306.181 301.787,300.012 L314.277,300.099 L332.867,300.228 L332.931,334.088 C334.045,334.211 337.963,334.073 338.499,334.723 C339.148,336.831 339.159,352.982 338.372,354.619 C336.551,355.586 329.551,355.592 327.674,354.647 ZM320.843,308.742 L314.277,308.699 L312.346,308.687 C312.266,313.550 312.258,318.444 311.356,323.073 C310.425,327.849 308.731,330.436 307.699,334.242 L314.277,334.146 L320.854,334.049 L320.843,308.742 ZM415.000,104.000 C422.149,115.848 428.246,127.428 433.471,138.609 C426.657,142.113 417.991,145.685 406.955,149.024 L406.476,149.167 C396.072,152.289 383.582,155.199 368.614,157.654 C364.073,141.803 357.339,122.811 347.335,101.150 C360.184,99.234 370.713,96.942 379.369,94.415 L379.661,94.331 C389.285,91.503 396.573,88.384 402.135,85.171 C406.643,91.061 410.963,97.310 415.000,104.000 ZM400.067,82.490 C394.434,85.203 387.187,88.013 377.891,90.653 L377.473,90.603 C377.378,90.695 377.309,90.766 377.245,90.833 C368.572,93.264 358.140,95.542 345.611,97.456 C344.758,95.651 343.899,93.840 343.000,92.000 C335.819,77.294 327.111,63.317 318.040,50.842 C326.949,48.970 334.014,46.728 339.612,44.357 L340.184,44.954 C340.024,44.389 340.023,44.357 339.927,44.225 C344.970,42.063 348.810,39.799 351.729,37.614 C368.434,49.087 385.263,63.777 400.067,82.490 ZM312.411,48.005 C311.995,48.077 311.574,48.149 311.151,48.220 C311.062,48.089 310.976,47.944 310.891,47.782 C310.853,47.871 310.869,48.025 310.859,48.071 C310.851,48.104 310.840,48.198 310.828,48.275 C303.265,49.530 294.580,50.542 284.608,51.193 C280.333,38.521 275.376,25.907 269.613,13.742 C273.380,13.540 276.789,13.229 279.875,12.835 C289.003,20.672 300.533,32.157 312.411,48.005 ZM259.000,14.000 C261.387,14.002 263.681,13.973 265.847,13.903 L266.464,13.877 C266.565,13.874 266.662,13.869 266.763,13.865 C270.815,22.120 275.895,34.270 281.187,51.400 C274.384,51.776 266.996,51.984 259.000,51.996 L259.000,14.000 ZM259.000,55.992 C267.472,55.965 275.248,55.723 282.371,55.299 C286.205,68.186 290.112,83.718 293.788,102.272 C283.117,102.750 271.540,103.006 259.000,102.998 L259.000,55.992 ZM259.000,106.978 C271.849,106.849 283.657,106.511 294.509,105.991 C297.749,122.841 300.788,142.094 303.410,164.073 C289.828,164.704 275.059,165.034 259.000,165.000 L259.000,106.978 ZM268.879,175.458 C265.489,174.448 262.206,173.262 259.000,172.300 L259.000,168.992 C275.261,168.958 290.175,168.601 303.869,167.973 C304.471,173.192 305.053,178.547 305.605,184.071 C297.389,182.431 289.385,180.737 281.394,178.739 C277.323,177.721 273.118,176.721 268.879,175.458 ZM371.438,194.885 L324.816,187.189 L310.234,184.619 C309.905,179.940 309.437,174.246 308.780,167.735 C330.760,166.599 349.487,164.752 365.421,162.414 C368.899,176.024 370.632,186.925 371.438,194.885 ZM285.893,55.070 C297.190,54.279 306.788,53.023 314.943,51.463 C323.970,63.942 333.098,78.924 341.436,96.815 L341.557,98.051 C329.226,99.794 314.965,101.184 298.483,102.043 C295.211,86.890 291.079,70.973 285.893,55.070 ZM364.356,158.327 C348.506,160.757 329.989,162.678 308.371,163.824 C306.660,147.895 303.850,127.721 299.266,105.748 C316.418,104.817 331.101,103.423 343.665,101.678 C353.624,123.782 360.124,142.717 364.356,158.327 ZM311.343,260.534 C312.418,260.535 313.389,260.452 314.277,260.310 C319.073,259.542 321.446,257.053 324.749,256.781 L329.655,266.480 C326.597,269.768 320.610,271.874 314.277,272.478 C307.745,273.101 300.844,272.127 296.406,269.202 C295.924,268.884 295.462,268.548 295.019,268.196 C286.217,261.197 285.165,247.723 288.537,238.053 C289.838,234.324 292.045,230.972 295.019,228.391 C299.710,224.322 306.309,222.171 314.277,223.481 C314.784,223.564 315.296,223.660 315.814,223.772 C327.013,226.190 332.294,237.801 330.885,251.417 L314.277,251.426 L303.340,251.432 C302.344,256.953 306.161,260.531 311.343,260.534 ZM314.277,241.396 L315.012,241.396 C315.132,239.401 314.921,237.652 314.277,236.312 C313.436,234.562 311.858,233.510 309.320,233.524 C304.936,233.548 303.274,236.918 303.187,241.396 L314.277,241.396 ZM296.590,9.042 C311.754,14.721 330.390,23.304 349.343,35.988 C346.212,37.837 342.263,39.751 337.305,41.584 L337.032,41.323 L336.488,41.504 C336.576,41.589 336.663,41.680 336.752,41.789 C331.076,43.850 324.101,45.802 315.541,47.437 C304.708,32.974 293.517,20.785 283.862,12.246 C286.063,11.881 288.087,11.475 289.922,11.032 C290.060,11.154 290.217,11.279 290.383,11.404 L290.710,11.322 C290.573,11.197 290.435,11.071 290.315,10.941 C292.696,10.353 294.770,9.711 296.590,9.042 ZM423.458,208.394 C423.457,208.390 423.456,208.386 423.456,208.382 L421.475,207.590 C419.919,207.135 418.312,206.287 416.907,205.781 C407.981,202.571 395.549,199.330 386.200,197.760 C383.826,197.362 381.912,197.052 379.642,196.675 C378.800,196.535 377.828,196.339 376.842,196.154 C375.773,187.856 373.710,176.242 369.765,161.754 C385.098,159.342 397.722,156.467 408.138,153.353 L408.715,153.183 C419.961,149.785 428.587,146.108 435.225,142.437 C445.784,165.742 452.517,187.187 456.780,205.440 C450.800,208.456 443.574,211.507 434.853,214.438 C431.335,212.678 425.383,209.403 423.458,208.394 ZM462.318,207.866 L463.453,214.647 C463.660,216.028 463.818,217.196 463.966,218.335 C463.360,214.884 462.667,211.280 461.876,207.540 C461.984,207.474 462.096,207.409 462.204,207.343 C462.239,207.501 462.277,207.672 462.318,207.866 ZM449.060,223.565 C447.348,222.060 443.805,219.444 440.864,217.567 C446.961,215.265 452.645,212.720 457.787,209.907 C460.021,220.146 461.485,229.295 462.422,237.070 C458.643,232.203 452.681,226.748 449.060,223.565 ZM339.049,242.023 C339.066,231.265 337.476,231.632 337.303,227.246 C339.787,225.728 343.558,225.042 346.498,224.160 C353.363,222.101 350.700,223.217 353.519,227.044 C356.163,225.061 359.155,223.786 362.197,223.288 C372.079,221.672 382.489,228.276 383.203,245.567 C383.743,258.634 380.721,270.229 367.762,272.370 C365.241,272.786 363.551,272.762 362.197,272.559 C359.944,272.219 358.624,271.380 355.955,271.239 L355.753,288.923 C354.649,289.059 340.242,291.304 339.380,290.349 C338.546,289.425 339.038,248.873 339.049,242.023 ZM355.964,261.115 C358.584,262.475 360.623,262.711 362.197,262.169 C369.498,259.654 366.764,240.299 365.238,237.573 C364.511,236.274 363.490,235.455 362.197,235.185 C361.238,234.984 360.129,235.086 358.879,235.520 C355.229,236.788 355.904,238.252 355.935,242.014 C355.987,248.368 355.829,254.772 355.964,261.115 ZM378.317,394.863 C380.216,397.280 381.159,400.341 381.159,404.072 C381.159,409.105 379.395,413.047 375.867,415.873 C372.547,418.544 367.990,419.953 362.197,420.110 C361.834,420.120 361.466,420.125 361.093,420.125 C354.796,420.125 349.896,418.712 346.380,415.873 C342.864,413.047 341.101,409.105 341.101,404.072 C341.101,400.341 342.044,397.280 343.943,394.863 C345.829,392.458 348.487,390.933 351.917,390.314 C349.136,389.632 347.005,388.343 345.498,386.446 C343.992,384.549 343.232,382.194 343.232,379.381 C343.232,374.856 344.800,371.336 347.948,368.807 C351.097,366.278 355.470,365.014 361.093,365.014 C361.467,365.014 361.835,365.020 362.197,365.031 C367.316,365.187 371.347,366.446 374.299,368.820 C377.447,371.361 379.028,374.881 379.028,379.381 C379.028,382.194 378.268,384.549 376.761,386.446 C375.254,388.343 373.123,389.632 370.342,390.314 C373.772,390.933 376.431,392.458 378.317,394.863 ZM365.687,375.463 C364.801,374.607 363.638,374.095 362.197,373.926 C361.846,373.885 361.478,373.865 361.093,373.865 C359.182,373.865 357.675,374.398 356.573,375.476 C355.470,376.554 354.919,378.029 354.919,379.889 C354.919,381.748 355.470,383.235 356.585,384.339 C357.700,385.442 359.207,385.987 361.093,385.987 C361.477,385.987 361.845,385.965 362.197,385.921 C363.599,385.746 364.749,385.223 365.650,384.351 C366.777,383.260 367.341,381.773 367.341,379.889 C367.341,378.005 366.790,376.529 365.687,375.463 ZM366.422,397.305 C365.334,396.265 363.926,395.662 362.197,395.487 C361.843,395.451 361.475,395.433 361.093,395.433 C358.876,395.433 357.112,396.052 355.825,397.305 C354.539,398.544 353.890,400.255 353.890,402.412 C353.890,404.581 354.539,406.316 355.838,407.580 C357.148,408.857 358.900,409.489 361.093,409.489 C361.475,409.489 361.843,409.471 362.197,409.435 C363.926,409.257 365.334,408.644 366.422,407.605 C367.721,406.341 368.370,404.605 368.370,402.412 C368.370,400.255 367.721,398.544 366.422,397.305 ZM373.047,344.316 C372.358,343.270 371.404,340.695 370.469,339.551 C368.221,341.715 365.287,343.188 362.197,343.898 C354.503,345.664 345.841,342.682 344.392,333.739 C342.384,321.348 351.771,317.704 362.197,316.658 C364.390,316.438 366.629,316.333 368.817,316.285 C369.407,308.374 366.319,306.770 362.197,307.122 C358.343,307.452 353.585,309.492 350.086,309.684 C348.976,308.337 347.511,304.027 347.442,302.146 C350.310,299.555 357.114,298.703 362.197,298.553 C362.961,298.530 363.687,298.523 364.354,298.529 C382.677,298.681 380.283,310.490 380.282,323.546 C380.281,340.755 381.510,333.756 382.708,341.042 C380.805,341.872 375.216,344.134 373.047,344.316 ZM362.197,324.047 C351.811,326.472 355.031,335.984 361.323,336.272 C361.627,336.286 361.918,336.287 362.197,336.275 C365.385,336.142 366.994,334.432 368.849,333.204 L368.921,323.509 C366.228,323.414 364.008,323.624 362.197,324.047 ZM265.514,418.712 L256.076,418.712 L240.391,418.712 L256.076,399.932 L263.985,390.462 C264.554,389.778 265.064,389.121 265.514,388.490 C266.198,387.532 266.745,386.634 267.158,385.789 C267.832,384.401 268.175,383.099 268.175,381.897 C268.175,380.025 267.599,378.513 266.435,377.335 C266.150,377.046 265.843,376.793 265.514,376.576 C264.504,375.907 263.290,375.575 261.866,375.575 C259.612,375.575 257.885,376.307 256.684,377.757 C256.461,378.024 256.258,378.313 256.076,378.625 C255.271,380.005 254.871,381.821 254.871,384.066 L254.871,384.723 L242.229,384.723 L242.229,384.364 C242.229,378.339 243.968,373.592 247.448,370.133 C249.766,367.837 252.641,366.300 256.076,365.527 C257.814,365.136 259.694,364.940 261.719,364.940 C263.045,364.940 264.310,365.018 265.514,365.173 C269.662,365.710 273.089,367.168 275.795,369.551 C277.295,370.872 278.474,372.381 279.331,374.077 C279.687,373.479 280.065,372.904 280.466,372.352 C284.011,367.466 288.862,365.024 295.019,365.014 L295.056,365.014 C301.328,365.014 306.204,367.468 309.683,372.365 C310.632,373.704 311.452,375.191 312.142,376.824 L314.277,372.651 L317.650,366.055 L335.829,366.055 L335.829,418.712 L322.746,418.712 L322.746,378.104 L314.277,378.104 L312.646,378.104 C313.358,380.055 313.902,382.198 314.277,384.535 C314.693,387.131 314.902,389.965 314.902,393.040 C314.902,395.937 314.693,398.619 314.277,401.088 C313.481,405.805 311.925,409.741 309.610,412.898 C306.081,417.720 301.230,420.125 295.056,420.125 L295.019,420.125 C288.903,420.115 284.075,417.692 280.536,412.869 L280.536,418.712 L265.514,418.712 ZM275.205,395.373 C274.800,395.856 274.372,396.347 273.921,396.846 L265.514,406.221 L264.451,407.407 L265.514,407.407 L277.566,407.407 C276.218,403.977 275.431,399.966 275.205,395.373 ZM289.972,405.250 C291.032,407.913 292.711,409.252 295.019,409.266 L295.056,409.266 C297.335,409.266 299.001,407.928 300.066,405.238 C301.132,402.548 301.671,398.321 301.671,392.532 C301.671,386.793 301.132,382.579 300.066,379.864 C299.001,377.149 297.335,375.798 295.056,375.798 L295.019,375.798 C292.686,375.812 290.995,377.138 289.948,379.777 C288.894,382.417 288.367,386.681 288.367,392.532 C288.367,398.346 288.907,402.585 289.972,405.250 ZM277.006,224.932 C278.412,228.787 277.010,252.952 277.543,259.584 L282.695,259.972 C282.992,265.072 283.254,279.636 282.429,284.129 L280.273,284.271 C263.638,284.817 269.992,284.744 268.584,271.136 L265.514,271.136 L256.076,271.136 L243.996,271.136 C243.708,273.801 243.828,276.545 243.858,279.231 C243.901,283.152 244.810,284.271 241.034,284.271 C236.831,284.282 234.001,284.549 229.996,283.979 L229.904,259.806 L234.708,259.626 C241.021,249.615 239.515,238.783 239.975,227.724 C240.053,225.846 239.807,226.423 240.465,224.920 L256.076,224.925 L265.514,224.928 L277.006,224.932 ZM256.076,236.284 L253.894,236.278 C253.895,240.704 253.807,244.862 253.099,249.032 C252.431,252.963 250.753,256.607 250.262,259.691 L256.076,259.687 L261.728,259.684 L261.890,236.298 L256.076,236.284 ZM217.755,153.204 C216.175,152.274 211.082,148.940 210.457,147.761 C210.457,140.838 215.972,114.125 217.303,106.097 C228.663,106.770 241.495,107.105 256.000,107.004 L256.000,164.992 C249.965,164.962 244.160,164.883 238.563,164.761 C231.596,161.594 222.627,156.068 217.755,153.204 ZM217.792,101.925 C220.888,87.371 224.963,71.246 230.247,55.190 C237.945,55.683 246.495,55.968 256.000,55.995 L256.000,102.264 C255.984,102.527 255.966,102.754 255.948,102.993 C241.642,102.936 228.992,102.558 217.792,101.925 ZM247.438,13.656 C250.085,13.824 252.930,13.936 256.000,13.981 L256.000,51.993 C247.044,51.953 238.926,51.682 231.570,51.228 C236.011,38.253 241.256,25.435 247.438,13.656 ZM248.946,10.824 C250.693,7.621 252.512,4.503 254.406,1.490 C254.844,1.847 255.106,1.547 255.614,1.623 C255.643,1.627 255.778,1.646 255.801,1.652 C255.894,1.676 255.954,1.666 256.000,1.645 L256.000,10.996 C253.492,10.997 251.147,10.943 248.949,10.844 L248.946,10.824 ZM230.925,8.413 C236.226,5.990 240.886,4.137 244.536,2.801 C247.643,1.948 250.763,1.188 253.774,0.570 L253.939,0.912 C252.326,2.615 249.828,5.669 246.702,10.724 C240.092,10.310 234.936,9.463 230.925,8.413 ZM220.603,4.020 C220.189,3.727 219.827,3.441 219.500,3.163 C224.698,2.200 231.951,1.019 236.961,1.019 C236.848,1.084 236.675,1.114 236.590,1.140 C236.503,1.168 236.320,1.229 236.212,1.263 C236.073,1.307 235.563,1.456 235.405,1.507 L234.125,1.953 C234.046,1.826 233.826,2.042 233.695,2.124 C235.727,2.374 237.612,2.273 239.496,2.047 C235.324,3.805 231.355,5.594 227.558,7.403 C225.680,6.757 224.127,6.074 222.850,5.391 L223.916,4.874 C223.608,4.955 223.115,5.109 222.607,5.259 C222.091,4.976 221.619,4.694 221.192,4.416 L223.940,3.708 M217.931,6.873 C218.171,6.832 218.443,6.840 218.729,6.868 C220.053,7.685 221.692,8.503 223.698,9.281 C202.670,19.721 187.568,30.760 176.790,40.831 C176.771,40.845 176.758,40.854 176.739,40.868 C162.892,34.998 161.000,29.000 161.000,29.000 C161.000,29.000 160.692,36.272 174.036,43.269 C174.053,43.316 174.070,43.364 174.094,43.417 C166.905,50.496 161.852,57.007 158.351,62.374 C155.682,52.161 153.103,41.084 152.867,36.636 C152.762,34.661 154.548,29.821 155.424,29.040 C155.832,26.454 157.246,22.650 159.689,21.588 L182.646,12.442 C185.343,11.390 187.965,10.789 190.772,9.867 C195.913,8.177 203.018,6.549 209.469,5.133 L210.000,5.000 L210.887,4.823 C212.331,4.507 213.747,4.199 215.071,3.909 C215.325,4.190 215.610,4.478 215.929,4.773 C215.889,4.783 215.845,4.794 215.804,4.804 L216.338,5.338 C216.409,5.332 216.488,5.322 216.557,5.317 C216.996,5.681 217.490,6.049 218.044,6.421 M186.253,433.101 C183.473,431.959 180.701,430.787 177.774,429.598 C175.161,428.537 173.409,427.529 170.878,426.303 C166.809,424.333 167.684,425.201 166.529,420.461 C163.953,409.886 164.087,406.155 164.087,395.389 C164.087,391.148 164.315,385.026 165.106,381.632 C167.092,382.094 171.072,385.209 172.900,386.576 C176.816,389.505 182.215,394.318 186.253,398.643 C187.424,399.897 188.481,401.111 189.353,402.225 C195.477,410.048 197.157,412.175 201.798,421.372 C203.154,424.059 204.457,427.201 205.561,430.348 L208.421,440.227 C205.859,440.227 202.105,438.854 199.818,438.128 C194.875,436.560 190.554,434.867 186.253,433.101 ZM201.392,141.061 C188.143,127.664 188.451,127.962 177.845,112.095 C175.733,108.935 174.926,107.729 174.370,106.388 C174.205,106.208 174.142,105.837 173.551,104.641 C173.076,103.681 172.880,103.184 172.410,102.244 C172.074,101.572 171.772,100.913 171.478,100.257 C182.329,102.677 196.012,104.662 213.272,105.842 C210.692,117.015 208.117,129.302 205.585,142.866 C204.376,143.351 202.995,142.865 201.392,141.061 ZM237.755,12.687 L238.872,12.842 C240.785,13.094 242.841,13.311 245.048,13.488 C240.482,21.382 234.812,33.297 228.659,51.035 C205.780,49.428 190.573,46.015 180.496,42.342 C195.765,27.394 212.981,17.056 226.813,10.349 C229.777,11.256 233.381,12.062 237.755,12.687 ZM169.767,96.263 C169.369,95.324 168.961,94.380 168.503,93.418 L163.763,81.337 C162.924,78.869 161.463,73.898 159.877,68.089 C165.115,59.462 171.236,51.823 177.785,45.062 C187.535,49.317 202.956,53.216 227.315,54.990 C223.089,67.624 218.664,83.025 214.236,101.716 C195.446,100.531 180.933,98.606 169.767,96.263 ZM196.199,270.986 L181.426,271.096 C181.264,271.070 181.119,271.032 180.979,271.001 L179.788,270.504 C179.020,267.942 179.584,238.238 179.547,230.810 C179.533,228.032 178.748,225.401 180.928,224.695 C182.519,224.179 193.428,223.186 194.981,223.519 L194.716,250.674 L207.669,227.002 C208.941,224.742 209.179,224.915 212.358,224.562 L223.704,223.383 C224.555,223.472 224.446,223.503 225.066,223.695 L224.998,271.088 L209.628,271.092 L209.953,245.137 C208.560,246.966 204.618,255.565 203.215,258.222 C201.115,262.197 198.374,267.752 196.199,270.986 ZM220.750,342.428 C218.732,343.474 211.380,343.427 209.303,342.469 C208.607,340.344 208.639,304.330 209.170,300.335 C211.756,299.629 236.289,299.793 240.049,300.150 C240.207,302.586 239.238,306.846 238.394,308.232 L237.865,308.816 C235.424,309.785 224.610,309.117 221.047,309.117 C221.032,314.440 221.707,339.639 220.750,342.428 ZM122.887,359.646 C124.065,360.614 124.992,361.386 126.228,362.420 C129.505,365.164 132.872,368.656 136.057,372.553 C142.315,380.209 147.868,389.427 150.652,397.612 C152.287,402.420 154.914,411.379 154.914,417.298 C152.602,417.106 143.368,410.722 136.057,405.327 C131.812,402.193 128.216,399.393 127.001,398.332 C124.788,396.400 118.218,392.310 117.754,389.235 C117.112,384.994 117.205,380.886 117.205,376.536 C117.205,366.689 118.633,364.503 119.243,357.175 C120.646,357.916 121.653,358.632 122.887,359.646 ZM169.780,209.923 C169.785,219.719 170.354,264.921 169.496,270.934 C165.157,271.307 156.733,271.407 152.517,270.894 C151.035,265.693 152.250,230.325 152.121,221.667 L144.074,221.594 C144.021,238.647 146.087,260.640 132.555,269.084 C129.354,271.082 123.254,272.961 118.605,272.574 C117.641,270.597 114.595,261.812 114.831,259.491 C117.384,258.250 120.587,258.231 122.939,256.425 C129.433,251.437 127.823,220.084 127.822,209.923 C127.822,207.418 128.446,206.772 130.964,206.772 L166.635,206.772 C169.398,206.772 169.780,207.167 169.780,209.923 Z"/>
</svg>
